<?xml version="1.0" encoding="utf-8"?>
<svg width="828px" height="531px" viewBox="0 0 828 531" version="1.1" xmlns:xlink="http://www.w3.org/1999/xlink" xmlns="http://www.w3.org/2000/svg">
  <desc>Created with Lunacy</desc>
  <defs>
    <linearGradient x1="0.51647085" y1="1.11630046" x2="0.51647085" y2="0.116300486" id="gradient_1">
      <stop offset="0" stop-color="#808080" stop-opacity="0.2509804" />
      <stop offset="0.54" stop-color="#808080" stop-opacity="0.121568628" />
      <stop offset="1" stop-color="#808080" stop-opacity="0.101960786" />
    </linearGradient>
    <linearGradient x1="642.170044" y1="175.699951" x2="642.170044" y2="169.699951" id="gradient_2" />
    <linearGradient x1="588.52" y1="693.03" x2="588.52" y2="483.16" id="gradient_3" />
  </defs>
  <g id="About-Me-Icon">
    <path d="M0 21.8545C0 9.7846 170.757 0 381.396 0C592.035 0 762.792 9.7846 762.792 21.8545C762.792 33.9244 592.035 43.709 381.396 43.709C170.757 43.709 0 33.9244 0 21.8545Z" transform="translate(12.61761 486.3427)" id="Ellipse" fill="#397A51" stroke="none" />
    <g id="Group" transform="translate(695.1826 339.2139)" opacity="0.2">
      <path d="M13.6061 12.953C8.32584 11.9732 12.8487 14.2458 12.3865 14.8354C12.3865 14.8354 4.19698 9.16965 0 6.42493C0.0845944 6.24869 0.176246 6.06538 0.274953 5.88914C1.24934 4.00689 2.70986 2.41977 4.50485 1.29263C6.82422 -0.11734 9.43972 -0.455718 11.5547 0.686353C13.6696 1.82842 14.9103 4.16898 15.0373 6.87613C15.1109 8.99319 14.6168 11.0914 13.6061 12.953L13.6061 12.953Z" transform="translate(0 157.6965)" id="Shape" fill="#3F3D56" stroke="none" />
      <path d="M0 7.54013C4.57764e-05 3.37585 4.42027 0 9.87257 0C15.325 3.05176e-05 19.7451 3.37584 19.7452 7.54007C19.7452 11.7043 15.325 15.0801 9.87254 15.0802C4.42021 15.0801 6.10352e-05 11.7043 0 7.54013Z" transform="matrix(0.4680841 -0.8836839 0.8836839 0.4680841 1.326539 160.944)" id="Ellipse" fill="#3F3D56" stroke="none" />
      <path d="M0 7.54004C-6.10352e-05 3.37573 4.41991 7.62939e-06 9.87244 0C15.3249 7.62939e-06 19.745 3.37577 19.745 7.54007C19.745 11.7043 15.325 15.0801 9.87252 15.0801C4.41995 15.0801 -7.62939e-05 11.7043 0 7.54004Z" transform="matrix(0.4680841 -0.8836839 0.8836839 0.4680841 6.971315 150.2786)" id="Ellipse" fill="#3F3D56" stroke="none" />
      <path d="M0 7.54012C2.28882e-05 3.37583 4.42016 3.05176e-05 9.87263 0C15.3251 0 19.7451 3.37585 19.7452 7.54011C19.7452 11.7043 15.3251 15.0801 9.87261 15.0802C4.42016 15.0801 1.52588e-05 11.7044 0 7.54012Z" transform="matrix(0.4680841 -0.8836839 0.8836839 0.4680841 12.62561 139.6102)" id="Ellipse" fill="#3F3D56" stroke="none" />
      <path d="M0 7.54009C3.05176e-05 3.37577 4.42014 0 9.87257 0C15.3251 7.62939e-06 19.745 3.37584 19.7451 7.54005C19.7451 11.7043 15.325 15.0801 9.87254 15.0801C4.42011 15.0801 -2.28882e-05 11.7044 0 7.54009Z" transform="matrix(0.4680841 -0.8836839 0.8836839 0.4680841 18.27356 128.9386)" id="Ellipse" fill="#3F3D56" stroke="none" />
      <path d="M42.4151 42.558C42.1203 40.9275 41.9365 39.2787 41.8652 37.6232L60.8997 44.0244L41.8652 34.1547C42.4252 24.1841 47.0753 14.8867 54.717 8.45795L73.124 35.1487L58.8058 5.49C70.2729 -1.67266 84.7782 -1.8381 96.4057 5.06117C108.033 11.9604 114.839 24.7711 114.047 38.2681C113.256 51.7652 104.999 63.6925 92.645 69.1852C93.1116 71.7423 93.3008 74.3423 93.209 76.9401L64.199 76.7145L92.7648 81.4167C90.8049 93.4744 82.8936 103.729 71.7283 108.685C75.0979 127.239 63.6402 145.267 45.4109 150.093C27.1816 154.919 8.30479 144.923 2.05225 127.132C-4.20029 109.342 4.27202 89.7332 21.5124 82.0935C18.5481 65.6851 27.1884 49.3773 42.4292 42.6144L42.4151 42.558Z" transform="translate(2.887817 0)" id="Shape" fill="#6C63FF" stroke="none" />
      <path d="M89.0216 12.6773C85.2409 19.8501 79.1466 25.5344 71.7283 28.8073C75.0979 47.3612 63.6402 65.3885 45.4109 70.2147C27.1817 75.0409 8.3048 65.0446 2.05225 47.254C-4.20029 29.4634 4.27202 9.85514 21.5125 2.21538C20.1095 -5.49013 90.925 9.09598 89.0216 12.6773L89.0216 12.6773Z" transform="translate(2.873657 77.00415)" id="Shape" fill="#000000" stroke="none" />
    </g>
    <g id="Group" transform="translate(659.3577 6.249146)" opacity="0.2">
      <path d="M23.1658 19.919C14.4781 19.4021 22.1965 22.1448 21.5796 23.1902C21.5796 23.1902 7.28484 15.7221 0 12.1501C0.0987084 11.847 0.211487 11.5297 0.331323 11.2266C1.51303 8.01335 3.53341 5.17504 6.1827 3.00649C9.61598 0.257054 13.7542 -0.779274 17.4625 0.623639C21.1707 2.02655 23.5395 5.55853 24.2797 9.86598C24.8144 13.2563 24.4298 16.728 23.1658 19.919L23.1658 19.919Z" transform="translate(3.614136 270.3962)" id="Shape" fill="#3F3D56" stroke="none" />
      <path d="M0 12.2121C-0.000213623 5.4676 7.15843 -1.52588e-05 15.989 0C24.8196 7.6294e-06 31.9785 5.46746 31.9783 12.2121C31.9784 18.9566 24.8197 24.4241 15.9891 24.4242C7.15858 24.4242 -0.000244141 18.9566 0 12.2121Z" transform="matrix(0.3557595 -0.9345775 0.9345775 0.3557595 5.218628 277.5814)" id="Ellipse" fill="#3F3D56" stroke="none" />
      <path d="M0 12.212C-1.52588e-05 5.46756 7.15865 0 15.9891 0C24.8197 0 31.9782 5.46756 31.9784 12.212C31.9784 18.9566 24.8196 24.4242 15.9891 24.4242C7.15863 24.4242 -0.00012207 18.9567 0 12.212Z" transform="matrix(0.3557595 -0.9345775 0.9345775 0.3557595 12.1759 259.3213)" id="Ellipse" fill="#3F3D56" stroke="none" />
      <path d="M0 12.2121C3.05176e-05 5.4675 7.15868 3.05176e-05 15.9891 0C24.8198 -7.62939e-06 31.9784 5.4675 31.9784 12.212C31.9783 18.9566 24.8198 24.4241 15.9892 24.4241C7.15865 24.4242 -1.52588e-05 18.9566 0 12.2121Z" transform="matrix(0.3557595 -0.9345775 0.9345775 0.3557595 19.12195 241.0524)" id="Ellipse" fill="#3F3D56" stroke="none" />
      <path d="M0 12.2121C9.15527e-05 5.46753 7.15871 0 15.9893 0C24.8198 -1.52588e-05 31.9784 5.46751 31.9784 12.2121C31.9784 18.9567 24.8197 24.4242 15.9891 24.4242C7.15869 24.4242 0.00012207 18.9566 0 12.2121Z" transform="matrix(0.3557595 -0.9345775 0.9345775 0.3557595 26.0791 222.7992)" id="Ellipse" fill="#3F3D56" stroke="none" />
      <path d="M54.1478 75.8916C53.3445 73.3105 52.7203 70.677 52.2796 68.0099L84.159 74.5028L51.6169 62.3911C50.5378 46.3175 56.1245 30.5088 67.0632 18.6821L102.002 57.7806L73.0978 12.993C90.0986 -0.737508 113.334 -3.85036 133.349 4.92103C153.365 13.6924 166.824 32.8861 168.252 54.6924C169.679 76.4987 158.836 97.2831 140.135 108.589C141.387 112.604 142.205 116.743 142.574 120.933L95.9252 126.347L142.757 128.215C142.012 147.981 131.34 166.036 114.382 176.218C123.467 205.345 108.647 236.564 80.3349 247.937C52.0231 259.311 19.7239 247.021 6.13368 219.704C-7.45652 192.387 2.22438 159.213 28.3736 143.492C20.3161 117.709 30.9558 89.761 54.1197 75.8634L54.1478 75.8916Z" id="Shape" fill="#6C63FF" stroke="none" />
      <path d="M138.958 9.25558C134.305 21.5234 125.645 31.8601 114.382 38.59C123.467 67.7168 108.647 98.9358 80.3349 110.31C52.0231 121.683 19.7239 109.394 6.13368 82.0767C-7.45652 54.7596 2.22438 21.5851 28.3736 5.86461C24.616 -6.20473 141.298 3.12221 138.958 9.25558L138.958 9.25558Z" transform="translate(0 138.5714)" id="Shape" fill="#000000" stroke="none" />
    </g>
    <g id="Group" opacity="0.2">
      <path d="M0.707718 22.2903C11.0475 22.9577 1.53619 25.0573 2.11769 26.3792C2.11769 26.3792 20.0784 19.6678 29.2103 16.5095C29.1327 16.1358 29.0552 15.7481 28.9565 15.3674C28.0368 11.3983 26.0726 7.74732 23.2673 4.79266C19.6154 1.04215 14.885 -0.790781 10.3378 0.323059C5.79067 1.4369 2.44199 5.25793 0.926262 10.1928C-0.229602 14.1328 -0.305086 18.3111 0.707718 22.2903L0.707718 22.2903Z" transform="translate(124.4423 334.7501)" id="Shape" fill="#3F3D56" stroke="none" />
      <path d="M0 19.0121C0 8.51208 6.50243 -9.15527e-05 14.5234 0C22.5445 -0.000152588 29.0469 8.51202 29.0468 19.0123C29.0469 29.5124 22.5445 38.0245 14.5234 38.0246C6.50242 38.0245 -1.52588e-05 29.5125 0 19.0121Z" transform="matrix(0.9714664 -0.2371773 0.2371773 0.9714664 114.4038 315.4984)" id="Ellipse" fill="#3F3D56" stroke="none" />
      <path d="M0 19.0125C0 8.51236 6.50232 0.000396729 14.5234 0C22.5446 0.000366211 29.0468 8.51227 29.0469 19.0123C29.0469 29.5125 22.5445 38.0244 14.5234 38.0247C6.50234 38.0246 -7.6294e-06 29.5125 0 19.0125Z" transform="matrix(0.9714664 -0.2371773 0.2371773 0.9714664 108.8907 292.9335)" id="Ellipse" fill="#3F3D56" stroke="none" />
      <path d="M0 19.0123C3.8147e-05 8.5123 6.50242 0.00012207 14.5235 0C22.5445 0.000274658 29.0469 8.51199 29.0469 19.0121C29.0469 29.5123 22.5445 38.0244 14.5234 38.0245C6.50235 38.0244 2.28882e-05 29.5125 0 19.0123Z" transform="matrix(0.9714664 -0.2371773 0.2371773 0.9714664 103.3843 270.3601)" id="Ellipse" fill="#3F3D56" stroke="none" />
      <path d="M0 19.0123C1.52588e-05 8.51215 6.50237 -9.15528e-05 14.5235 0C22.5444 0 29.0468 8.51215 29.0468 19.0123C29.0468 29.5126 22.5444 38.0247 14.5234 38.0245C6.50234 38.0246 -1.52588e-05 29.5127 0 19.0123Z" transform="matrix(0.9714664 -0.2371773 0.2371773 0.9714664 97.86951 247.7815)" id="Ellipse" fill="#3F3D56" stroke="none" />
      <path d="M132.874 98.3701C134.206 95.4443 135.332 92.4291 136.244 89.3463L97.6741 92.2931L137.858 82.804C141.512 63.9876 137.251 44.4971 126.078 28.9222L79.0695 69.9804L119.796 21.3929C101.77 2.62138 74.777 -4.52419 49.8243 2.87016C24.8716 10.2645 6.12943 30.9631 1.24085 56.5251C-3.64772 82.0871 6.13421 108.241 26.5976 124.321C24.5268 128.876 22.9504 133.641 21.8954 138.533L76.1439 151.794L20.6052 147.092C18.5718 170.519 28.4953 193.391 46.9928 207.91C31.9637 240.946 44.8474 279.985 76.5878 297.586C108.328 315.186 148.265 305.438 168.327 275.192C188.388 244.947 181.836 204.363 153.276 181.967C166.575 152.723 158.126 118.176 132.832 98.3701L132.874 98.3701Z" id="Shape" fill="#6C63FF" stroke="none" />
      <path d="M0.0181017 3.25893C3.69624 18.4322 12.3908 31.9187 24.6926 41.5325C9.6634 74.5681 22.5471 113.607 54.2875 131.208C86.0279 148.808 125.965 139.06 146.027 108.814C166.088 78.5691 159.536 37.9848 130.976 15.5891C137.236 1.87717 -1.82191 -4.29143 0.0181017 3.25893L0.0181017 3.25893Z" transform="translate(21.07758 166.7666)" id="Shape" fill="#000000" stroke="none" />
    </g>
    <path d="M689.03 0L6.08403 0C4.46736 0.00187175 2.91774 0.646368 1.77657 1.79151C0.63539 2.93665 -0.00372199 4.4885 2.15144e-05 6.10516L2.15144e-05 424.076C-0.0119244 430.862 5.47988 436.373 12.2663 436.385L682.847 436.385C689.633 436.373 695.125 430.862 695.113 424.076L695.113 6.10516C695.117 2.7401 692.395 0.00797108 689.03 0L689.03 0Z" transform="translate(54.33154 77.22668)" id="Shape" fill="url(#gradient_1)" stroke="none" />
    <path d="M689.474 0L689.474 395.665C689.471 402.378 684.029 407.821 677.314 407.826L12.168 407.826C5.4478 407.826 0 402.378 0 395.658L0 0L689.474 0Z" transform="translate(57.20776 103.1772)" id="Shape" fill="#EEEEEE" stroke="none" />
    <path d="M689.474 6.03466L689.474 23.617L0 23.617L0 6.03466C0.00162434 2.69886 2.70475 -0.00162434 6.0376 0L683.442 0C686.774 0.00163509 689.474 2.70297 689.474 6.03466L689.474 6.03466Z" transform="translate(57.20776 79.5603)" id="Shape" fill="#EDEDF4" stroke="none" />
    <path d="M0 2.81996C0 1.26254 1.26256 0 2.82 0C4.37744 0 5.63999 1.26254 5.63999 2.81996C5.63999 4.37738 4.37744 5.63992 2.82 5.63992C1.26256 5.63992 0 4.37738 0 2.81996Z" transform="translate(65.31519 88.37244)" id="Circle" fill="#FA5959" stroke="none" />
    <path d="M0 2.81996C0 1.26254 1.26254 0 2.81996 0C4.37738 0 5.63992 1.26254 5.63992 2.81996C5.63992 4.37738 4.37738 5.63992 2.81996 5.63992C1.26254 5.63992 0 4.37738 0 2.81996Z" transform="translate(73.07007 88.37244)" id="Circle" fill="#FED253" stroke="none" />
    <path d="M0 2.81996C0 1.26254 1.26259 0 2.82007 0C4.37755 0 5.64014 1.26254 5.64014 2.81996C5.64014 4.37738 4.37755 5.63992 2.82007 5.63992C1.26259 5.63992 0 4.37738 0 2.81996Z" transform="translate(80.82483 88.37244)" id="Circle" fill="#8CCF4D" stroke="none" />
    <path d="M0 0L2.81871 0L2.81873 4.22729L1.52588e-05 4.22729L0 0Z" transform="matrix(-4.371139E-08 1 -1 -4.371139E-08 441.7955 66.63025)" id="Rectangle" fill="url(#gradient_2)" stroke="none" />
    <path d="M0 0L66.2686 0L66.2686 7.04994L0 7.04994L0 0Z" transform="translate(215.7726 137.8552)" id="Rectangle" fill="#C9C9C9" stroke="none" />
    <path d="M0 0L372.231 0L372.231 7.04985L0 7.04985L0 0Z" transform="translate(215.7726 158.2999)" id="Rectangle" fill="#C9C9C9" stroke="none" />
    <path d="M0 0L372.231 0L372.231 7.04973L0 7.04973L0 0Z" transform="translate(215.7726 178.7445)" id="Rectangle" fill="#C9C9C9" stroke="none" />
    <path d="M0 0L372.231 0L372.231 7.0498L0 7.0498L0 0Z" transform="translate(215.7726 199.1888)" id="Rectangle" fill="#C9C9C9" stroke="none" />
    <path d="M0 0L372.231 0L372.231 7.04988L0 7.04988L0 0Z" transform="translate(215.7726 219.6334)" id="Rectangle" fill="#C9C9C9" stroke="none" />
    <path d="M0 0L229.825 0L229.825 177.656L0 177.656L0 0Z" transform="translate(286.8562 258.6331)" id="Rectangle" fill="#EDEDF4" stroke="none" />
    <path d="M80.0571 26.7273C79.761 26.7273 79.4649 26.7696 79.1617 26.7767C79.2618 26.3663 79.2951 25.9426 79.2605 25.5218C79.1738 23.7438 78.6921 22.0074 77.8505 20.4388C77.3321 19.5144 76.7478 18.6285 76.1021 17.7881C74.1846 15.1373 72.408 12.4302 70.3001 9.92752C69.3861 8.95494 68.6318 7.84374 68.0653 6.63521C67.8525 5.98281 67.5982 5.34467 67.3039 4.72473C66.4729 3.43297 64.991 2.71241 63.4618 2.85651C61.9535 3.0342 60.5658 3.76825 59.5702 4.91507C58.978 5.54955 58.4916 6.52949 58.9851 7.24857C59.4786 7.96764 60.5501 8.05929 60.6136 8.84887C60.6136 9.27187 60.6136 9.96274 60.1836 10.0967C59.4201 10.2986 58.6924 10.6172 58.0263 11.0414C57.3583 11.484 56.9378 12.2154 56.8913 13.0153C58.1109 13.1986 59.1332 12.1764 60.24 11.6054C61.6451 11.0063 63.2222 10.9485 64.6673 11.4432C65.2227 11.591 65.7412 11.8527 66.1901 12.2116C66.5855 12.5998 66.9185 13.0469 67.1771 13.537C68.5349 15.5002 69.374 17.775 69.6163 20.1498L70.2367 24.1118C69.319 24.185 68.4059 24.3074 67.5013 24.4784C65.0665 24.8374 62.5829 24.6691 60.2188 23.9849C57.7514 23.28 55.2839 21.9969 52.7389 22.575C51.5475 22.8358 50.4619 23.4985 49.2563 23.6889C48.3142 23.7797 47.3638 23.7298 46.4364 23.5408L44.4977 23.2306C44.4342 23.0684 44.3849 22.8992 44.3355 22.73C43.9346 21.316 43.7493 19.8496 43.7856 18.3802C46.3523 18.2425 48.684 16.842 50.0112 14.6408C51.3384 12.4396 51.4887 9.72376 50.4125 7.38953C51.4579 6.8035 52.3233 5.94299 52.9152 4.90096L52.4217 4.80933L52.887 4.10435C52.6649 3.96878 52.5191 3.7372 52.4928 3.47843C52.4665 3.21963 52.5628 2.96346 52.753 2.78603C52.3422 2.57301 51.8829 2.47095 51.4206 2.48993C51.5686 2.21497 51.3289 1.87659 51.0399 1.78494C50.7386 1.72369 50.4301 1.70472 50.1235 1.72853C49.6737 1.69394 49.2316 1.59174 48.8122 1.42539C45.8019 0.389066 42.5378 -0.520369 39.4712 0.346769C38.1195 0.768645 36.8559 1.43273 35.7418 2.30662C33.4871 3.5726 32.6144 6.3796 33.7538 8.70083C34.219 9.85577 34.5525 11.0595 34.7478 12.2892C34.7909 13.4373 34.6602 14.5853 34.36 15.6943C35.0312 15.8986 35.7171 16.0518 36.4115 16.1525C36.0198 17.6665 35.3268 19.0859 34.3741 20.326C33.9375 20.8746 33.4666 21.395 32.9641 21.884L32.8795 21.884C31.4817 22.1455 30.069 22.3198 28.6496 22.4057C27.155 22.4057 25.6886 21.8417 24.2011 21.9474C23.3199 22.0468 22.4522 22.243 21.6139 22.5326C17.7443 23.667 13.7243 24.2042 9.69268 24.1259L9.20623 24.1753L9.65744 21.2989C9.89973 18.9242 10.7388 16.6493 12.0967 14.6862C12.3553 14.196 12.6883 13.749 13.0837 13.3608C13.5351 13.0017 14.056 12.74 14.6135 12.5923C16.0563 12.0974 17.6312 12.1552 19.0338 12.7545C20.1406 13.2973 21.1488 14.3196 22.3895 14.1645C22.3382 13.3642 21.9157 12.6339 21.2475 12.1905C20.5813 11.7663 19.8536 11.4477 19.0902 11.2458C18.6813 11.1119 18.6249 10.421 18.6601 9.99802C18.7236 9.20844 19.8445 9.03925 20.2887 8.39066C20.7328 7.74206 20.2887 6.6987 19.7035 6.05716C18.7064 4.91348 17.319 4.18212 15.812 4.00564C14.2846 3.86097 12.8045 4.58201 11.9769 5.87384C11.6773 6.49234 11.4205 7.13067 11.2085 7.78434C10.642 8.99287 9.88768 10.1041 8.97362 11.0766C6.85867 13.5793 5.08915 16.2865 3.17161 18.9372C2.52997 19.778 1.94585 20.6613 1.42326 21.5809C0.585838 23.1537 0.104517 24.8913 0.0132959 26.6708C-0.0213853 27.094 0.011919 27.5201 0.112004 27.9327C0.0649305 28.0321 0.0385538 28.1401 0.0344661 28.25C0.0785707 28.6392 0.276589 28.9947 0.584375 29.237C1.66302 30.3227 2.79804 31.4436 4.2503 31.9089C5.15382 32.1227 6.06969 32.2804 6.9927 32.3811C9.22043 32.783 11.272 34.0731 13.535 34.0661C15.093 34.0661 16.6299 33.4457 18.1667 33.6642C20.2817 33.9533 21.8044 35.6734 23.1016 37.3442C24.2033 38.6483 25.0306 40.1613 25.5338 41.7926C26.0344 43.7595 25.7242 45.9732 26.7746 47.7075C27.0396 48.0616 27.2445 48.457 27.3809 48.8777C27.4027 49.543 27.2547 50.2029 26.9509 50.7952C26.0626 53.5235 28.0083 56.4351 27.8039 59.255C27.7052 60.6297 27.0989 61.9269 27.0354 63.3016C26.9297 65.0711 27.6488 67.0521 26.6618 68.5255C27.261 68.2153 27.8673 67.9404 28.4877 67.6936C25.5268 76.372 22.8478 85.3182 23.0523 94.4407C23.2073 100.356 24.4622 106.87 21.0642 111.727C20.5814 112.306 20.1978 112.961 19.9292 113.666C19.6613 114.617 19.9292 115.626 20.1054 116.598C20.7329 120.828 18.4487 124.995 18.2936 129.288C18.2759 130.611 18.3607 131.933 18.5474 133.243L19.3793 140.392C18.541 140.574 17.7611 140.962 17.1093 141.52C16.2351 142.225 15.4666 143.381 15.8755 144.438C16.2069 145.291 17.1797 145.7 18.0751 145.912C18.9932 146.015 19.8708 146.347 20.6271 146.877C20.869 147.145 21.1256 147.399 21.3956 147.639C21.9167 147.921 22.5137 148.032 23.1016 147.956C24.1802 147.914 25.2165 147.822 26.3163 147.674C26.5446 147.665 26.7662 147.594 26.9578 147.47C27.2182 147.182 27.3482 146.799 27.3174 146.412C27.3964 145.339 27.3514 144.26 27.1834 143.197C27.1411 142.993 27.0847 142.796 27.0283 142.591C27.3986 141.685 27.6612 140.739 27.8109 139.771C28.0294 138.361 28.0647 136.888 28.1563 135.443C28.3678 131.763 28.8613 128.111 29.4253 124.459L30.1303 119.764C30.3488 118.22 30.5744 116.676 30.8352 115.132C32.1422 106.77 34.1755 98.5376 36.912 90.5285C37.5112 88.8154 38.5334 86.8062 40.3453 86.7569L41.4239 88.8718C42.8339 91.5226 43.6939 94.4623 44.7655 97.247C46.1755 100.906 45.6961 105.178 47.5855 108.618C47.8957 109.189 48.2904 109.732 48.5231 110.332C48.8573 111.254 49.0522 112.221 49.1012 113.201L50.3491 125.891C50.9131 131.594 51.5193 137.452 54.0784 142.578C54.2391 142.908 54.4277 143.224 54.6424 143.522C54.5636 144.375 54.5518 145.233 54.6071 146.088C54.5273 146.395 54.5961 146.721 54.7929 146.969C54.9897 147.217 55.2916 147.358 55.6081 147.35C56.6727 147.491 57.7231 147.583 58.8158 147.625C59.4038 147.701 60.0007 147.59 60.5219 147.308C60.7976 147.072 61.0567 146.818 61.2974 146.547C62.0511 146.016 62.9264 145.684 63.8424 145.581C64.7377 145.376 65.7106 144.967 66.0419 144.107C66.4579 143.05 65.6824 141.901 64.8082 141.189C64.0996 140.57 63.2289 140.166 62.2985 140.025C61.9154 140.048 61.5311 140.017 61.1564 139.934C61.2436 139.469 61.272 138.996 61.241 138.524C61.1507 137.969 61.1271 137.406 61.1705 136.846C61.3145 136.28 61.5079 135.728 61.7486 135.196C62.5593 132.701 60.8321 130.163 60.2258 127.611C59.4151 124.213 60.6206 120.653 60.4021 117.163C60.0637 111.685 56.2426 106.546 57.2578 101.153C58.0686 96.8382 57.3777 92.4038 56.6093 88.0823L53.7893 72.0016C53.591 70.6963 53.2481 69.4172 52.7671 68.1877C53.2905 68.097 53.8048 67.9602 54.304 67.7788C55.009 66.0586 54.8891 64.1622 54.6776 62.3151C54.4662 60.4681 53.9727 58.6633 53.7259 56.8303C53.5122 55.3565 53.3898 53.8709 53.3593 52.3819C53.2825 50.913 53.3867 49.4403 53.6695 47.9969C53.9937 46.7297 54.4351 45.4953 54.9878 44.3099C56.3522 40.887 58.003 37.5854 59.9227 34.4402C62.8202 34.2146 65.6261 33.9678 68.5165 33.7352C69.2094 33.7035 69.8982 33.6115 70.575 33.4602C71.4377 33.1629 72.3155 32.911 73.2046 32.7058C73.5363 32.6885 73.8638 32.6244 74.1775 32.5155C74.812 32.2265 75.1997 31.4157 75.8977 31.3875C76.1597 31.4224 76.4252 31.4224 76.6872 31.3875C76.9974 31.2888 77.1525 30.9504 77.3922 30.6825C77.8293 30.1961 78.5414 30.0974 79.1124 29.7801C80.123 29.124 80.5205 27.8395 80.0571 26.7273L80.0571 26.7273Z" transform="translate(362.0499 287.2906)" id="Shape" fill="url(#gradient_3)" stroke="none" />
    <path d="M0 7.75475C0 3.47192 3.47202 0 7.75497 0C12.0379 0 15.5099 3.47192 15.5099 7.75475C15.5099 12.0376 12.0379 15.5095 7.75497 15.5095C3.47202 15.5095 0 12.0376 0 7.75475Z" transform="translate(397.6654 290.4491)" id="Circle" fill="#A1616A" stroke="none" />
    <path d="M2.64369 8.18227C1.8514 9.15666 0.965952 10.0515 0 10.8541C4.55597 13.5702 9.97092 14.4617 15.1571 13.3497C14.9668 12.821 14.2759 12.7434 13.7895 12.4755C13.1577 12.0273 12.7273 11.3487 12.591 10.5862C12.0683 8.72818 11.915 6.7857 12.1398 4.86873C12.2348 4.40355 12.2348 3.92394 12.1398 3.45876C11.869 2.76083 11.349 2.18809 10.6804 1.85139C9.58216 1.16649 8.3965 0.632935 7.15551 0.265145C5.87243 -0.115554 5.13927 -0.291801 5.08991 1.20277C5.03793 3.73038 4.18097 6.17542 2.64364 8.18231L2.64369 8.18227Z" transform="translate(393.8235 299.9381)" id="Shape" fill="#A1616A" stroke="none" />
    <path d="M13.4935 22.2625L12.7039 17.2571C12.5763 16.25 12.3664 15.255 12.0765 14.2821C11.6034 13.0188 10.9985 11.809 10.2717 10.6726C10.013 10.1847 9.68001 9.73992 9.2847 9.35427C8.83582 8.99537 8.31728 8.73367 7.76191 8.58586C6.32074 8.09297 4.74786 8.15325 3.34868 8.75505C2.24185 9.29085 1.23373 10.306 0 10.1298C0.0469446 9.33002 0.47078 8.60008 1.14207 8.16285C1.79349 7.73964 2.50708 7.4209 3.25703 7.21817C3.65888 7.09128 3.7223 6.40039 3.68706 5.9774C3.6236 5.19488 2.50269 5.02567 2.05855 4.38413C1.6144 3.74259 2.05855 2.69921 2.63664 2.0577C3.63225 0.918104 5.0176 0.191478 6.52112 0.020288C8.0465 -0.13227 9.52842 0.584179 10.3562 1.8744C10.6559 2.49048 10.9126 3.12649 11.1247 3.77788C11.691 4.98055 12.4428 6.08676 13.3524 7.05606C15.4674 9.54465 17.2369 12.2377 19.1474 14.8743C19.7866 15.7145 20.3706 16.5952 20.8958 17.511C21.7364 19.0724 22.218 20.8017 22.3057 22.5728C22.3687 23.1173 22.2885 23.669 22.0731 24.1731C21.6289 24.9196 20.8267 25.3795 19.9581 25.3857C19.0915 25.3641 18.2351 25.1924 17.4272 24.8781L14.3536 23.8417C13.9794 23.7589 13.6369 23.5705 13.3666 23.2988C13.1352 22.9723 13.1902 22.5234 13.4935 22.2625L13.4935 22.2625Z" transform="translate(418.9559 290.4913)" id="Shape" fill="#A1616A" stroke="none" />
    <path d="M8.83131 22.2622L9.61383 17.2568C9.74722 16.25 9.95939 15.2553 10.2483 14.2817C10.7185 13.0172 11.3235 11.807 12.0531 10.6722C12.3052 10.1841 12.6363 9.74107 13.033 9.36097C13.4793 8.99807 13.9988 8.73594 14.5558 8.59254C15.9985 8.09762 17.5735 8.15541 18.9761 8.7547C20.0829 9.29049 21.091 10.3057 22.3247 10.1294C22.2756 9.33038 21.8523 8.60134 21.1827 8.16253C20.5306 7.74051 19.8172 7.42186 19.0677 7.21783C18.6659 7.09094 18.6025 6.40005 18.6377 5.97705C18.7012 5.19453 19.815 5.02532 20.2662 4.38378C20.7174 3.74224 20.2662 2.69886 19.6811 2.06437C18.687 0.921592 17.3013 0.192274 15.7966 0.0199009C14.2715 -0.131001 12.7904 0.585042 11.9614 1.87401C11.6642 2.49023 11.4098 3.12624 11.2001 3.77746C10.6316 4.97891 9.88013 6.08482 8.97231 7.05564C6.85736 9.54423 5.08785 12.2373 3.17032 14.8739C2.5325 15.7136 1.95084 16.5944 1.42903 17.5106C0.591904 19.0734 0.110455 20.8019 0.0190617 22.5724C-0.0410064 23.1199 0.0416088 23.6736 0.258775 24.1798C0.712169 24.9333 1.52959 25.3916 2.40896 25.3853C3.27367 25.3672 4.12831 25.1954 4.93282 24.8778L8.01359 23.8696C8.38622 23.7883 8.72692 23.5995 8.99353 23.3268C9.23483 22.9861 9.16315 22.5155 8.83131 22.2622L8.83131 22.2622Z" transform="translate(362.1979 291.5981)" id="Shape" fill="#A1616A" stroke="none" />
    <path d="M10.2295 2.79152C11.1037 3.49651 11.8722 4.64564 11.4633 5.69607C11.1249 6.54913 10.159 6.95098 9.2637 7.16246C8.34903 7.26629 7.47451 7.59572 6.7187 8.12124C6.47937 8.38049 6.22262 8.62309 5.95024 8.8474C5.43019 9.13307 4.83217 9.2443 4.24418 9.16461C3.17258 9.12231 2.12921 9.03066 1.03649 8.88966C0.808216 8.88015 0.586659 8.80953 0.395007 8.68522C0.133821 8.40097 0.00567985 8.01909 0.0425128 7.6348C-0.0425128 6.56673 8.60583e-05 5.49224 0.169406 4.4342C0.347331 3.37155 0.893973 2.40555 1.71333 1.70589C2.5311 1.07138 5.01268 -0.810928 5.94327 0.394621C6.19 0.718931 6.09133 1.16308 6.43677 1.43094C6.78221 1.69879 7.32507 1.55077 7.71986 1.60013C8.65324 1.74871 9.52433 2.16222 10.2295 2.79152L10.2295 2.79152Z" transform="translate(416.6578 425.7073)" id="Shape" fill="#3F3D56" stroke="none" />
    <path d="M1.34663 2.76334C0.472458 3.46832 -0.295996 4.61744 0.112908 5.66785C0.444231 6.5209 1.4101 6.92975 2.30541 7.13423C3.22037 7.23685 4.09515 7.5664 4.8504 8.09299C5.0911 8.36433 5.35022 8.61871 5.62591 8.85438C6.14509 9.13536 6.73937 9.24633 7.32495 9.17163C8.39654 9.12933 9.43991 9.03768 10.5326 8.88962C10.7611 8.88119 10.9829 8.81049 11.1741 8.68519C11.4379 8.40211 11.5686 8.02014 11.5337 7.63478C11.6128 6.56866 11.5678 5.49694 11.3997 4.4412C11.2264 3.37499 10.6791 2.4053 9.85583 1.70587C9.04508 1.07137 6.56355 -0.810917 5.62591 0.394615C5.37918 0.718922 5.47785 1.17008 5.12535 1.43092C4.77286 1.69175 4.24412 1.55075 3.84227 1.6001C2.91758 1.74545 2.05257 2.14863 1.34663 2.76334L1.34663 2.76334Z" transform="translate(377.9753 426.1019)" id="Shape" fill="#3F3D56" stroke="none" />
    <path d="M10.7814 1.37421C7.60195 10.539 4.51411 20.021 4.75383 29.7428C4.9089 35.6294 6.1638 42.1152 2.77282 46.9444C2.28914 47.5203 1.90549 48.1732 1.63781 48.876C1.36991 49.8207 1.63781 50.8218 1.807 51.7947C2.4415 56.0246 0.16437 60.1558 0.0022375 64.428C-0.0152752 65.7438 0.0695777 67.059 0.256022 68.3617L1.13725 75.8909C1.43333 78.4712 4.76088 79.5286 7.32704 79.8882C8.53374 78.4483 9.29122 76.6858 9.50546 74.8194C9.724 73.4094 9.75925 71.9501 9.84384 70.519C10.0624 66.8531 10.5911 63.2154 11.1128 59.5847L11.8178 54.9107C12.0434 53.3738 12.2619 51.8369 12.5228 50.3001C13.8395 42.0013 15.8752 33.8327 18.6068 25.8866C19.206 24.1735 20.2282 22.1783 22.033 22.129L23.1116 24.2016C24.5216 26.8312 25.3746 29.764 26.4462 32.5346C27.8561 36.1793 27.3697 40.4233 29.2661 43.8566C29.5763 44.4206 29.9711 44.9634 30.1967 45.5556C30.5272 46.4619 30.722 47.4122 30.7748 48.3755L32.0226 60.9806C32.5866 66.6557 33.1859 72.486 35.745 77.583C35.9983 78.1922 36.4036 78.7262 36.9223 79.134C37.9656 79.839 39.425 79.4794 40.4472 78.7462C42.0899 77.5378 43.0082 75.5791 42.8865 73.5435C42.8032 72.9907 42.7796 72.4305 42.816 71.8726C42.9654 71.3109 43.1587 70.7616 43.3941 70.23C44.2118 67.7485 42.4847 65.2247 41.8713 62.6867C41.0606 59.3028 42.2661 55.7637 42.0546 52.2882C41.7163 46.8316 37.9023 41.7134 38.9104 36.3485C39.7211 32.0551 39.0302 27.642 38.2689 23.3415L35.4137 7.33839C34.9625 4.81454 34.2857 1.96642 32.0368 0.732694C30.7479 0.155549 29.3342 -0.0869612 27.9267 0.0277106C22.0964 0.0277106 16.5271 0.838416 10.7814 1.37421L10.7814 1.37421Z" transform="translate(380.4146 351.9025)" id="Shape" fill="#3F3D56" stroke="none" />
    <path d="M79.9242 4.83369C77.8712 5.04044 75.8042 4.6123 74.0023 3.60702C73.3176 3.15203 72.5876 2.76929 71.8239 2.46495C70.4139 2.00669 68.8629 2.40854 67.3825 2.62708C64.9521 2.97906 62.4747 2.81086 60.1141 2.13358C57.6467 1.4286 55.1793 0.15258 52.6413 0.723616C51.4499 0.984457 50.3713 1.64009 49.1658 1.83045C48.2237 1.92576 47.2727 1.8758 46.3458 1.68243L38.309 0.427534C36.4952 0.0644572 34.6429 -0.0681577 32.7959 0.0327019C31.3978 0.293069 29.9853 0.46966 28.566 0.56144C27.0785 0.56144 25.6121 -0.0025387 24.1246 0.0961694C23.2457 0.196298 22.3805 0.392509 21.5444 0.681319C17.6832 1.80936 13.6731 2.34421 9.65124 2.26753C6.44439 2.47764 3.35363 3.54932 0.704985 5.36948C0.33498 5.57391 0.0762041 5.93359 0 6.34942C0.0472027 6.73543 0.247932 7.08616 0.556922 7.3223C1.62851 8.40796 2.76353 9.52185 4.21579 9.98716C5.11695 10.1992 6.03054 10.3546 6.95114 10.4524C9.17186 10.8613 11.2233 12.1374 13.4793 12.1374C15.0373 12.1374 16.5671 11.517 18.104 11.7355C20.219 12.0245 21.7347 13.7306 23.0389 15.3944C24.1354 16.6941 24.9622 18.1991 25.4711 19.8217C25.9646 21.7816 25.6544 23.9811 26.7048 25.7083C26.9684 26.0608 27.1731 26.4536 27.3111 26.8715C27.3336 27.5348 27.1855 28.1926 26.8811 28.7821C25.9928 31.4963 27.9385 34.3656 27.7341 37.2419C27.6354 38.6025 27.0291 39.8997 26.9657 41.2603C26.867 43.0299 27.579 44.9968 26.592 46.4631C30.4004 44.5442 34.6325 43.6202 38.8941 43.777C39.6028 43.7941 40.3094 43.8601 41.009 43.9744C42.3682 44.2515 43.7063 44.6237 45.0133 45.0883C47.9602 46.026 51.2031 46.6957 54.1077 45.6241C54.8126 43.911 54.6928 42.0217 54.4743 40.1887C54.2557 38.3557 53.8045 36.551 53.5296 34.725C53.3159 33.2583 53.1934 31.7796 53.163 30.2977C53.0861 28.8359 53.1902 27.3702 53.4731 25.9339C53.7962 24.6731 54.2377 23.4457 54.7914 22.2679C56.1518 18.8432 57.8028 15.5412 59.7263 12.3981C62.6167 12.1655 65.4156 11.9187 68.306 11.6931C68.9959 11.6549 69.6819 11.563 70.3575 11.4182C71.2182 11.1241 72.0936 10.8747 72.98 10.6709C73.3121 10.6522 73.6397 10.5857 73.9529 10.4735C74.5874 10.1845 74.9822 9.3808 75.6731 9.35963C75.9353 9.39117 76.2004 9.39117 76.4627 9.35963C76.7728 9.26798 76.9209 8.92254 77.1676 8.65465C77.6047 8.16821 78.3168 8.0695 78.8878 7.7593C79.8757 7.14713 80.3065 5.93127 79.9242 4.83369L79.9242 4.83369Z" transform="translate(362.1696 309.4412)" id="Shape" fill="#397A51" stroke="none" />
    <path d="M11.4038 13.3821C11.8648 13.7446 12.5021 13.7839 13.0041 13.4808C13.3119 13.191 13.5194 12.8108 13.5963 12.3951C13.8498 11.5141 14.0546 10.6197 14.2097 9.71616C14.2506 9.32262 14.3704 8.94136 14.5622 8.59526C15.0768 7.80568 16.1907 7.76338 17.0578 7.40383C18.1297 6.82423 19.0166 5.95444 19.6169 4.89408L19.1305 4.79538L19.5888 4.09039C19.3681 3.95676 19.2234 3.72684 19.1985 3.47009C19.1735 3.21333 19.2711 2.95983 19.4619 2.78616C19.0506 2.56695 18.588 2.46226 18.1224 2.48302C18.2705 2.21513 18.0308 1.87675 17.7417 1.77804C17.4429 1.71556 17.1362 1.69893 16.8323 1.72869C16.3821 1.69172 15.9401 1.58716 15.521 1.41849C12.5178 0.389218 9.26073 -0.520219 6.2011 0.34692C4.84917 0.764752 3.58519 1.4266 2.47168 2.29974C0.235197 3.55632 -0.633561 6.33876 0.490661 8.64461C0.952579 9.79041 1.28369 10.9847 1.47766 12.2048C1.52336 13.3502 1.395 14.4959 1.09703 15.6028C1.93192 15.8709 2.79573 16.0389 3.67026 16.1034C4.55055 16.1708 5.42589 15.9207 6.13772 15.3984C6.84271 14.7921 7.2375 13.8545 7.8156 13.0931C8.26663 12.4108 9.03526 12.0065 9.85303 12.0215C10.6353 12.1413 10.7763 12.9379 11.4038 13.3821L11.4038 13.3821Z" transform="translate(395.8538 287.9677)" id="Shape" fill="#3F3D56" stroke="none" />
    <path d="M150.231 0L141.976 0C141.472 0.101247 141.11 0.543712 141.11 1.05748C141.11 1.57124 141.472 2.01371 141.976 2.11495L143.626 2.11495L143.626 16.123L115.377 16.123C115.244 15.8998 115.009 15.7572 114.749 15.7423L106.501 15.7423C105.997 15.8436 105.635 16.286 105.635 16.7998C105.635 17.3136 105.997 17.756 106.501 17.8573L108.151 17.8573L108.151 32.246L80.8748 32.246C80.8246 31.8428 80.5033 31.5273 80.0993 31.4846L71.858 31.4846C71.34 31.5695 70.9597 32.0171 70.9597 32.5421C70.9597 33.067 71.34 33.5146 71.858 33.5995L72.6829 33.5995L72.6829 48.4042L44.9558 48.4042C44.8525 48.3457 44.7361 48.3142 44.6174 48.3126L36.3691 48.3126C35.8654 48.4138 35.503 48.8563 35.503 49.37C35.503 49.8838 35.8654 50.3263 36.3691 50.4275L37.1939 50.4275L37.1939 64.5272L9.8194 64.5272C9.69827 64.2433 9.42289 64.0561 9.11441 64.0478L0.866085 64.0478C0.362367 64.1491 0 64.5915 0 65.1053C0 65.6191 0.362367 66.0615 0.866085 66.1628L1.69093 66.1628L1.69093 81.7782L188.181 81.7782L188.181 0L150.231 0Z" transform="translate(236.1477 434.1598)" id="Shape" fill="#3F3D56" stroke="none" />
    <path d="M25.8293 22.689C25.0147 21.6142 24.091 20.6266 23.0728 19.7422C22.5123 19.2547 22.2129 18.5325 22.2642 17.7914C22.3154 17.0503 22.7114 16.3762 23.3337 15.9705C23.6721 15.752 24.0034 15.5193 24.3347 15.2656C28.1839 12.3399 30.1297 8.41308 28.6704 6.48846C27.2111 4.56384 22.9036 5.38163 19.0544 8.30732C18.6095 8.638 18.1835 8.99342 17.7784 9.37188C17.2296 9.86544 16.4815 10.074 15.7565 9.93566C15.0314 9.79728 14.4128 9.3279 14.0843 8.66689C13.5435 7.60651 12.9088 6.59668 12.1878 5.64951C8.76163 1.1376 4.16515 -1.13951 1.91626 0.566562C-0.332623 2.27264 0.61204 7.32032 4.03121 11.8463C4.69974 12.7306 5.44268 13.5561 6.2519 14.3138C6.79423 14.8416 7.05357 15.5957 6.95063 16.3455C6.84769 17.0952 6.39472 17.7515 5.73021 18.1137L5.73021 18.1137C1.50031 20.5318 -0.889575 24.1765 0.308892 26.2704C1.50736 28.3642 5.89235 28.1033 10.087 25.6923C10.7369 25.315 11.3632 24.8982 11.9622 24.4444C12.5336 24.0097 13.2705 23.8557 13.9681 24.0253C14.6657 24.1949 15.2497 24.6701 15.5577 25.3186C16.1296 26.5685 16.839 27.7507 17.6726 28.8436C21.0918 33.3555 25.6953 35.6326 27.9442 33.9265C30.1931 32.2204 29.2485 27.208 25.8293 22.689L25.8293 22.689Z" transform="translate(95.14294 141.5354)" id="Shape" fill="#397A51" stroke="none" />
    <path d="M11.5188 29.8166C12.3139 28.7277 12.9921 27.558 13.5421 26.3269C13.8422 25.6487 14.4442 25.1515 15.1669 24.985C15.8897 24.8185 16.6486 25.0023 17.2151 25.4809C17.5253 25.7347 17.8496 25.9815 18.1809 26.2282C22.1007 29.0481 26.4293 29.7531 27.8393 27.8144C22.8292 18.8095 27.2189 21.9772 23.2992 19.1432C23.2992 19.1432 22.3592 18.5064 21.8892 18.2337C21.2576 17.8503 20.8419 17.1933 20.7657 16.4583C20.6896 15.7233 20.9619 14.9951 21.5015 14.4903C22.3589 13.6668 23.1377 12.7652 23.8279 11.7973C27.1484 7.20787 27.9803 2.14613 25.6961 0.517633C23.412 -1.11087 18.8577 1.22261 15.5373 5.84021C14.8891 6.7311 14.3161 7.6743 13.8242 8.66013C13.4782 9.33305 12.8331 9.80163 12.0861 9.92262C11.3392 10.0436 10.5792 9.8027 10.0384 9.27345L10.0384 9.27345C6.51344 5.9671 2.28351 4.71224 0.654989 6.45354C-0.973533 8.19484 0.535153 12.326 4.06715 15.6183C4.61599 16.126 5.1977 16.597 5.80845 17.0282C6.38986 17.4492 6.75053 18.1098 6.79016 18.8265C6.82983 19.5433 6.54429 20.2397 6.01284 20.7223C4.97855 21.6491 4.04942 22.687 3.24224 23.8171C-0.0782699 28.4066 -0.910151 33.4683 1.38106 35.0968C3.67227 36.7253 8.19824 34.4131 11.5188 29.8166L11.5188 29.8166Z" transform="translate(609.1536 256.1869)" id="Shape" fill="#397A51" stroke="none" />
    <path d="M0 4.58246C0 2.05164 10.6684 0 23.8284 0C36.9885 0 47.6569 2.05164 47.6569 4.58246C47.6569 7.11328 36.9885 9.16492 23.8284 9.16492C10.6684 9.16492 0 7.11328 0 4.58246Z" transform="translate(599.7983 514.3026)" id="Ellipse" fill="#397A51" stroke="none" />
    <path d="M0 3.63071C0 1.62552 1.2436 0 2.77765 0C4.3117 0 5.5553 1.62552 5.5553 3.63071C5.5553 5.63589 4.3117 7.26141 2.77765 7.26141C1.2436 7.26141 0 5.63589 0 3.63071Z" transform="translate(620.4543 513.3083)" id="Ellipse" fill="#3F3D56" stroke="none" />
    <path d="M0 3.63043C0 1.6254 1.2436 0 2.77765 0C4.3117 0 5.5553 1.6254 5.5553 3.63043C5.5553 5.63546 4.3117 7.26086 2.77765 7.26086C1.2436 7.26086 0 5.63546 0 3.63043Z" transform="translate(620.4543 508.8672)" id="Ellipse" fill="#3F3D56" stroke="none" />
    <path d="M0 3.63058C0 1.62547 1.2436 0 2.77765 0C4.3117 0 5.5553 1.62547 5.5553 3.63058C5.5553 5.6357 4.3117 7.26117 2.77765 7.26117C1.2436 7.26117 0 5.6357 0 3.63058Z" transform="translate(620.4543 504.4327)" id="Ellipse" fill="#3F3D56" stroke="none" />
    <path d="M0 3.63087C0 1.6256 1.2436 0 2.77765 0C4.3117 0 5.5553 1.6256 5.5553 3.63087C5.5553 5.63615 4.3117 7.26175 2.77765 7.26175C1.2436 7.26175 0 5.63615 0 3.63087Z" transform="translate(620.4543 499.9911)" id="Ellipse" fill="#3F3D56" stroke="none" />
    <path d="M0 3.63068C0 1.62551 1.2436 0 2.77765 0C4.3117 0 5.5553 1.62551 5.5553 3.63068C5.5553 5.63584 4.3117 7.26135 2.77765 7.26135C1.2436 7.26135 0 5.63584 0 3.63068Z" transform="translate(620.4543 495.5499)" id="Ellipse" fill="#3F3D56" stroke="none" />
    <path d="M0 3.63062C0 1.62548 1.2436 0 2.77765 0C4.3117 0 5.5553 1.62548 5.5553 3.63062C5.5553 5.63575 4.3117 7.26123 2.77765 7.26123C1.2436 7.26123 0 5.63575 0 3.63062Z" transform="translate(620.4543 491.1157)" id="Ellipse" fill="#3F3D56" stroke="none" />
    <path d="M0 3.63065C0 1.6255 1.2436 0 2.77765 0C4.3117 0 5.5553 1.6255 5.5553 3.63065C5.5553 5.6358 4.3117 7.26129 2.77765 7.26129C1.2436 7.26129 0 5.6358 0 3.63065Z" transform="translate(620.4543 486.6741)" id="Ellipse" fill="#3F3D56" stroke="none" />
    <path d="M23.7582 21.4636C24.1341 20.979 24.4779 20.4704 24.7874 19.9409L17.505 18.7424L25.3867 18.8059C26.9197 15.4802 27.0115 11.6691 25.6405 8.27344L15.0657 13.7582L24.8227 6.58856C22.3215 2.30471 17.6426 -0.229429 12.6882 0.016394C7.7337 0.262217 3.32858 3.24704 1.26371 7.75739C-0.801111 12.2678 -0.181969 17.5527 2.86951 21.4637C2.28044 22.2165 1.77236 23.0294 1.35377 23.8888L10.8217 28.8237L0.726327 25.4398C-0.716516 29.6898 0.0785706 34.3807 2.84128 37.918C-1.44121 43.3664 -0.817849 51.1911 4.27328 55.8927C9.36441 60.5944 17.2139 60.5944 22.305 55.8927C27.3962 51.1911 28.0195 43.3664 23.737 37.918C27.5248 33.095 27.5248 26.3077 23.737 21.4848L23.7582 21.4636Z" transform="translate(610.5847 438.4799)" id="Shape" fill="#397A51" stroke="none" />
    <path d="M0.0212993 0.194876C0.0123923 3.17379 1.00563 6.069 2.84129 8.41501C-1.44121 13.8634 -0.817851 21.6881 4.27329 26.3897C9.36443 31.0913 17.2139 31.0913 22.3051 26.3897C27.3962 21.6881 28.0196 13.8634 23.7371 8.41501C25.5347 6.15196 0.0212993 -1.29262 0.0212993 0.194876L0.0212993 0.194876Z" transform="translate(609.8796 468.1403)" id="Shape" fill="#000000" stroke="none" />
    <path d="M0 2.07254C0 0.927908 4.82921 0 10.7863 0C16.7435 0 21.5727 0.927908 21.5727 2.07254C21.5727 3.21717 16.7435 4.14508 10.7863 4.14508C4.82921 4.14508 0 3.21717 0 2.07254Z" transform="translate(178.5708 517.9052)" id="Ellipse" fill="#6C63FF" stroke="none" />
    <path d="M0 1.64258C0 0.735407 0.561861 0 1.25495 0C1.94804 0 2.5099 0.735407 2.5099 1.64258C2.5099 2.54975 1.94804 3.28516 1.25495 3.28516C0.561861 3.28516 0 2.54975 0 1.64258Z" transform="translate(187.9259 517.4537)" id="Ellipse" fill="#3F3D56" stroke="none" />
    <path d="M0 1.64264C0 0.735435 0.561861 0 1.25495 0C1.94804 0 2.5099 0.735435 2.5099 1.64264C2.5099 2.54984 1.94804 3.28528 1.25495 3.28528C0.561861 3.28528 0 2.54984 0 1.64264Z" transform="translate(187.9259 515.4445)" id="Ellipse" fill="#3F3D56" stroke="none" />
    <path d="M0 1.64261C0 0.735421 0.561861 0 1.25495 0C1.94804 0 2.5099 0.735421 2.5099 1.64261C2.5099 2.5498 1.94804 3.28522 1.25495 3.28522C0.561861 3.28522 0 2.5498 0 1.64261Z" transform="translate(187.9259 513.4353)" id="Ellipse" fill="#3F3D56" stroke="none" />
    <path d="M0 1.64264C0 0.735435 0.561861 0 1.25495 0C1.94804 0 2.5099 0.735435 2.5099 1.64264C2.5099 2.54984 1.94804 3.28528 1.25495 3.28528C0.561861 3.28528 0 2.54984 0 1.64264Z" transform="translate(187.9259 511.426)" id="Ellipse" fill="#3F3D56" stroke="none" />
    <path d="M0 1.64252C0 0.73538 0.561861 0 1.25495 0C1.94804 0 2.5099 0.73538 2.5099 1.64252C2.5099 2.54965 1.94804 3.28503 1.25495 3.28503C0.561861 3.28503 0 2.54965 0 1.64252Z" transform="translate(187.9259 509.4169)" id="Ellipse" fill="#3F3D56" stroke="none" />
    <path d="M0 1.64243C0 0.735339 0.561861 0 1.25495 0C1.94804 0 2.5099 0.735339 2.5099 1.64243C2.5099 2.54951 1.94804 3.28485 1.25495 3.28485C0.561861 3.28485 0 2.54951 0 1.64243Z" transform="translate(187.9259 507.4077)" id="Ellipse" fill="#3F3D56" stroke="none" />
    <path d="M0 1.64264C0 0.735435 0.561861 0 1.25495 0C1.94804 0 2.5099 0.735435 2.5099 1.64264C2.5099 2.54984 1.94804 3.28528 1.25495 3.28528C0.561861 3.28528 0 2.54984 0 1.64264Z" transform="translate(187.9259 505.3986)" id="Ellipse" fill="#3F3D56" stroke="none" />
    <path d="M10.7692 9.75677C10.944 9.53384 11.1019 9.29817 11.2416 9.05179L7.94211 8.50893L11.5095 8.50893C11.8722 7.71948 12.0598 6.86092 12.0594 5.99213C12.0609 5.22096 11.9124 4.45715 11.6222 3.74296L6.83514 6.22453L11.2485 2.98161C10.1166 1.04285 7.99891 -0.104001 5.7566 0.00744401C3.51429 0.118846 1.52076 1.47 0.586633 3.51146C-0.347513 5.55289 -0.0666755 7.94469 1.31494 9.71426C1.04131 10.0521 0.804947 10.4185 0.609934 10.807L4.88935 13.0348L0.320877 11.4979C-0.326256 13.4217 0.0395234 15.542 1.29379 17.1378C-0.652448 19.6049 -0.373848 23.1539 1.93353 25.2872C4.24088 27.4205 7.80087 27.4205 10.1082 25.2872C12.4156 23.1539 12.6942 19.6049 10.748 17.1378C12.4676 14.9567 12.4676 11.8812 10.748 9.70015L10.7692 9.75677Z" transform="translate(183.428 483.5377)" id="Shape" fill="#397A51" stroke="none" />
    <path d="M0.00509898 0.0884244C0.00443203 1.43643 0.458349 2.74783 1.29374 3.80888C-0.652433 6.27603 -0.373839 9.82501 1.93348 11.9583C4.24078 14.0915 7.80069 14.0915 10.108 11.9583C12.4153 9.82501 12.6939 6.27603 10.7477 3.80888C11.56 2.80966 0.00509898 -0.588377 0.00509898 0.0884244L0.00509898 0.0884244Z" transform="translate(183.132 497.0021)" id="Shape" fill="#000000" stroke="none" />
  </g>
</svg>