<?xml version="1.0" encoding="utf-8"?>
<svg width="444px" height="370px" viewBox="0 0 444 370" version="1.1" xmlns:xlink="http://www.w3.org/1999/xlink" xmlns="http://www.w3.org/2000/svg">
  <desc>Created with Lunacy</desc>
  <defs>
    <linearGradient x1="2.68293214" y1="2.243879" x2="2.68293214" y2="1.24387944" id="gradient_1">
      <stop offset="0" stop-color="#808080" stop-opacity="0.2509804" />
      <stop offset="0.53514" stop-color="#808080" stop-opacity="0.121568628" />
      <stop offset="1" stop-color="#808080" stop-opacity="0.101960786" />
    </linearGradient>
    <linearGradient x1="514.094849" y1="824.1076" x2="514.094849" y2="75.89238" id="gradient_2" />
    <linearGradient x1="725.6791" y1="487.075134" x2="725.6791" y2="484.075134" id="gradient_3" />
    <linearGradient x1="647.5388" y1="341.1782" x2="647.5388" y2="183.076965" id="gradient_4" />
  </defs>
  <g id="Group" transform="translate(4 4)">
    <g id="Headder-Img">
      <path d="M58.0602 49.6772C58.0602 71.5398 45.0629 79.1744 29.0311 79.1744C28.6579 79.1744 28.2866 79.1703 27.9174 79.1602C27.1749 79.1441 26.4385 79.1118 25.7122 79.0594C11.242 78.0365 0 70.0084 0 49.6772C0 28.6377 26.8824 2.08818 28.9101 0.116983L28.9141 0.114978C28.9908 0.038316 29.0311 0 29.0311 0C29.0311 0 58.0602 27.8125 58.0602 49.6772L58.0602 49.6772Z" transform="translate(8.279907 240.5593)" id="Shape" fill="#3F3D56" stroke="none" />
      <path d="M11.6677 75.8293L22.2863 60.9939L11.6415 77.4575L11.6133 79.1604C10.8708 79.1442 10.1344 79.1119 9.40804 79.0595L10.552 57.1867L10.5439 57.0172L10.5641 56.985L10.671 54.9189L0 38.413L10.7033 53.3694L10.7296 53.8073L11.5951 37.2811L2.45945 20.2264L11.7061 34.3778L12.6059 0.117013L12.61 0L12.61 0.114978L12.4606 27.1326L21.5539 16.4212L12.4223 29.4589L12.1822 44.256L20.6743 30.0561L12.1459 46.4349L12.0128 54.6607L24.3403 34.8943L11.9664 57.5317L11.6677 75.8293Z" transform="translate(24.58398 240.5592)" id="Shape" fill="#F2F2F2" stroke="none" />
      <g id="Group" transform="translate(376.7145 131.7307)" opacity="0.7">
        <path d="M26.3267 0L26.3267 5.26531C30.1048 5.26845 33.166 8.33212 33.166 12.1102C33.166 15.8884 30.1048 18.952 26.3267 18.9551L26.3267 24.3521C26.3267 27.1873 24.0282 29.4857 21.193 29.4857L5.13373 29.4857C2.29845 29.4857 2.94968e-05 27.1873 0 24.3521L0 0L26.3267 0ZM26.3267 7.89795L26.3267 16.3224C28.653 16.3224 30.5389 14.4365 30.5389 12.1102C30.5389 9.78383 28.653 7.89795 26.3267 7.89795Z" id="Shape" fill="url(#gradient_1)" fill-rule="evenodd" stroke="none" />
      </g>
      <path d="M0 6.24969C0 2.79808 2.7981 0 6.24974 0C9.70138 0 12.4995 2.79808 12.4995 6.24969C12.4995 9.70131 9.70138 12.4994 6.24974 12.4994C2.7981 12.4994 0 9.70131 0 6.24969ZM2.40369 6.2497C2.40369 8.37378 4.1256 10.0957 6.2497 10.0957C8.37377 10.0957 10.0957 8.37378 10.0957 6.24971C10.0957 4.12564 8.3738 2.40375 6.2497 2.40375C4.12563 2.40373 2.40372 4.12563 2.40369 6.2497Z" transform="translate(395.9442 137.8201)" id="Shape" fill="#6C63FF" fill-rule="evenodd" stroke="none" />
      <path d="M0 6.24969C0 2.79808 2.7981 0 6.24974 0C9.70138 0 12.4995 2.79808 12.4995 6.24969C12.4995 9.70131 9.70138 12.4994 6.24974 12.4994C2.7981 12.4994 0 9.70131 0 6.24969ZM2.40369 6.2497C2.40369 8.37378 4.1256 10.0957 6.2497 10.0957C8.37377 10.0957 10.0957 8.37378 10.0957 6.24971C10.0957 4.12564 8.3738 2.40375 6.2497 2.40375C4.12563 2.40373 2.40372 4.12563 2.40369 6.2497Z" transform="translate(395.9442 137.8201)" id="Shape" fill="#000000" fill-rule="evenodd" stroke="none" />
      <path d="M0 0L24.0373 0L24.0373 22.2099C24.0373 24.8122 21.9277 26.9218 19.3254 26.9218L4.71191 26.9218C2.1096 26.9218 0 24.8122 0 22.2099L0 0L0 0Z" transform="translate(378.1569 133.0126)" id="Shape" fill="#6C63FF" stroke="none" />
      <path d="M4.68718 0L4.68718 22.2345C4.68718 24.8232 2.58867 26.9218 0 26.9218L2.4037 26.9218C4.99238 26.9218 7.09088 24.8232 7.09088 22.2345L7.09088 0L4.68718 0Z" transform="translate(393.1801 133.0127)" id="Shape" fill="#000000" stroke="none" />
      <path d="M1.15182 0.615301C0.73553 0.628545 0.346645 0.825981 0.0902894 1.15424C-0.22503 1.72584 0.34635 2.37031 0.867763 2.76306C1.83104 3.48868 2.84634 4.20143 3.50111 5.21422C4.15588 6.227 4.36159 7.64037 3.64582 8.61098C2.71122 9.87837 0.481475 10.151 0.265706 11.7108C0.12716 12.7123 0.992918 13.5668 1.87012 14.0693C4.03532 15.3095 6.82654 15.6404 8.39488 17.5812C9.04366 16.2471 10.4948 15.4759 11.9413 15.1466C13.3878 14.8173 14.8907 14.8419 16.3572 14.6185C16.8431 14.6092 17.2955 14.3692 17.5756 13.9722C17.9856 13.1402 16.8172 12.1423 17.2204 11.307C17.5274 10.6713 18.429 10.7207 19.0875 10.4661C20.1596 10.0516 20.6017 8.67176 20.2974 7.56331C19.9931 6.45485 19.1336 5.58858 18.2298 4.87835C15.7939 2.9643 12.865 1.83865 9.90251 1.02899C8.52469 0.652423 6.9073 0.0618988 5.47621 0.00480796C4.09476 -0.0502624 2.51917 0.381392 1.15182 0.615301L1.15182 0.615301Z" transform="translate(381.8386 114.4817)" id="Shape" fill="#DDDDDD" stroke="none" />
      <path d="M50.2603 0L0 156.58" transform="translate(163.9302 165.6111)" id="Line" fill="none" stroke="#E0E0E0" stroke-width="8" />
      <g id="Group" transform="translate(92.48596 0)" opacity="0.7">
        <path d="M148.956 346.006C148.956 346.006 154.464 340.827 160.646 340.468C166.828 340.11 167.132 348.073 167.132 348.073C167.132 348.073 145.01 358.364 132.852 361.282C121.495 364.007 126.619 347.902 127.343 345.769L126.982 345.886L124.097 237.267L111.415 236.112C114.657 240.722 117.872 245.405 121.087 249.943C137.891 273.666 57.3308 342.859 57.3308 342.859L56.3423 348.79C56.3423 348.79 63.7558 347.307 69.1924 350.272C74.629 353.238 70.6751 360.157 70.6751 360.157C70.6751 360.157 46.4576 357.192 34.5961 353.238C22.7345 349.284 38.056 337.423 38.056 337.423L84.5139 262.793L55.5225 239.324C52.5905 239.481 49.5602 239.564 46.458 239.564C20.7999 239.564 0 233.922 0 226.962C0.0517665 226.634 0.0517665 226.301 0 225.973C0 222.06 6.57294 218.564 16.8867 216.253C12.0219 210.08 9.38078 202.448 9.39018 194.589L9.39018 123.466C9.39181 120.556 9.73055 117.656 10.3996 114.824C10.3792 114.444 10.3932 113.69 10.3932 113.69C10.2619 110.58 10.2123 109.482 10.7013 108.737C11.7537 107.135 15.2998 107.172 25.8914 92.3374C25.9453 92.3008 26.0534 92.228 26.0534 92.228C26.2863 92.0714 26.3082 92.0566 26.3308 92.0427C26.3606 92.0245 26.3915 92.0079 26.9089 91.6696L26.9142 91.6761C30.6333 89.3185 34.7397 87.6367 39.0442 86.7082L39.0442 81.8025C33.0108 79.8123 27.7152 76.054 23.8451 71.0158C13.8532 61.8233 9.96439 47.7453 13.8211 34.7274L13.2792 34.9711C13.4639 34.8672 13.6515 34.7686 13.838 34.6679C14.6798 31.8382 15.8724 29.125 17.3881 26.5916C17.2211 24.4637 17.4613 22.3236 18.0957 20.2857C19.4213 16.4391 22.4892 13.4469 26.3677 12.2179C28.86 11.4518 31.546 11.468 34.0225 10.6525C37.508 9.50476 40.2404 6.84077 43.268 4.76719C45.9438 2.93591 48.8947 1.54339 52.0093 0.642192C54.8083 -0.166611 58.1033 -0.47822 60.3843 1.33437C62.3042 2.8601 62.971 5.47542 64.5576 7.34535C66.4041 9.52152 69.272 10.465 71.7761 11.8342C78.1111 15.3789 82.2916 21.8186 82.9507 29.0478C83.037 30.1088 82.9485 31.3693 82.0534 31.9455C81.8 32.1005 81.5161 32.1988 81.2211 32.2336C85.0884 42.456 84.048 53.888 78.3988 63.2442C74.9594 72.038 67.7796 78.8413 58.8135 81.8025L58.8135 85.8576L60.7905 85.8576C63.2853 85.858 65.7687 86.1956 68.1731 86.8612C68.1841 86.8569 68.1928 86.8502 68.2039 86.8461C69.285 86.4479 71.4773 87.4632 74.3736 89.4227C76.5327 90.6404 78.5191 92.1417 80.2798 93.8866C96.1459 106.814 121.087 132.81 121.087 132.81L145.799 97.2249C145.799 97.2249 152.224 77.9499 156.672 83.3864C161.12 88.823 154.201 100.19 154.201 100.19L124.12 154.158C123.942 154.473 123.732 154.769 123.494 155.042C129.341 156.147 134.572 157.915 130.972 160.487L112.191 160.487L112.191 161.475L88.4675 161.475L88.4675 189.21C102.966 188.9 120.896 195.921 138.541 202.83C141.491 203.984 144.432 205.136 147.348 206.25C173.847 216.371 147.376 333.775 146.075 339.47L146.293 339.399L148.956 346.006ZM88.4675 146.038L112.191 152.925C112.191 152.925 112.984 152.987 114.252 153.114L88.4675 125.742L88.4675 146.038Z" id="Shape" fill="url(#gradient_2)" fill-rule="evenodd" stroke="none" />
      </g>
      <path d="M0 34.7957C0 15.5785 15.5785 0 34.7956 0C54.0127 0 69.5912 15.5785 69.5912 34.7957C69.5912 54.0128 54.0127 69.5913 34.7956 69.5913C15.5785 69.5913 0 54.0128 0 34.7957Z" transform="translate(106.4208 12.41391)" id="Circle" fill="#000000" stroke="none" />
      <path d="M20.807 38.7456L47.3614 66.9342C48.4954 68.138 50.1355 68.729 51.7768 68.5252C53.4181 68.3214 54.8638 67.3473 55.6691 65.9026L85.0821 13.1322L76.8665 10.2326L52.7029 45.0282C52.7029 45.0282 7.33944 -2.25357 0.992737 0.083903C-5.35397 2.42137 20.807 38.7456 20.807 38.7456L20.807 38.7456Z" transform="translate(161.0304 88.2876)" id="Shape" fill="#397A51" stroke="none" />
      <path d="M39.1451 0L0 101.487" transform="translate(90.95618 224.57)" id="Line" fill="none" stroke="#E0E0E0" stroke-width="5" />
      <path d="M0 0L39.1449 101.487" transform="translate(149.432 224.57)" id="Line" fill="none" stroke="#E0E0E0" stroke-width="5" />
      <path d="M0 12.3234C0 5.51738 20.3386 0 45.4276 0C70.5165 0 90.8551 5.51738 90.8551 12.3234C90.8551 19.1295 70.5165 24.6468 45.4276 24.6468C20.3386 24.6468 0 19.1295 0 12.3234Z" transform="translate(94.33899 212.9716)" id="Ellipse" fill="#B84733" stroke="none" />
      <path d="M0 12.3235C0 5.5174 20.3386 0 45.4276 0C70.5165 0 90.8551 5.5174 90.8551 12.3235C90.8551 19.1295 70.5165 24.6469 45.4276 24.6469C20.3386 24.6469 0 19.1295 0 12.3235Z" transform="translate(94.33899 212.0051)" id="Ellipse" fill="#F55F44" stroke="none" />
      <path d="M0 0L42.8615 13.2075" transform="translate(120.6514 246.8675)" id="Line" fill="none" stroke="#E0E0E0" stroke-width="5" />
      <path d="M42.8614 0L0 13.2075" transform="translate(116.0204 246.8675)" id="Line" fill="none" stroke="#E0E0E0" stroke-width="5" />
      <path d="M36.7744 7.37415e-06L50.2602 7.37415e-06C65.2068 7.37415e-06 77.3234 12.1166 77.3234 27.0632L77.3234 98.5875L0 98.5875L0 36.7744C7.37414e-06 16.4645 16.4644 7.37415e-06 36.7744 0L36.7744 7.37415e-06Z" transform="translate(103.5212 87.32101)" id="Shape" fill="#397A51" stroke="none" />
      <path d="M0 0L77.3235 0L77.3235 42.0448L34.3123 42.0448C15.3621 42.0448 0 26.6826 0 7.73238L0 0L0 0Z" transform="translate(103.5212 185.9084)" id="Shape" fill="#39447A" stroke="none" />
      <path d="M0.0768385 22.3656L47.3596 67.291L99.5529 67.291L99.5529 60.5252L54.6087 47.4768L16.1626 0C16.1626 0 -1.29519 10.7861 0.0768385 22.3656L0.0768385 22.3656Z" transform="translate(104.5654 93.9707)" id="Shape" fill="#000000" stroke="none" />
      <path d="M0.0768385 22.3656L47.3596 67.291L99.5529 67.291L99.5529 60.5252L54.6087 47.4768L16.1626 0C16.1626 0 -1.29519 10.7861 0.0768385 22.3656L0.0768385 22.3656Z" transform="translate(104.5654 93.00415)" id="Shape" fill="#397A51" stroke="none" />
      <path d="M0 0C0 0 25.1301 1.93313 18.3643 6.76596L0 6.76596L0 0Z" transform="translate(204.0416 153.5293)" id="Shape" fill="#FDA57D" stroke="none" />
      <path d="M0 14.4767C0 14.4767 6.28253 -4.37108 10.632 0.944952C14.9814 6.26098 8.21562 17.3763 8.21562 17.3763L0 14.4767Z" transform="translate(236.9043 84.90469)" id="Shape" fill="#FDA57D" stroke="none" />
      <path d="M0 0L0 2.2555L77.3234 2.41643L77.3234 0L0 0L0 0Z" transform="translate(103.5212 185.9084)" id="Polygon" fill="#000000" stroke="none" />
      <path d="M5.92848 42.2613L57.9417 47.0014L60.7635 153.211L79.3845 147.149C79.3845 147.149 107.234 26.8151 80.6779 16.672C54.1222 6.52889 25.4166 -6.82751 8.27794 4.05752C-8.86073 14.9425 5.92848 42.2613 5.92848 42.2613L5.92848 42.2613Z" transform="translate(163.6703 192.4288)" id="Shape" fill="#39447A" stroke="none" />
      <path d="M0 0C0 0 28.5131 14.4982 32.3792 30.9294" transform="translate(166.8297 197.9902)" id="Shape" fill="#000000" stroke="none" />
      <path d="M4.8332 30.4517L45.4275 63.3142L0 136.288L18.8476 141.604C18.8476 141.604 97.6209 73.9461 81.1897 50.7491C64.7584 27.5521 48.3272 0.488876 28.0298 0.00560434C7.73235 -0.477667 4.8332 30.4517 4.8332 30.4517L4.8332 30.4517Z" transform="translate(131.5509 197.0237)" id="Shape" fill="#39447A" stroke="none" />
      <path d="M0 0L10.1487 17.3979L12.565 12.5652L0 0L0 0Z" transform="translate(200.1755 120.6667)" id="Polygon" fill="#000000" stroke="none" />
      <path d="M7.78645 0C7.78645 0 -7.19498 11.5986 4.40354 15.4648C16.0021 19.331 39.6824 22.2306 39.6824 22.2306C39.6824 22.2306 43.5486 15.4648 38.2326 12.5651C32.9166 9.66549 25.6675 11.1153 25.6675 11.1153L26.6341 5.31602L7.78645 0Z" transform="translate(128.1681 333.3061)" id="Shape" fill="#333333" stroke="none" />
      <path d="M1.81663 5.99976C1.81663 5.99976 -4.76407 24.25 7.12432 21.3971C19.0127 18.5443 40.6437 8.48143 40.6437 8.48143C40.6437 8.48143 40.3468 0.694557 34.3016 1.04506C28.2563 1.39557 22.8708 6.45985 22.8708 6.45985L20.2667 0L1.81663 5.99976Z" transform="translate(218.9374 335.2393)" id="Shape" fill="#333333" stroke="none" />
      <path d="M0 0L19.331 0L19.331 28.9964L0 28.9964L0 0Z" transform="translate(132.5175 70.40652)" id="Rectangle" fill="#FDA57D" stroke="none" />
      <path d="M9.6655 0C4.3274 0 1.47484e-05 4.32735 0 9.66541L0 12.9493C6.27819 15.0144 13.0528 15.0144 19.331 12.9493L19.331 9.66541C19.331 4.32738 15.0036 1.47483e-05 9.66553 0L9.6655 0Z" transform="translate(132.5175 71.37305)" id="Shape" fill="#000000" stroke="none" />
      <path d="M0 30.9295C0 13.8476 13.8476 0 30.9294 0C48.0112 0 61.8588 13.8476 61.8588 30.9295C61.8588 48.0113 48.0112 61.8589 30.9294 61.8589C13.8476 61.8589 0 48.0113 0 30.9295Z" transform="translate(111.2535 23.0459)" id="Circle" fill="#FDA57D" stroke="none" />
      <path d="M1.93309 34.3587C1.93309 34.3587 9.66544 36.3513 14.0149 27.5631C18.3643 18.7748 21.7472 13.9813 39.6283 19.1743C57.5094 24.3674 61.1065 25.001 61.9659 20.0903C62.5532 16.7347 56.195 8.58401 52.1093 3.75841C50.1161 1.40429 46.8635 0 43.3873 0L23.1971 0L11.1153 5.59252L1.93309 13.5818L0 24.3674L1.93309 34.3587Z" transform="translate(109.3204 18.2132)" id="Shape" fill="#000000" stroke="none" />
      <path d="M1.93309 34.3587C1.93309 34.3587 9.66544 36.3514 14.0149 27.5631C18.3643 18.7749 21.7472 13.9813 39.6283 19.1743C57.5094 24.3674 61.1065 25.001 61.9659 20.0903C62.5532 16.7347 56.195 8.58402 52.1093 3.75842C50.1161 1.4043 46.8635 0 43.3873 0L23.1971 0L11.1153 5.59253L1.93309 13.5818L0 24.3674L1.93309 34.3587Z" transform="translate(109.3204 17.24664)" id="Shape" fill="#000000" stroke="none" />
      <path d="M0 6.28261C0 2.81282 1.4064 0 3.14129 0C4.87617 0 6.28258 2.81282 6.28258 6.28261C6.28258 9.75241 4.87617 12.5652 3.14129 12.5652C1.4064 12.5652 0 9.75241 0 6.28261Z" transform="translate(111.2535 45.2764)" id="Ellipse" fill="#FDA57D" stroke="none" />
      <path d="M4.8257 32.0254C4.10891 27.9798 3.40469 23.7316 4.70972 19.8358C6.00586 16.0745 9.00577 13.1487 12.7983 11.9469C15.2353 11.1978 17.8616 11.2137 20.2833 10.4163C23.6915 9.29395 26.3632 6.68908 29.3236 4.66147C31.9401 2.8708 34.8256 1.50917 37.8712 0.627959C40.6081 -0.16292 43.83 -0.467616 46.0604 1.30479C47.9378 2.79668 48.5897 5.35396 50.1412 7.18243C51.9467 9.31034 54.751 10.2328 57.1995 11.5718C63.394 15.0378 67.4818 21.3346 68.1263 28.4035C68.2107 29.4409 68.1242 30.6735 67.2489 31.2369C66.7052 31.5134 66.0927 31.6252 65.4863 31.5586C53.1249 31.3819 40.7486 31.2045 28.438 30.0697C24.6111 29.717 20.7765 29.2713 16.9361 29.4168C10.9924 29.6485 5.18826 31.2862 0 34.1954" transform="translate(107.324 3.995605)" id="Shape" fill="#000000" stroke="none" />
      <path d="M0 0L74.4652 0L74.4652 31.6874L0 31.6874L0 0Z" transform="translate(0 311.1971)" id="Rectangle" fill="#1565C0" stroke="none" />
      <path d="M0.700256 1.44984C1.09085 1.43631 1.40051 1.11574 1.40051 0.724922C1.40051 0.3341 1.09085 0.0135392 0.700256 0C0.309658 0.0135392 0 0.3341 0 0.724922C0 1.11574 0.309658 1.43631 0.700256 1.44984L0.700256 1.44984Z" transform="translate(277.6042 196.6209)" id="Shape" fill="url(#gradient_3)" stroke="none" />
      <path d="M0 0L50.2603 178.855" transform="translate(384.6704 165.6111)" id="Line" fill="none" stroke="#E0E0E0" stroke-width="8" />
      <path d="M0 0L271.408 0L271.408 10.5765L0 10.5765L0 0Z" transform="translate(163.7262 160.3734)" id="Rectangle" fill="#E0E0E0" stroke="none" />
      <path d="M0 0L44.4609 0L44.4609 6.28267L0 6.28267L0 0Z" transform="translate(230.6217 157.8786)" id="Rectangle" fill="#535461" stroke="none" />
      <g id="Group" transform="translate(257.6849 87.83368)" opacity="0.7">
        <path d="M0 0L110.505 0L110.505 76.4059L0 76.4059L0 0Z" id="Rectangle" fill="url(#gradient_4)" stroke="none" />
      </g>
      <path d="M0 0L104.681 0L104.681 74.9962L0 74.9962L0 0Z" transform="translate(259.655 89.24341)" id="Rectangle" fill="#3E3F49" stroke="none" />
      <path d="M0 0L104.681 0L104.681 74.9962L0 74.9962L0 0Z" transform="translate(261.1047 89.24341)" id="Rectangle" fill="#535461" stroke="none" />
      <path d="M0 3.38294C0 1.51459 1.51458 0 3.38292 0C5.25125 0 6.76584 1.51459 6.76584 3.38294C6.76584 5.25129 5.25125 6.76588 3.38292 6.76588C1.51458 6.76588 0 5.25129 0 3.38294Z" transform="translate(314.9525 122.8416)" id="Circle" fill="#E0E0E0" stroke="none" />
    </g>
  </g>
</svg>