<?xml version="1.0" encoding="utf-8"?>
<svg width="646px" height="414px" viewBox="0 0 646 414" version="1.1" xmlns:xlink="http://www.w3.org/1999/xlink" xmlns="http://www.w3.org/2000/svg">
  <desc>Created with Lunacy</desc>
  <defs>
    <linearGradient x1="0.51647085" y1="1.11630046" x2="0.51647085" y2="0.116300486" id="gradient_1">
      <stop offset="0" stop-color="#808080" stop-opacity="0.2509804" />
      <stop offset="0.54" stop-color="#808080" stop-opacity="0.121568628" />
      <stop offset="1" stop-color="#808080" stop-opacity="0.101960786" />
    </linearGradient>
    <linearGradient x1="642.170044" y1="175.699951" x2="642.170044" y2="169.699951" id="gradient_2" />
    <linearGradient x1="588.52" y1="693.03" x2="588.52" y2="483.16" id="gradient_3" />
  </defs>
  <g id="About-Me-Icon">
    <path d="M0 17.0496C0 7.63336 133.214 0 297.542 0C461.87 0 595.085 7.63336 595.085 17.0496C595.085 26.4658 461.87 34.0992 297.542 34.0992C133.214 34.0992 0 26.4658 0 17.0496Z" transform="translate(9.843262 379.4153)" id="Ellipse" fill="#1E9566" stroke="none" />
    <g id="Group" transform="translate(542.3398 264.6343)" opacity="0.2">
      <path d="M10.6147 10.1052C6.49532 9.34073 10.0238 11.1137 9.66324 11.5737C9.66324 11.5737 3.27423 7.15361 0 5.01234C0.0659955 4.87485 0.137496 4.73184 0.214502 4.59435C0.974659 3.12593 2.11407 1.88776 3.51441 1.00843C5.32385 -0.0915412 7.3643 -0.355524 9.01426 0.535451C10.6642 1.42642 11.6322 3.25238 11.7312 5.36434C11.7887 7.01594 11.4032 8.65281 10.6147 10.1052L10.6147 10.1052Z" transform="translate(0 123.0253)" id="Shape" fill="#3F3D56" stroke="none" />
      <path d="M0 5.8819C3.05176e-05 2.63346 3.44817 7.62939e-06 7.70139 0C11.9547 3.8147e-05 15.4027 2.63342 15.4027 5.88188C15.4028 9.13028 11.9547 11.7636 7.70132 11.7637C3.44819 11.7636 6.86646e-05 9.1303 0 5.8819Z" transform="matrix(0.4680841 -0.8836839 0.8836839 0.4680841 1.034667 125.5483)" id="Ellipse" fill="#3F3D56" stroke="none" />
      <path d="M0 5.88178C-3.8147e-05 2.63331 3.44786 -2.28882e-05 7.70123 0C11.9546 -3.8147e-06 15.4026 2.63331 15.4026 5.88178C15.4026 9.13023 11.9546 11.7636 7.70134 11.7635C3.44788 11.7636 -6.86645e-05 9.13019 0 5.88178Z" transform="matrix(0.4680841 -0.8836839 0.8836839 0.4680841 5.437987 117.2286)" id="Ellipse" fill="#3F3D56" stroke="none" />
      <path d="M0 5.88185C-7.6294e-06 2.63343 3.44807 3.8147e-05 7.7014 0C11.9547 3.8147e-06 15.4027 2.63342 15.4027 5.88185C15.4028 9.13022 11.9548 11.7636 7.70139 11.7637C3.44804 11.7637 -3.05176e-05 9.13031 0 5.88185Z" transform="matrix(0.4680841 -0.8836839 0.8836839 0.4680841 9.848633 108.9065)" id="Ellipse" fill="#3F3D56" stroke="none" />
      <path d="M0 5.88183C3.05176e-05 2.63334 3.44801 3.8147e-06 7.70136 0C11.9547 -3.8147e-06 15.4026 2.63341 15.4026 5.88183C15.4027 9.13025 11.9547 11.7636 7.70132 11.7636C3.44801 11.7636 -3.05176e-05 9.13026 0 5.88183Z" transform="matrix(0.4680841 -0.8836839 0.8836839 0.4680841 14.25439 100.5818)" id="Ellipse" fill="#3F3D56" stroke="none" />
      <path d="M33.0897 33.2012C32.8597 31.9291 32.7164 30.6429 32.6607 29.3513L47.5103 34.3452L32.6607 26.6454C33.0976 18.867 36.7253 11.6137 42.6869 6.59838L57.047 27.4209L45.8768 4.28296C54.8227 -1.30491 66.1389 -1.43398 75.2099 3.94842C84.2809 9.33079 89.5904 19.3249 88.9729 29.8545C88.3554 40.384 81.914 49.689 72.276 53.9741C72.6401 55.969 72.7877 57.9974 72.716 60.024L50.0842 59.848L72.3696 63.5164C70.8405 72.9231 64.6686 80.9233 55.9581 84.7898C58.5868 99.2644 49.6483 113.328 35.4269 117.093C21.2055 120.858 6.4789 113.06 1.60104 99.1808C-3.27681 85.3017 3.33277 70.0044 16.7827 64.0444C14.4701 51.2435 21.2107 38.5212 33.1007 33.2452L33.0897 33.2012Z" transform="translate(2.252441 0)" id="Shape" fill="#28513B" stroke="none" />
      <path d="M69.4493 9.89007C66.4998 15.4859 61.7455 19.9204 55.9581 22.4737C58.5869 36.9483 49.6483 51.0122 35.4269 54.7773C21.2055 58.5424 6.47891 50.7438 1.60105 36.8647C-3.27681 22.9856 3.33277 7.68838 16.7827 1.7283C15.6883 -4.28306 70.9342 7.09613 69.4493 9.89007L69.4493 9.89007Z" transform="translate(2.241699 60.07397)" id="Shape" fill="#000000" stroke="none" />
    </g>
    <g id="Group" transform="translate(514.3916 4.875244)" opacity="0.2">
      <path d="M18.0726 15.5397C11.2949 15.1363 17.3163 17.276 16.8351 18.0916C16.8351 18.0916 5.68319 12.2654 0 9.4788C0.0770063 9.24231 0.16499 8.99481 0.258478 8.75832C1.18037 6.25154 2.75655 4.03726 4.82337 2.34548C7.5018 0.200538 10.7302 -0.607943 13.6232 0.486526C16.5161 1.58099 18.3641 4.33643 18.9415 7.69685C19.3587 10.3417 19.0587 13.0502 18.0726 15.5396L18.0726 15.5397Z" transform="translate(2.819824 210.9469)" id="Shape" fill="#3F3D56" stroke="none" />
      <path d="M0 9.52633C-0.000274658 4.26515 5.58395 -3.8147e-05 12.4725 0C19.3611 3.8147e-05 24.9455 4.26504 24.9453 9.52631C24.9455 14.7876 19.3611 19.0526 12.4726 19.0527C5.58411 19.0527 -0.000198364 14.7876 0 9.52633Z" transform="matrix(0.3557595 -0.9345775 0.9345775 0.3557595 4.07129 216.5342)" id="Ellipse" fill="#3F3D56" stroke="none" />
      <path d="M0 9.52629C0.000106812 4.26505 5.58427 -1.52588e-05 12.4726 0C19.3612 -1.52588e-05 24.9454 4.26508 24.9455 9.52626C24.9456 14.7875 19.3611 19.0527 12.4726 19.0527C5.58434 19.0527 -9.15527e-05 14.7876 0 9.52629Z" transform="matrix(0.3557595 -0.9345775 0.9345775 0.3557595 9.498047 202.29)" id="Ellipse" fill="#3F3D56" stroke="none" />
      <path d="M0 9.52634C6.10351e-05 4.26506 5.58423 4.57764e-05 12.4727 0C19.3613 0 24.9456 4.26507 24.9455 9.52633C24.9455 14.7876 19.3613 19.0527 12.4727 19.0526C5.58423 19.0527 -0.00012207 14.7876 0 9.52634Z" transform="matrix(0.3557595 -0.9345775 0.9345775 0.3557595 14.9165 188.0389)" id="Ellipse" fill="#3F3D56" stroke="none" />
      <path d="M0 9.5263C0.000106812 4.26507 5.5843 3.05176e-05 12.4728 0C19.3613 -1.52588e-05 24.9456 4.26505 24.9455 9.52637C24.9456 14.7877 19.3612 19.0527 12.4728 19.0526C5.58434 19.0527 0.00012207 14.7876 0 9.5263Z" transform="matrix(0.3557595 -0.9345775 0.9345775 0.3557595 20.34375 173.8)" id="Ellipse" fill="#3F3D56" stroke="none" />
      <path d="M42.2429 59.2061C41.6162 57.1924 41.1292 55.1379 40.7854 53.0572L65.6558 58.1226L40.2684 48.6738C39.4266 36.1342 43.7849 23.8011 52.3187 14.5747L79.576 45.0769L57.0265 10.1363C70.2895 -0.575359 88.4162 -3.00382 104.031 3.83909C119.646 10.682 130.146 25.6558 131.26 42.6677C132.373 59.6797 123.914 75.8945 109.325 84.7144C110.302 87.8472 110.94 91.0758 111.228 94.3447L74.835 98.5686L111.371 100.026C110.789 115.446 102.464 129.531 89.2338 137.475C96.3215 160.198 84.7595 184.553 62.6724 193.426C40.5852 202.299 15.3874 192.711 4.78513 171.4C-5.81712 150.089 1.73532 124.208 22.1354 111.944C15.8494 91.8295 24.1499 70.0262 42.2209 59.1841L42.2429 59.2061Z" id="Shape" fill="#28513B" stroke="none" />
      <path d="M108.406 7.22065C104.776 16.7913 98.0205 24.8554 89.2337 30.1056C96.3215 52.8286 84.7595 77.1838 62.6724 86.0569C40.5852 94.93 15.3874 85.3424 4.78513 64.0313C-5.81712 42.7202 1.73532 16.8394 22.1354 4.57522C19.2039 -4.84056 110.232 2.43576 108.406 7.22065L108.406 7.22065Z" transform="translate(0 108.1051)" id="Shape" fill="#000000" stroke="none" />
    </g>
    <g id="Group" opacity="0.2">
      <path d="M0.55212 17.3895C8.61862 17.9102 1.19844 19.5482 1.6521 20.5794C1.6521 20.5794 15.664 15.3436 22.7881 12.8797C22.7276 12.5882 22.6671 12.2857 22.5902 11.9887C21.8727 8.89225 20.3403 6.04398 18.1517 3.73894C15.3028 0.813025 11.6124 -0.616919 8.06496 0.252031C4.51754 1.12098 1.9051 4.10192 0.722615 7.9518C-0.179122 11.0256 -0.23801 14.2852 0.55212 17.3895L0.55212 17.3895Z" transform="translate(97.08252 261.152)" id="Shape" fill="#3F3D56" stroke="none" />
      <path d="M0 14.8309C3.8147e-06 6.64005 5.07241 -0.000274658 11.3294 0C17.5864 -0.00012207 22.6587 6.64005 22.6586 14.8311C22.6587 23.022 17.5864 29.662 11.3294 29.6621C5.07238 29.662 2.67029e-05 23.022 0 14.8309Z" transform="matrix(0.9714664 -0.2371773 0.2371773 0.9714664 89.24365 246.1125)" id="Ellipse" fill="#3F3D56" stroke="none" />
      <path d="M0 14.8312C1.90735e-05 6.64044 5.07229 0.000305176 11.3294 0C17.5864 0.000366211 22.6587 6.6402 22.6587 14.831C22.6587 23.0221 17.5864 29.662 11.3293 29.6623C5.07232 29.662 3.8147e-06 23.022 0 14.8312Z" transform="matrix(0.9714664 -0.2371773 0.2371773 0.9714664 84.94287 228.5102)" id="Ellipse" fill="#3F3D56" stroke="none" />
      <path d="M0 14.831C2.28882e-05 6.64035 5.0724 0.000167847 11.3294 0C17.5864 0.000228882 22.6587 6.63994 22.6588 14.8309C22.6587 23.0218 17.5864 29.6618 11.3293 29.6619C5.07227 29.6618 1.14441e-05 23.022 0 14.831Z" transform="matrix(0.9714664 -0.2371773 0.2371773 0.9714664 80.64746 210.9011)" id="Ellipse" fill="#3F3D56" stroke="none" />
      <path d="M0 14.8311C-3.8147e-06 6.64011 5.07234 -0.000152588 11.3294 0C17.5864 0.000167847 22.6587 6.64021 22.6587 14.831C22.6587 23.0219 17.5863 29.6622 11.3294 29.6621C5.0723 29.6621 3.8147e-06 23.0221 0 14.8311Z" transform="matrix(0.9714664 -0.2371773 0.2371773 0.9714664 76.3457 193.2881)" id="Ellipse" fill="#3F3D56" stroke="none" />
      <path d="M103.66 76.7424C104.699 74.4599 105.578 72.1076 106.289 69.7026L76.1994 72.0016L107.549 64.5987C110.399 49.9193 107.075 34.7139 98.3584 22.5633L61.6853 54.5945L93.458 16.6895C79.3951 2.04505 58.3365 -3.5295 38.8699 2.23913C19.4033 8.00776 4.78181 24.1555 0.968036 44.0975C-2.84573 64.0394 4.78554 84.4429 20.7499 96.9874C19.1343 100.542 17.9045 104.259 17.0814 108.075L59.4029 118.42L16.075 114.752C14.4886 133.029 22.2303 150.872 36.661 162.199C24.9361 187.972 34.9872 218.427 59.7491 232.158C84.5111 245.889 115.668 238.284 131.318 214.689C146.969 191.093 141.858 159.432 119.577 141.96C129.952 119.145 123.36 92.1938 103.627 76.7424L103.66 76.7424Z" id="Shape" fill="#28513B" stroke="none" />
      <path d="M0.0141218 2.54242C2.88358 14.3797 9.66656 24.9011 19.2637 32.4011C7.5388 58.1736 17.5899 88.6293 42.3518 102.36C67.1138 116.091 98.2705 108.486 113.921 84.8904C129.572 61.2949 124.46 29.6334 102.18 12.1616C107.063 1.46446 -1.42134 -3.34792 0.0141218 2.54242L0.0141218 2.54242Z" transform="translate(16.44336 130.1013)" id="Shape" fill="#000000" stroke="none" />
    </g>
    <path d="M537.54 0L4.74639 0C3.48516 0.00146023 2.27625 0.504258 1.38597 1.39763C0.495693 2.291 -0.00290367 3.50166 1.67842e-05 4.76288L1.67842e-05 330.839C-0.00930266 336.133 4.27507 340.432 9.56942 340.441L532.716 340.441C538.01 340.432 542.295 336.133 542.286 330.839L542.286 4.76288C542.289 2.13766 540.165 0.00621856 537.54 0L537.54 0Z" transform="translate(42.38623 60.24756)" id="Shape" fill="url(#gradient_1)" stroke="none" />
    <path d="M537.886 0L537.886 308.674C537.884 313.911 533.638 318.158 528.4 318.161L9.49276 318.161C4.25005 318.161 0 313.911 0 308.668L0 0L537.886 0Z" transform="translate(44.62988 80.49268)" id="Shape" fill="#EEEEEE" stroke="none" />
    <path d="M537.886 4.7079L537.886 18.4246L0 18.4246L0 4.7079C0.00126721 2.1055 2.11009 -0.00126721 4.71017 0L533.181 0C535.78 0.00127561 537.886 2.1087 537.886 4.7079L537.886 4.7079Z" transform="translate(44.62988 62.06812)" id="Shape" fill="#EDEDF4" stroke="none" />
    <path d="M0 2.19999C0 0.984969 0.984955 0 2.19996 0C3.41496 0 4.39992 0.984969 4.39992 2.19999C4.39992 3.41501 3.41496 4.39998 2.19996 4.39998C0.984955 4.39998 0 3.41501 0 2.19999Z" transform="translate(50.95459 68.94287)" id="Circle" fill="#FA5959" stroke="none" />
    <path d="M0 2.19999C0 0.984969 0.984959 0 2.19997 0C3.41498 0 4.39994 0.984969 4.39994 2.19999C4.39994 3.41501 3.41498 4.39998 2.19997 4.39998C0.984959 4.39998 0 3.41501 0 2.19999Z" transform="translate(57.00488 68.94287)" id="Circle" fill="#FED253" stroke="none" />
    <path d="M0 2.19999C0 0.984969 0.985006 0 2.20007 0C3.41514 0 4.40015 0.984969 4.40015 2.19999C4.40015 3.41501 3.41514 4.39998 2.20007 4.39998C0.985006 4.39998 0 3.41501 0 2.19999Z" transform="translate(63.05469 68.94287)" id="Circle" fill="#8CCF4D" stroke="none" />
    <path d="M0 0L2.19883 0L2.19885 3.2977L3.05177e-05 3.2977L0 0Z" transform="matrix(-4.371139E-08 1 -1 -4.371139E-08 344.6338 51.97668)" id="Rectangle" fill="url(#gradient_2)" stroke="none" />
    <path d="M0 0L51.6988 0L51.6988 5.49998L0 5.49998L0 0Z" transform="translate(168.333 107.5464)" id="Rectangle" fill="#C9C9C9" stroke="none" />
    <path d="M0 0L290.393 0L290.393 5.49985L0 5.49985L0 0Z" transform="translate(168.333 123.4961)" id="Rectangle" fill="#C9C9C9" stroke="none" />
    <path d="M0 0L290.393 0L290.393 5.49985L0 5.49985L0 0Z" transform="translate(168.333 139.4458)" id="Rectangle" fill="#C9C9C9" stroke="none" />
    <path d="M0 0L290.393 0L290.393 5.49985L0 5.49985L0 0Z" transform="translate(168.333 155.3951)" id="Rectangle" fill="#C9C9C9" stroke="none" />
    <path d="M0 0L290.393 0L290.393 5.49988L0 5.49988L0 0Z" transform="translate(168.333 171.3448)" id="Rectangle" fill="#C9C9C9" stroke="none" />
    <path d="M0 0L179.295 0L179.295 138.596L0 138.596L0 0Z" transform="translate(223.7876 201.7699)" id="Rectangle" fill="#EDEDF4" stroke="none" />
    <path d="M62.4558 20.851C62.2248 20.851 61.9938 20.884 61.7573 20.8895C61.8353 20.5694 61.8613 20.2389 61.8343 19.9106C61.7666 18.5235 61.3909 17.1689 60.7343 15.9451C60.3299 15.224 59.8741 14.5329 59.3703 13.8772C57.8744 11.8092 56.4884 9.6973 54.844 7.74486C54.1309 6.98611 53.5424 6.11922 53.1005 5.1764C52.9345 4.66743 52.7361 4.16959 52.5065 3.68596C51.8582 2.6782 50.7021 2.11606 49.5091 2.22848C48.3324 2.3671 47.2498 2.93976 46.4731 3.83445C46.0111 4.32943 45.6317 5.09392 46.0166 5.6549C46.4016 6.21588 47.2376 6.28738 47.2871 6.90336C47.2871 7.23336 47.2871 7.77233 46.9516 7.87683C46.356 8.03432 45.7883 8.28291 45.2687 8.61383C44.7476 8.95911 44.4195 9.52969 44.3832 10.1538C45.3347 10.2968 46.1322 9.4993 46.9956 9.05381C48.0918 8.58644 49.3222 8.54137 50.4496 8.92731C50.8828 9.04262 51.2874 9.24676 51.6375 9.52679C51.9461 9.82961 52.2058 10.1784 52.4075 10.5608C53.4668 12.0923 54.1215 13.867 54.3105 15.7196L54.7945 18.8106C54.0785 18.8677 53.3662 18.9631 52.6605 19.0966C50.761 19.3767 48.8234 19.2454 46.9791 18.7116C45.0542 18.1616 43.1292 17.1607 41.1438 17.6116C40.2143 17.8151 39.3673 18.3321 38.4268 18.4806C37.6919 18.5515 36.9504 18.5126 36.2269 18.3651L34.7144 18.1231C34.6649 17.9966 34.6264 17.8646 34.5879 17.7326C34.2752 16.6294 34.1306 15.4854 34.1589 14.3392C36.1613 14.2317 37.9803 13.1391 39.0158 11.4219C40.0512 9.7046 40.1684 7.58589 39.3288 5.76487C40.1444 5.30768 40.8195 4.63636 41.2813 3.82344L40.8963 3.75195L41.2593 3.20197C41.086 3.09621 40.9723 2.91554 40.9518 2.71366C40.9313 2.51176 41.0063 2.31191 41.1548 2.17349C40.8343 2.00731 40.476 1.92769 40.1153 1.94249C40.2308 1.72799 40.0438 1.46401 39.8183 1.39251C39.5832 1.34472 39.3426 1.32992 39.1033 1.3485C38.7524 1.32151 38.4075 1.24178 38.0804 1.11201C35.7319 0.303526 33.1855 -0.405961 30.7931 0.270529C29.7386 0.599651 28.7528 1.11773 27.8836 1.79949C26.1246 2.78713 25.4438 4.97698 26.3327 6.78787C26.6956 7.68888 26.9558 8.62796 27.1081 9.5873C27.1418 10.483 27.0398 11.3786 26.8056 12.2437C27.3293 12.4032 27.8643 12.5227 28.4061 12.6012C28.1005 13.7823 27.5599 14.8897 26.8166 15.8571C26.476 16.2852 26.1086 16.6911 25.7167 17.0726L25.6507 17.0726C24.5602 17.2766 23.4581 17.4126 22.3507 17.4796C21.1847 17.4796 20.0408 17.0396 18.8803 17.1221C18.1928 17.1996 17.5159 17.3527 16.8619 17.5786C13.8431 18.4635 10.7069 18.8827 7.56165 18.8216L7.18216 18.8601L7.53415 16.6161C7.72318 14.7635 8.3778 12.9888 9.43715 11.4573C9.63887 11.0749 9.89862 10.7261 10.2071 10.4233C10.5593 10.1431 10.9657 9.939 11.4006 9.82379C12.5261 9.43768 13.7548 9.48277 14.849 9.95029C15.7125 10.3738 16.499 11.1713 17.467 11.0503C17.4269 10.4259 17.0973 9.8562 16.576 9.51029C16.0563 9.17939 15.4886 8.9308 14.893 8.77333C14.574 8.66883 14.53 8.12984 14.5575 7.79986C14.607 7.18388 15.4815 7.05189 15.828 6.54589C16.1745 6.0399 15.828 5.22593 15.3715 4.72544C14.5936 3.8332 13.5113 3.26264 12.3356 3.12496C11.144 3.0121 9.98929 3.57461 9.34367 4.58242C9.10993 5.06493 8.90963 5.56292 8.74417 6.07288C8.30224 7.0157 7.71378 7.88259 7.00068 8.64132C5.35072 10.5938 3.97025 12.7057 2.4743 14.7737C1.97373 15.4296 1.51804 16.1187 1.11035 16.8361C0.457036 18.0631 0.081538 19.4187 0.0103727 20.807C-0.0166836 21.1371 0.00929848 21.4695 0.0873789 21.7915C0.0506549 21.869 0.0300774 21.9532 0.0268884 22.039C0.0612961 22.3426 0.215779 22.6199 0.455894 22.809C1.29739 23.6559 2.18286 24.5304 3.31583 24.8934C4.0207 25.0602 4.73521 25.1833 5.45529 25.2618C7.19323 25.5753 8.79371 26.5818 10.5592 26.5763C11.7747 26.5763 12.9736 26.0923 14.1726 26.2628C15.8226 26.4883 17.0105 27.8303 18.0225 29.1337C18.882 30.1511 19.5274 31.3315 19.92 32.6041C20.3105 34.1386 20.0685 35.8655 20.888 37.2185C21.0947 37.4948 21.2545 37.8032 21.3609 38.1315C21.378 38.6505 21.2625 39.1653 21.0254 39.6274C20.3325 41.7558 21.8504 44.0273 21.6909 46.2272C21.6139 47.2997 21.141 48.3117 21.0914 49.3841C21.0089 50.7646 21.5699 52.3101 20.7999 53.4595C21.2674 53.2175 21.7404 53.003 22.2244 52.8105C19.9145 59.5809 17.8245 66.5602 17.984 73.677C18.105 78.2914 19.084 83.3733 16.433 87.1627C16.0564 87.6145 15.7571 88.1256 15.5476 88.6752C15.3386 89.4176 15.5476 90.2041 15.6851 90.9631C16.1746 94.263 14.3926 97.5134 14.2716 100.863C14.2577 101.895 14.3239 102.926 14.4696 103.948L15.1186 109.525C14.4646 109.668 13.8561 109.97 13.3476 110.405C12.6656 110.955 12.0661 111.857 12.3851 112.682C12.6436 113.348 13.4026 113.667 14.1011 113.832C14.8174 113.912 15.502 114.171 16.092 114.585C16.2808 114.794 16.4809 114.992 16.6915 115.179C17.0981 115.399 17.5639 115.486 18.0225 115.426C18.864 115.394 19.6724 115.322 20.5304 115.206C20.7085 115.199 20.8814 115.144 21.0309 115.047C21.234 114.822 21.3355 114.524 21.3114 114.222C21.373 113.385 21.3379 112.543 21.2069 111.714C21.1739 111.555 21.1299 111.401 21.0859 111.241C21.3748 110.534 21.5796 109.796 21.6964 109.041C21.8669 107.941 21.8944 106.792 21.9659 105.664C22.1309 102.793 22.5159 99.9444 22.9558 97.0955L23.5058 93.4325C23.6763 92.2281 23.8523 91.0236 24.0558 89.8191C25.0754 83.2955 26.6617 76.8731 28.7965 70.6249C29.264 69.2885 30.0615 67.721 31.475 67.6825L32.3165 69.3325C33.4164 71.4004 34.0874 73.6939 34.9234 75.8663C36.0234 78.7208 35.6494 82.0537 37.1233 84.7376C37.3653 85.1831 37.6733 85.6066 37.8548 86.0741C38.1156 86.7937 38.2676 87.5481 38.3059 88.3126L39.2793 98.2123C39.7193 102.662 40.1923 107.232 42.1888 111.23C42.3141 111.488 42.4613 111.735 42.6287 111.967C42.5672 112.633 42.558 113.302 42.6012 113.969C42.5389 114.209 42.5926 114.463 42.7461 114.656C42.8997 114.85 43.1352 114.96 43.3822 114.954C44.2126 115.064 45.0321 115.135 45.8846 115.168C46.3433 115.228 46.809 115.141 47.2156 114.921C47.4306 114.737 47.6328 114.539 47.8206 114.327C48.4085 113.913 49.0914 113.654 49.806 113.573C50.5045 113.414 51.2635 113.095 51.522 112.424C51.8465 111.599 51.2415 110.703 50.5595 110.147C50.0067 109.664 49.3274 109.349 48.6016 109.24C48.3027 109.257 48.0029 109.233 47.7106 109.168C47.7786 108.806 47.8008 108.436 47.7766 108.068C47.7062 107.635 47.6877 107.196 47.7216 106.759C47.8339 106.318 47.9848 105.887 48.1726 105.472C48.8051 103.525 47.4576 101.545 46.9846 99.5543C46.3521 96.9033 47.2926 94.1259 47.1221 91.4035C46.8581 87.1301 43.8772 83.1207 44.6691 78.9133C45.3016 75.5474 44.7626 72.088 44.1632 68.7165L41.9632 56.1713C41.8085 55.153 41.541 54.1551 41.1658 53.1959C41.5741 53.1252 41.9753 53.0185 42.3647 52.8769C42.9147 51.535 42.8212 50.0555 42.6562 48.6145C42.4912 47.1736 42.1063 45.7656 41.9138 44.3356C41.747 43.1858 41.6515 42.0268 41.6278 40.8652C41.5678 39.7193 41.6491 38.5704 41.8698 37.4443C42.1227 36.4557 42.467 35.4927 42.8982 34.5679C43.9626 31.8976 45.2504 29.3218 46.7481 26.8682C49.0086 26.6922 51.1975 26.4997 53.4525 26.3182C53.993 26.2935 54.5304 26.2217 55.0584 26.1037C55.7314 25.8717 56.4162 25.6752 57.1099 25.5151C57.3686 25.5016 57.6241 25.4516 57.8689 25.3666C58.3639 25.1412 58.6663 24.5087 59.2108 24.4867C59.4153 24.5139 59.6224 24.5139 59.8268 24.4867C60.0688 24.4097 60.1898 24.1457 60.3768 23.9367C60.7178 23.5572 61.2733 23.4802 61.7188 23.2327C62.5072 22.7208 62.8173 21.7188 62.4558 20.851L62.4558 20.851Z" transform="translate(282.4497 224.1268)" id="Shape" fill="url(#gradient_3)" stroke="none" />
    <path d="M0 6.0498C0 2.70859 2.70866 0 6.04996 0C9.39126 0 12.0999 2.70859 12.0999 6.0498C12.0999 9.39102 9.39126 12.0996 6.04996 12.0996C2.70866 12.0996 0 9.39102 0 6.0498Z" transform="translate(310.2349 226.5908)" id="Circle" fill="#A1616A" stroke="none" />
    <path d="M2.06244 6.38333C1.44435 7.14349 0.753577 7.84162 0 8.46775C3.55429 10.5867 7.77871 11.2822 11.8247 10.4147C11.6762 10.0022 11.1372 9.94168 10.7577 9.73269C10.2648 9.38297 9.92907 8.85362 9.82272 8.25872C9.41493 6.80922 9.29536 5.29381 9.47073 3.7983C9.54481 3.43539 9.54481 3.06123 9.47073 2.69832C9.25948 2.15384 8.85384 1.70702 8.33222 1.44435C7.47542 0.910032 6.55044 0.493779 5.58229 0.206851C4.58132 -0.0901488 4.00934 -0.227646 3.97084 0.93833C3.93029 2.91022 3.26174 4.8177 2.06241 6.38336L2.06244 6.38333Z" transform="translate(307.2378 233.9938)" id="Shape" fill="#A1616A" stroke="none" />
    <path d="M10.5268 17.3679L9.91085 13.463C9.81128 12.6773 9.64757 11.9011 9.42135 11.1421C9.05233 10.1566 8.58039 9.21267 8.01338 8.32614C7.81153 7.94549 7.55177 7.59853 7.24338 7.29767C6.89319 7.01767 6.48866 6.81351 6.05538 6.6982C4.93107 6.31368 3.704 6.3607 2.61245 6.83019C1.74896 7.24819 0.962481 8.04017 0 7.90268C0.0366234 7.27875 0.367275 6.7093 0.89098 6.36819C1.39918 6.03803 1.95588 5.78937 2.54095 5.63121C2.85444 5.53222 2.90392 4.99322 2.87643 4.66323C2.82692 4.05275 1.95245 3.92074 1.60596 3.42025C1.25946 2.91976 1.60596 2.10577 2.05695 1.6053C2.83367 0.716252 3.91444 0.14938 5.0874 0.0158276C6.27741 -0.10319 7.43351 0.455744 8.07934 1.4623C8.31308 1.94293 8.51338 2.43911 8.67888 2.94729C9.12064 3.88554 9.70712 4.74854 10.4168 5.50474C12.0668 7.44619 13.4472 9.54715 14.9377 11.6041C15.4364 12.2595 15.892 12.9466 16.3016 13.6611C16.9574 14.8792 17.3332 16.2283 17.4016 17.61C17.4507 18.0348 17.3882 18.4652 17.2201 18.8585C16.8736 19.4409 16.2478 19.7996 15.5702 19.8044C14.894 19.7877 14.226 19.6537 13.5957 19.4085L11.1978 18.5999C10.9059 18.5353 10.6387 18.3884 10.4278 18.1764C10.2473 17.9217 10.2902 17.5715 10.5268 17.3679L10.5268 17.3679Z" transform="translate(326.8442 226.6239)" id="Shape" fill="#A1616A" stroke="none" />
    <path d="M6.88964 17.3677L7.50012 13.4628C7.60418 12.6774 7.7697 11.9013 7.99512 11.1418C8.36188 10.1553 8.83392 9.21117 9.40307 8.32587C9.59978 7.94506 9.85809 7.59942 10.1676 7.30289C10.5157 7.01978 10.921 6.81528 11.3555 6.70341C12.4811 6.3173 13.7098 6.36238 14.804 6.82991C15.6674 7.24791 16.4539 8.0399 17.4164 7.9024C17.378 7.27903 17.0478 6.71027 16.5254 6.36794C16.0167 6.0387 15.4601 5.79011 14.8755 5.63094C14.562 5.53195 14.5125 4.99295 14.54 4.66295C14.5895 4.05247 15.4584 3.92047 15.8104 3.41997C16.1624 2.91948 15.8104 2.10549 15.3539 1.61051C14.5785 0.718973 13.4974 0.150002 12.3235 0.0155255C11.1337 -0.1022 9.97827 0.456416 9.33157 1.462C9.09972 1.94274 8.90123 2.43891 8.73761 2.94696C8.29414 3.88426 7.70787 4.74703 6.99964 5.5044C5.34969 7.44586 3.96923 9.54682 2.47328 11.6038C1.9757 12.2588 1.52192 12.946 1.11484 13.6607C0.461767 14.88 0.08617 16.2284 0.0148708 17.6097C-0.0319907 18.0368 0.0324606 18.4688 0.20188 18.8637C0.55559 19.4515 1.19329 19.8091 1.87933 19.8042C2.55392 19.79 3.22065 19.656 3.84828 19.4082L6.25171 18.6217C6.54241 18.5582 6.8082 18.411 7.01619 18.1982C7.20445 17.9325 7.14852 17.5653 6.88964 17.3677L6.88964 17.3677Z" transform="translate(282.5649 227.4873)" id="Shape" fill="#A1616A" stroke="none" />
    <path d="M7.98044 2.1778C8.66242 2.7278 9.26192 3.6243 8.94292 4.44379C8.67894 5.1093 7.92546 5.4228 7.22696 5.5878C6.51339 5.6688 5.83114 5.9258 5.24151 6.33578C5.0548 6.53804 4.8545 6.7273 4.64201 6.9023C4.2363 7.12516 3.76976 7.21194 3.31104 7.14977C2.47505 7.11677 1.66108 7.04527 0.808601 6.93526C0.63052 6.92785 0.457675 6.87276 0.30816 6.77578C0.104398 6.55402 0.00443106 6.25609 0.0331658 5.95628C-0.0331658 5.12303 6.71373e-05 4.28477 0.13216 3.45934C0.270966 2.63032 0.697422 1.87669 1.33664 1.33085C1.97461 0.83584 3.91058 -0.632645 4.63657 0.307863C4.82905 0.560874 4.75208 0.907376 5.02157 1.11634C5.29106 1.32531 5.71456 1.20983 6.02255 1.24834C6.75072 1.36425 7.43028 1.68685 7.98044 2.1778L7.98044 2.1778Z" transform="translate(325.0513 332.1113)" id="Shape" fill="#3F3D56" stroke="none" />
    <path d="M1.05055 2.15578C0.368579 2.70577 -0.230916 3.60224 0.0880831 4.4217C0.346559 5.08719 1.10007 5.40616 1.79852 5.56568C2.51232 5.64574 3.19476 5.90283 3.78395 6.31364C3.97173 6.52532 4.17388 6.72378 4.38895 6.90763C4.79398 7.12683 5.25759 7.21341 5.71443 7.15513C6.55041 7.12213 7.36437 7.05063 8.21684 6.93512C8.39505 6.92854 8.56813 6.87339 8.71731 6.77564C8.92305 6.5548 9.02506 6.25681 8.9978 5.95617C9.0595 5.12446 9.02442 4.28837 8.89331 3.46474C8.75806 2.63296 8.33107 1.87646 7.68884 1.33081C7.05635 0.835815 5.12043 -0.632626 4.38895 0.307854C4.19647 0.560858 4.27344 0.91282 3.99845 1.11631C3.72346 1.3198 3.31097 1.2098 2.99748 1.2483C2.2761 1.36169 1.60127 1.67623 1.05055 2.15578L1.05055 2.15578Z" transform="translate(294.8735 332.4192)" id="Shape" fill="#3F3D56" stroke="none" />
    <path d="M8.41103 1.07208C5.93058 8.22191 3.52164 15.6192 3.70865 23.2035C3.82963 27.7959 4.80862 32.8558 2.16319 36.6232C1.78585 37.0725 1.48655 37.5819 1.27772 38.1302C1.06872 38.8672 1.27772 39.6482 1.40971 40.4071C1.90471 43.7071 0.128232 46.93 0.00174556 50.2629C-0.0119168 51.2894 0.0542803 52.3154 0.199733 53.3318L0.887216 59.2056C1.1182 61.2186 3.71415 62.0435 5.71611 62.324C6.65751 61.2007 7.24845 59.8257 7.41559 58.3697C7.58608 57.2697 7.61357 56.1312 7.67957 55.0148C7.85006 52.1548 8.26255 49.3169 8.66954 46.4845L9.21953 42.838C9.39552 41.6391 9.56602 40.4401 9.76951 39.2411C10.7967 32.7669 12.3849 26.3943 14.5159 20.1952C14.9833 18.8587 15.7808 17.3022 17.1888 17.2637L18.0303 18.8807C19.1303 20.9321 19.7958 23.2201 20.6317 25.3815C21.7317 28.225 21.3522 31.5359 22.8317 34.2143C23.0737 34.6543 23.3816 35.0778 23.5576 35.5398C23.8155 36.2469 23.9674 36.9882 24.0086 37.7397L24.9821 47.5735C25.4221 52.0009 25.8896 56.5493 27.8861 60.5257C28.0837 61.0009 28.3999 61.4175 28.8045 61.7356C29.6185 62.2856 30.757 62.0051 31.5545 61.4332C32.836 60.4904 33.5524 58.9623 33.4574 57.3743C33.3925 56.943 33.3741 56.506 33.4025 56.0708C33.519 55.6325 33.6698 55.204 33.8534 54.7893C34.4914 52.8533 33.144 50.8844 32.6655 48.9044C32.033 46.2645 32.9735 43.5036 32.8085 40.7921C32.5445 36.5352 29.5691 32.5423 30.3555 28.3569C30.988 25.0075 30.449 21.5646 29.8551 18.2097L27.6276 5.72498C27.2756 3.75602 26.7477 1.53408 24.9932 0.571605C23.9877 0.12135 22.8848 -0.067842 21.7867 0.0216181C17.2383 0.0216181 12.8934 0.654083 8.41103 1.07208L8.41103 1.07208Z" transform="translate(296.7769 274.5331)" id="Shape" fill="#3F3D56" stroke="none" />
    <path d="M62.3521 3.77096C60.7505 3.93225 59.1379 3.59825 57.7322 2.81399C57.1981 2.45903 56.6285 2.16044 56.0327 1.92301C54.9327 1.5655 53.7228 1.879 52.5678 2.04949C50.6718 2.32409 48.739 2.19287 46.8975 1.6645C44.9725 1.11451 43.0476 0.119034 41.0676 0.564523C40.1381 0.768015 39.2967 1.2795 38.3562 1.42801C37.6213 1.50236 36.8793 1.46339 36.1562 1.31253L29.8864 0.333537C28.4714 0.0502857 27.0263 -0.0531726 25.5854 0.0255121C24.4947 0.228635 23.3927 0.366401 22.2855 0.438003C21.125 0.438003 19.981 -0.00198055 18.8206 0.0750257C18.1349 0.15314 17.4599 0.306212 16.8076 0.531525C13.7954 1.41156 10.6669 1.82882 7.52933 1.769C5.02753 1.93291 2.6163 2.76897 0.549987 4.18895C0.261331 4.34844 0.0594499 4.62904 0 4.95344C0.0368247 5.25459 0.193422 5.5282 0.434478 5.71243C1.27047 6.5594 2.15594 7.42839 3.28891 7.7914C3.99194 7.95682 4.70467 8.07807 5.42286 8.15437C7.15534 8.47338 8.75578 9.46885 10.5157 9.46885C11.7312 9.46885 12.9247 8.98486 14.1237 9.15536C15.7736 9.38084 16.9561 10.7118 17.9736 12.0098C18.829 13.0237 19.4741 14.1979 19.871 15.4637C20.256 16.9927 20.014 18.7087 20.8335 20.0561C21.0392 20.3311 21.1989 20.6375 21.3065 20.9636C21.3241 21.481 21.2085 21.9942 20.971 22.4541C20.278 24.5716 21.796 26.81 21.6365 29.054C21.5595 30.1154 21.0865 31.1274 21.037 32.1889C20.96 33.5694 21.5155 35.1038 20.7455 36.2478C23.7166 34.7508 27.0182 34.0299 30.3428 34.1523C30.8957 34.1656 31.447 34.2171 31.9928 34.3063C33.0532 34.5224 34.0971 34.8128 35.1167 35.1753C37.4157 35.9067 39.9456 36.4292 42.2116 35.5933C42.7616 34.2568 42.6681 32.7828 42.4976 31.3528C42.3271 29.9228 41.9751 28.5149 41.7606 27.0904C41.5939 25.9461 41.4983 24.7926 41.4746 23.6365C41.4146 22.4961 41.4959 21.3526 41.7165 20.2321C41.9686 19.2485 42.313 18.2909 42.745 17.3721C43.8063 14.7003 45.0943 12.1243 46.5949 9.67228C48.8499 9.49077 51.0333 9.29829 53.2883 9.12229C53.8265 9.09248 54.3616 9.02078 54.8887 8.90779C55.5602 8.67838 56.2431 8.48378 56.9347 8.32483C57.1938 8.31023 57.4493 8.25837 57.6937 8.17082C58.1887 7.94534 58.4967 7.31835 59.0356 7.30183C59.2402 7.32644 59.447 7.32644 59.6516 7.30183C59.8936 7.23033 60.0091 6.96084 60.2016 6.75185C60.5426 6.37235 61.0981 6.29535 61.5436 6.05335C62.3143 5.57577 62.6503 4.62722 62.3521 3.77096L62.3521 3.77096Z" transform="translate(282.543 241.4073)" id="Shape" fill="#1E9566" stroke="none" />
    <path d="M8.89657 10.4399C9.2562 10.7227 9.75338 10.7534 10.1451 10.5169C10.3852 10.2908 10.547 9.99415 10.6071 9.66988C10.8048 8.98255 10.9645 8.28485 11.0856 7.57994C11.1175 7.27293 11.211 6.97549 11.3606 6.70549C11.762 6.0895 12.631 6.05651 13.3075 5.77601C14.1437 5.32384 14.8356 4.64529 15.304 3.81806L14.9245 3.74105L15.282 3.19107C15.1099 3.08682 14.997 2.90745 14.9775 2.70715C14.958 2.50684 15.0342 2.30907 15.183 2.17359C14.8622 2.00258 14.5013 1.92091 14.138 1.9371C14.2536 1.7281 14.0665 1.46412 13.8411 1.38712C13.6079 1.33837 13.3686 1.3254 13.1316 1.34861C12.7803 1.31978 12.4355 1.23821 12.1086 1.10662C9.76564 0.303644 7.22468 -0.405843 4.83774 0.270646C3.78304 0.596612 2.79695 1.11295 1.92826 1.79412C0.183487 2.77442 -0.494267 4.94511 0.382785 6.74399C0.743146 7.63787 1.00146 8.56958 1.15279 9.52143C1.18844 10.415 1.0883 11.3088 0.855837 12.1724C1.50717 12.3815 2.18107 12.5126 2.86332 12.5629C3.55007 12.6154 4.23296 12.4204 4.78829 12.0129C5.33828 11.5399 5.64627 10.8084 6.09727 10.2144C6.44914 9.68214 7.04878 9.36676 7.68675 9.37844C8.29707 9.4719 8.40707 10.0934 8.89657 10.4399L8.89657 10.4399Z" transform="translate(308.8213 224.6552)" id="Shape" fill="#3F3D56" stroke="none" />
    <path d="M117.201 0L110.761 0C110.368 0.0789867 110.085 0.424172 110.085 0.82498C110.085 1.22579 110.368 1.57097 110.761 1.64996L112.048 1.64996L112.048 12.5782L90.01 12.5782C89.9062 12.4041 89.7229 12.2928 89.5205 12.2812L83.0856 12.2812C82.6927 12.3602 82.41 12.7054 82.41 13.1062C82.41 13.507 82.6927 13.8522 83.0856 13.9312L84.3726 13.9312L84.3726 25.1564L63.0937 25.1564C63.0545 24.8419 62.8038 24.5957 62.4887 24.5624L56.0593 24.5624C55.6552 24.6286 55.3585 24.9778 55.3585 25.3874C55.3585 25.7969 55.6552 26.1461 56.0593 26.2124L56.7028 26.2124L56.7028 37.7621L35.0718 37.7621C34.9913 37.7164 34.9005 37.6918 34.8078 37.6906L28.373 37.6906C27.98 37.7696 27.6973 38.1147 27.6973 38.5156C27.6973 38.9164 27.98 39.2615 28.373 39.3405L29.0165 39.3405L29.0165 50.3403L7.6605 50.3403C7.56601 50.1188 7.35117 49.9727 7.11052 49.9663L0.675667 49.9663C0.282697 50.0453 0 50.3905 0 50.7913C0 51.1921 0.282697 51.5373 0.675667 51.6162L1.31916 51.6162L1.31916 63.7985L146.807 63.7985L146.807 0L117.201 0Z" transform="translate(184.2285 338.7053)" id="Shape" fill="#3F3D56" stroke="none" />
    <path d="M20.1504 17.7006C19.5149 16.8621 18.7943 16.0916 18 15.4017C17.5627 15.0214 17.3291 14.458 17.3691 13.8798C17.4091 13.3017 17.718 12.7757 18.2035 12.4593C18.4675 12.2888 18.7259 12.1073 18.9844 11.9093C21.9873 9.62682 23.5053 6.56338 22.3668 5.06191C21.2284 3.56044 17.868 4.19842 14.8651 6.48087C14.518 6.73884 14.1856 7.01612 13.8696 7.31137C13.4414 7.69642 12.8578 7.85915 12.2922 7.75121C11.7266 7.64325 11.2439 7.27707 10.9877 6.76139C10.5658 5.93414 10.0706 5.14633 9.50819 4.40741C6.83528 0.887487 3.24939 -0.88898 1.49495 0.441998C-0.259491 1.77298 0.477475 5.71087 3.1449 9.2418C3.66645 9.93166 4.24604 10.5757 4.87734 11.1667C5.30043 11.5785 5.50275 12.1668 5.42245 12.7518C5.34214 13.3367 4.98876 13.8487 4.47035 14.1312L4.47035 14.1312C1.17045 16.0176 -0.693991 18.8611 0.240978 20.4946C1.17595 22.128 4.59684 21.9245 7.86924 20.0436C8.37629 19.7492 8.86486 19.4241 9.33219 19.0701C9.77792 18.7309 10.3528 18.6108 10.8971 18.7431C11.4413 18.8754 11.8969 19.2461 12.1371 19.7521C12.5833 20.7271 13.1367 21.6494 13.7871 22.502C16.4545 26.0219 20.0459 27.7984 21.8003 26.4674C23.5547 25.1364 22.8178 21.226 20.1504 17.7006L20.1504 17.7006Z" transform="translate(74.22461 110.4175)" id="Shape" fill="#1E9566" stroke="none" />
    <path d="M8.98625 23.2611C9.6066 22.4116 10.1357 21.4991 10.5648 20.5387C10.7988 20.0096 11.2685 19.6217 11.8323 19.4918C12.3962 19.3619 12.9882 19.5053 13.4302 19.8787C13.6722 20.0767 13.9252 20.2692 14.1837 20.4617C17.2416 22.6616 20.6186 23.2116 21.7186 21.6992C17.81 14.6741 21.2346 17.1453 18.1766 14.9344C18.1766 14.9344 17.4433 14.4376 17.0766 14.2249C16.5839 13.9257 16.2596 13.4132 16.2002 12.8398C16.1408 12.2664 16.3532 11.6983 16.7742 11.3045C17.4431 10.662 18.0506 9.95867 18.5891 9.20355C21.1796 5.62316 21.8286 1.67428 20.0466 0.403826C18.2646 -0.866632 14.7117 0.953809 12.1213 4.55619C11.6156 5.2512 11.1686 5.98704 10.7848 6.75612C10.5149 7.28109 10.0116 7.64665 9.42889 7.74104C8.84617 7.83546 8.25324 7.64749 7.83135 7.2346L7.83135 7.2346C5.0814 4.65518 1.78146 3.67621 0.510983 5.03467C-0.759493 6.39313 0.417494 9.61602 3.17295 12.1844C3.60112 12.5805 4.05493 12.948 4.53141 13.2844C4.98499 13.6128 5.26636 14.1282 5.29728 14.6874C5.32823 15.2465 5.10547 15.7898 4.69086 16.1663C3.88397 16.8894 3.15912 17.6991 2.5294 18.5807C-0.0610615 22.1611 -0.710046 26.11 1.07742 27.3804C2.86489 28.6509 6.39578 26.847 8.98625 23.2611L8.98625 23.2611Z" transform="translate(475.2251 199.8617)" id="Shape" fill="#1E9566" stroke="none" />
    <path d="M0 3.57494C0 1.60055 8.32281 0 18.5895 0C28.8562 0 37.179 1.60055 37.179 3.57494C37.179 5.54932 28.8562 7.14987 18.5895 7.14987C8.32281 7.14987 0 5.54932 0 3.57494Z" transform="translate(467.9268 401.228)" id="Ellipse" fill="#1E9566" stroke="none" />
    <path d="M0 2.83244C0 1.26813 0.970182 0 2.16696 0C3.36374 0 4.33392 1.26813 4.33392 2.83244C4.33392 4.39676 3.36374 5.66489 2.16696 5.66489C0.970182 5.66489 0 4.39676 0 2.83244Z" transform="translate(484.0415 400.4524)" id="Ellipse" fill="#3F3D56" stroke="none" />
    <path d="M0 2.83223C0 1.26803 0.970182 0 2.16696 0C3.36374 0 4.33392 1.26803 4.33392 2.83223C4.33392 4.39643 3.36374 5.66446 2.16696 5.66446C0.970182 5.66446 0 4.39643 0 2.83223Z" transform="translate(484.0415 396.9878)" id="Ellipse" fill="#3F3D56" stroke="none" />
    <path d="M0 2.83238C0 1.2681 0.970182 0 2.16696 0C3.36374 0 4.33392 1.2681 4.33392 2.83238C4.33392 4.39666 3.36374 5.66476 2.16696 5.66476C0.970182 5.66476 0 4.39666 0 2.83238Z" transform="translate(484.0415 393.5283)" id="Ellipse" fill="#3F3D56" stroke="none" />
    <path d="M0 2.8326C0 1.2682 0.970182 0 2.16696 0C3.36374 0 4.33392 1.2682 4.33392 2.8326C4.33392 4.397 3.36374 5.66519 2.16696 5.66519C0.970182 5.66519 0 4.397 0 2.8326Z" transform="translate(484.0415 390.063)" id="Ellipse" fill="#3F3D56" stroke="none" />
    <path d="M0 2.83243C0 1.26812 0.970182 0 2.16696 0C3.36374 0 4.33392 1.26812 4.33392 2.83243C4.33392 4.39673 3.36374 5.66486 2.16696 5.66486C0.970182 5.66486 0 4.39673 0 2.83243Z" transform="translate(484.0415 386.5984)" id="Ellipse" fill="#3F3D56" stroke="none" />
    <path d="M0 2.8324C0 1.26811 0.970182 0 2.16696 0C3.36374 0 4.33392 1.26811 4.33392 2.8324C4.33392 4.39669 3.36374 5.66479 2.16696 5.66479C0.970182 5.66479 0 4.39669 0 2.8324Z" transform="translate(484.0415 383.139)" id="Ellipse" fill="#3F3D56" stroke="none" />
    <path d="M0 2.83241C0 1.26811 0.970182 0 2.16696 0C3.36374 0 4.33392 1.26811 4.33392 2.83241C4.33392 4.39671 3.36374 5.66483 2.16696 5.66483C0.970182 5.66483 0 4.39671 0 2.83241Z" transform="translate(484.0415 379.6738)" id="Ellipse" fill="#3F3D56" stroke="none" />
    <path d="M18.5347 16.7447C18.828 16.3666 19.0962 15.9698 19.3377 15.5567L13.6563 14.6217L19.8052 14.6712C21.0011 12.0767 21.0727 9.10357 20.0032 6.45444L11.7534 10.7333L19.3652 5.14C17.4139 1.79799 13.7637 -0.178987 9.89854 0.0127896C6.03337 0.204566 2.59676 2.53314 0.985873 6.05186C-0.624978 9.57057 -0.141961 13.6936 2.23862 16.7447C1.77906 17.332 1.38269 17.9661 1.05613 18.6366L8.44244 22.4865L0.566636 19.8466C-0.558983 23.1622 0.0612961 26.8218 2.21659 29.5813C-1.12434 33.8319 -0.638036 39.9362 3.33375 43.6042C7.30555 47.2721 13.4292 47.2721 17.401 43.6042C21.3728 39.9362 21.8591 33.8319 18.5182 29.5813C21.4732 25.8188 21.4732 20.5237 18.5182 16.7611L18.5347 16.7447Z" transform="translate(476.3413 342.0757)" id="Shape" fill="#1E9566" stroke="none" />
    <path d="M0.0166163 0.15203C0.00966769 2.47599 0.784526 4.73466 2.21659 6.56487C-1.12434 10.8154 -0.638034 16.9197 3.33374 20.5876C7.30552 24.2555 13.4292 24.2555 17.401 20.5876C21.3727 16.9197 21.859 10.8154 18.5181 6.56487C19.9205 4.79938 0.0166163 -1.00842 0.0166163 0.15203L0.0166163 0.15203Z" transform="translate(475.7915 365.2151)" id="Shape" fill="#000000" stroke="none" />
    <path d="M0 1.61688C0 0.723903 3.76747 0 8.41487 0C13.0623 0 16.8297 0.723903 16.8297 1.61688C16.8297 2.50986 13.0623 3.23376 8.41487 3.23376C3.76747 3.23376 0 2.50986 0 1.61688Z" transform="translate(139.3105 404.0386)" id="Ellipse" fill="#1E9566" stroke="none" />
    <path d="M0 1.28139C0 0.573697 0.438298 0 0.978966 0C1.51963 0 1.95793 0.573697 1.95793 1.28139C1.95793 1.98908 1.51963 2.56277 0.978966 2.56277C0.438298 2.56277 0 1.98908 0 1.28139Z" transform="translate(146.6084 403.6865)" id="Ellipse" fill="#3F3D56" stroke="none" />
    <path d="M0 1.28145C0 0.573724 0.438298 0 0.978966 0C1.51963 0 1.95793 0.573724 1.95793 1.28145C1.95793 1.98917 1.51963 2.5629 0.978966 2.5629C0.438298 2.5629 0 1.98917 0 1.28145Z" transform="translate(146.6084 402.1189)" id="Ellipse" fill="#3F3D56" stroke="none" />
    <path d="M0 1.28146C0 0.573731 0.438298 0 0.978966 0C1.51963 0 1.95793 0.573731 1.95793 1.28146C1.95793 1.9892 1.51963 2.56293 0.978966 2.56293C0.438298 2.56293 0 1.9892 0 1.28146Z" transform="translate(146.6084 400.5513)" id="Ellipse" fill="#3F3D56" stroke="none" />
    <path d="M0 1.28151C0 0.573751 0.438298 0 0.978966 0C1.51963 0 1.95793 0.573751 1.95793 1.28151C1.95793 1.98927 1.51963 2.56302 0.978966 2.56302C0.438298 2.56302 0 1.98927 0 1.28151Z" transform="translate(146.6084 398.9839)" id="Ellipse" fill="#3F3D56" stroke="none" />
    <path d="M0 1.2814C0 0.573703 0.438298 0 0.978966 0C1.51963 0 1.95793 0.573703 1.95793 1.2814C1.95793 1.9891 1.51963 2.56281 0.978966 2.56281C0.438298 2.56281 0 1.9891 0 1.2814Z" transform="translate(146.6084 397.4165)" id="Ellipse" fill="#3F3D56" stroke="none" />
    <path d="M0 1.28136C0 0.573683 0.438298 0 0.978966 0C1.51963 0 1.95793 0.573683 1.95793 1.28136C1.95793 1.98903 1.51963 2.56271 0.978966 2.56271C0.438298 2.56271 0 1.98903 0 1.28136Z" transform="translate(146.6084 395.8491)" id="Ellipse" fill="#3F3D56" stroke="none" />
    <path d="M0 1.28152C0 0.573758 0.438298 0 0.978966 0C1.51963 0 1.95793 0.573758 1.95793 1.28152C1.95793 1.98929 1.51963 2.56305 0.978966 2.56305C0.438298 2.56305 0 1.98929 0 1.28152Z" transform="translate(146.6084 394.2817)" id="Ellipse" fill="#3F3D56" stroke="none" />
    <path d="M8.40137 7.61165C8.53771 7.43773 8.6609 7.25387 8.76988 7.06166L6.19589 6.63816L8.97888 6.63816C9.26187 6.02227 9.40822 5.35248 9.40788 4.6747C9.40906 4.07308 9.29321 3.4772 9.0668 2.92003L5.3323 4.856L8.7753 2.32607C7.89226 0.813569 6.2402 -0.0811353 4.4909 0.00580737C2.7416 0.0927165 1.18639 1.1468 0.45765 2.73943C-0.271106 4.33203 -0.0520156 6.19797 1.02583 7.57848C0.81236 7.84206 0.627964 8.12786 0.475828 8.43099L3.81433 10.1689L0.250326 8.96997C-0.254522 10.4708 0.0308334 12.1249 1.00933 13.3699C-0.508995 15.2946 -0.29165 18.0633 1.5084 19.7275C3.30844 21.3918 6.08569 21.3918 7.88575 19.7275C9.68578 18.0633 9.90313 15.2946 8.38481 13.3699C9.72634 11.6683 9.72634 9.269 8.38481 7.56747L8.40137 7.61165Z" transform="translate(143.0996 377.2271)" id="Shape" fill="#1E9566" stroke="none" />
    <path d="M0.00397791 0.0689835C0.00345759 1.12062 0.357576 2.14369 1.0093 2.97146C-0.508988 4.89618 -0.291646 7.66489 1.50838 9.32912C3.3084 10.9934 6.08562 10.9934 7.88565 9.32912C9.68566 7.66489 9.903 4.89618 8.3847 2.97146C9.01836 2.19193 0.00397791 -0.459017 0.00397791 0.0689835L0.00397791 0.0689835Z" transform="translate(142.8687 387.7312)" id="Shape" fill="#000000" stroke="none" />
  </g>
</svg>