<?xml version="1.0" encoding="utf-8"?>
<svg width="874px" height="473px" viewBox="0 0 874 473" version="1.1" xmlns:xlink="http://www.w3.org/1999/xlink" xmlns="http://www.w3.org/2000/svg">
  <desc>Created with Lunacy</desc>
  <g id="undraw_developer_activity_bv83" transform="translate(0.5 0.5)">
    <path d="M0 0L872.977 0L872.977 471.072L0 471.072L0 0Z" transform="translate(0.0004882813 0)" id="Background" fill="none" stroke="none" />
    <path d="M872.978 302.329C872.986 315.144 871.226 327.881 867.745 340.196C864.383 352.068 859.437 363.434 853.041 373.985C853.041 412.216 827.233 445.258 789.773 460.978C774.119 467.481 757.328 470.801 740.378 470.745L165.721 470.745C135.007 470.745 106.543 462.458 83.2003 448.341C76.5191 444.314 70.1816 439.742 64.2526 434.672C38.3075 412.375 22.2215 381.561 22.2215 347.527C7.66034 325.105 -0.0606543 298.93 0.000359504 272.195C0.000359504 216.214 33.1109 168.079 80.5447 146.826C102.367 139.226 93.3519 141.679 100.011 139.867C100.011 139.867 104.747 138.651 107.154 138.143C128.986 135.324 120.075 135.884 126.62 135.472C126.62 135.472 131.364 135.24 133.755 135.22C133.755 135.22 135.068 135.22 135.068 135.22C137.708 135.22 140.325 135.311 142.927 135.464L143.782 134.014C144.83 132.264 145.904 130.532 147.002 128.818C148.986 125.694 151.067 122.616 153.244 119.584C155.524 116.384 157.902 113.235 160.379 110.137C160.379 110.137 161.013 109.374 161.013 109.374C162.417 107.624 163.851 105.894 165.317 104.185C169.895 98.8484 174.728 93.6721 179.815 88.656C234.842 34.7207 321.048 0 417.961 0C493.37 0 562.3 21.0232 615.098 55.7591C635.1 44.4398 657.696 38.5005 680.678 38.5208C755.263 38.5208 815.746 99.8505 815.746 175.503C815.734 180.293 815.48 185.077 814.982 189.838C851.467 215.664 873.102 257.629 872.978 302.329L872.978 302.329Z" transform="translate(0 0.03057861)" id="Shape" fill="#E9FAF3" stroke="none" />
    <path d="M14.4986 0L14.4986 15.5289L0 15.5289C4.5429 10.1975 9.37578 5.02116 14.4986 0C14.4986 0 14.4986 0 14.4986 0Z" transform="translate(165.332 88.65601)" id="Shape" fill="#D0DCD7" stroke="none" />
    <path d="M0 0L19.4665 0L19.4665 19.4665L0 19.4665L0 0Z" transform="translate(186.9731 84.71844)" id="Rectangle" fill="#D0DCD7" stroke="none" />
    <path d="M0 0L19.4665 0L19.4665 19.4665L0 19.4665L0 0Z" transform="translate(213.5742 84.71844)" id="Rectangle" fill="#D0DCD7" stroke="none" />
    <path d="M0 0L19.4666 0L19.4666 19.4665L0 19.4665L0 0Z" transform="translate(240.1836 84.71844)" id="Rectangle" fill="#D0DCD7" stroke="none" />
    <path d="M0 0L19.4665 0L19.4665 19.4665L0 19.4665L0 0Z" transform="translate(266.7847 84.71844)" id="Rectangle" fill="#D0DCD7" stroke="none" />
    <path d="M0 0L19.4665 0L19.4665 19.4665L0 19.4665L0 0Z" transform="translate(293.394 84.71844)" id="Rectangle" fill="#D0DCD7" stroke="none" />
    <path d="M0 0L19.4665 0L19.4665 19.4665L0 19.4665L0 0Z" transform="translate(320.0029 84.71844)" id="Rectangle" fill="#D0DCD7" stroke="none" />
    <path d="M0 0L19.4665 0L19.4665 19.4665L0 19.4665L0 0Z" transform="translate(346.6045 84.71844)" id="Rectangle" fill="#D0DCD7" stroke="none" />
    <path d="M0 0L19.4665 0L19.4665 19.4665L0 19.4665L0 0Z" transform="translate(373.2134 84.71844)" id="Rectangle" fill="#D0DCD7" stroke="none" />
    <path d="M0 0L19.4664 0L19.4664 19.4665L0 19.4665L0 0Z" transform="translate(399.8149 84.71844)" id="Rectangle" fill="#D0DCD7" stroke="none" />
    <path d="M0 0L19.4665 0L19.4665 19.4665L0 19.4665L0 0Z" transform="translate(426.4238 84.71844)" id="Rectangle" fill="#D0DCD7" stroke="none" />
    <path d="M0 0L19.4664 0L19.4664 19.4665L0 19.4665L0 0Z" transform="translate(453.0327 84.71844)" id="Rectangle" fill="#D0DCD7" stroke="none" />
    <path d="M0 0L19.4663 0L19.4663 19.4665L0 19.4665L0 0Z" transform="translate(479.6343 84.71844)" id="Rectangle" fill="#D0DCD7" stroke="none" />
    <path d="M0 0L19.4663 0L19.4663 19.4665L0 19.4665L0 0Z" transform="translate(506.2432 84.71844)" id="Rectangle" fill="#D0DCD7" stroke="none" />
    <path d="M0 0L19.4664 0L19.4664 19.4665L0 19.4665L0 0Z" transform="translate(532.8521 84.71844)" id="Rectangle" fill="#D0DCD7" stroke="none" />
    <path d="M0 0L19.4664 0L19.4664 19.4665L0 19.4665L0 0Z" transform="translate(559.4536 84.71844)" id="Rectangle" fill="#D0DCD7" stroke="none" />
    <path d="M0 0L19.4665 0L19.4665 19.4665L0 19.4665L0 0Z" transform="translate(586.0625 84.71844)" id="Rectangle" fill="#D0DCD7" stroke="none" />
    <path d="M0 0L19.4664 0L19.4664 19.4665L0 19.4665L0 0Z" transform="translate(612.6641 84.71844)" id="Rectangle" fill="#D0DCD7" stroke="none" />
    <path d="M0 0L19.4664 0L19.4664 19.4665L0 19.4665L0 0Z" transform="translate(639.2729 84.71844)" id="Rectangle" fill="#D0DCD7" stroke="none" />
    <path d="M0 0L19.4664 0L19.4664 19.4665L0 19.4665L0 0Z" transform="translate(665.8818 84.71844)" id="Rectangle" fill="#D0DCD7" stroke="none" />
    <path d="M0 0L19.4663 0L19.4663 19.4665L0 19.4665L0 0Z" transform="translate(692.4834 84.71844)" id="Rectangle" fill="#D0DCD7" stroke="none" />
    <path d="M0 0L19.4666 0L19.4666 19.4665L0 19.4665L0 0Z" transform="translate(719.0923 84.71844)" id="Rectangle" fill="#D0DCD7" stroke="none" />
    <path d="M0 0L19.4665 0L19.4665 19.4665L0 19.4665L0 0Z" transform="translate(745.6938 84.71844)" id="Rectangle" fill="#D0DCD7" stroke="none" />
    <path d="M6.24216 0L6.24216 9.23343L0 9.23343C1.98406 6.08949 4.06478 3.01169 6.24216 0C6.24216 0 6.24216 0 6.24216 0Z" transform="translate(146.9868 119.607)" id="Shape" fill="#D0DCD7" stroke="none" />
    <path d="M0 0L19.4664 0L19.4664 19.4665L0 19.4665L0 0Z" transform="translate(160.3643 109.374)" id="Rectangle" fill="#D0DCD7" stroke="none" />
    <path d="M0 0L19.4665 0L19.4665 19.4665L0 19.4665L0 0Z" transform="translate(186.9731 109.374)" id="Rectangle" fill="#D0DCD7" stroke="none" />
    <path d="M0 0L19.4665 0L19.4665 19.4665L0 19.4665L0 0Z" transform="translate(213.5742 109.374)" id="Rectangle" fill="#D0DCD7" stroke="none" />
    <path d="M0 0L19.4666 0L19.4666 19.4665L0 19.4665L0 0Z" transform="translate(240.1836 109.374)" id="Rectangle" fill="#D0DCD7" stroke="none" />
    <path d="M0 0L19.4665 0L19.4665 19.4665L0 19.4665L0 0Z" transform="translate(266.7847 109.374)" id="Rectangle" fill="#D0DCD7" stroke="none" />
    <path d="M0 0L19.4665 0L19.4665 19.4665L0 19.4665L0 0Z" transform="translate(293.394 109.374)" id="Rectangle" fill="#D0DCD7" stroke="none" />
    <path d="M0 0L19.4665 0L19.4665 19.4665L0 19.4665L0 0Z" transform="translate(320.0029 109.374)" id="Rectangle" fill="#D0DCD7" stroke="none" />
    <path d="M0 0L19.4665 0L19.4665 19.4665L0 19.4665L0 0Z" transform="translate(346.6045 109.374)" id="Rectangle" fill="#D0DCD7" stroke="none" />
    <path d="M0 0L19.4665 0L19.4665 19.4665L0 19.4665L0 0Z" transform="translate(373.2134 109.374)" id="Rectangle" fill="#D0DCD7" stroke="none" />
    <path d="M0 0L19.4664 0L19.4664 19.4665L0 19.4665L0 0Z" transform="translate(399.8149 109.374)" id="Rectangle" fill="#D0DCD7" stroke="none" />
    <path d="M0 0L19.4665 0L19.4665 19.4665L0 19.4665L0 0Z" transform="translate(426.4238 109.374)" id="Rectangle" fill="#D0DCD7" stroke="none" />
    <path d="M0 0L19.4664 0L19.4664 19.4665L0 19.4665L0 0Z" transform="translate(453.0327 109.374)" id="Rectangle" fill="#D0DCD7" stroke="none" />
    <path d="M0 0L19.4663 0L19.4663 19.4665L0 19.4665L0 0Z" transform="translate(479.6343 109.374)" id="Rectangle" fill="#D0DCD7" stroke="none" />
    <path d="M0 0L19.4663 0L19.4663 19.4665L0 19.4665L0 0Z" transform="translate(506.2432 109.374)" id="Rectangle" fill="#D0DCD7" stroke="none" />
    <path d="M0 0L19.4664 0L19.4664 19.4665L0 19.4665L0 0Z" transform="translate(532.8521 109.374)" id="Rectangle" fill="#D0DCD7" stroke="none" />
    <path d="M0 0L19.4664 0L19.4664 19.4665L0 19.4665L0 0Z" transform="translate(559.4536 109.374)" id="Rectangle" fill="#D0DCD7" stroke="none" />
    <path d="M0 0L19.4665 0L19.4665 19.4665L0 19.4665L0 0Z" transform="translate(586.0625 109.374)" id="Rectangle" fill="#D0DCD7" stroke="none" />
    <path d="M0 0L19.4664 0L19.4664 19.4665L0 19.4665L0 0Z" transform="translate(612.6641 109.374)" id="Rectangle" fill="#D0DCD7" stroke="none" />
    <path d="M0 0L19.4664 0L19.4664 19.4665L0 19.4665L0 0Z" transform="translate(639.2729 109.374)" id="Rectangle" fill="#D0DCD7" stroke="none" />
    <path d="M0 0L19.4664 0L19.4664 19.4665L0 19.4665L0 0Z" transform="translate(665.8818 109.374)" id="Rectangle" fill="#D0DCD7" stroke="none" />
    <path d="M0 0L19.4663 0L19.4663 19.4665L0 19.4665L0 0Z" transform="translate(692.4834 109.374)" id="Rectangle" fill="#D0DCD7" stroke="none" />
    <path d="M0 0L19.4666 0L19.4666 19.4665L0 19.4665L0 0Z" transform="translate(719.0923 109.374)" id="Rectangle" fill="#D0DCD7" stroke="none" />
    <path d="M0 0L19.4665 0L19.4665 19.4665L0 19.4665L0 0Z" transform="translate(745.6938 109.374)" id="Rectangle" fill="#D0DCD7" stroke="none" />
    <path d="M19.4664 2.32877e-05L19.4664 13.6059L0 13.6059L0 6.95941C6.29869 4.13871 12.8071 1.81192 19.4665 0L19.4664 2.32877e-05Z" transform="translate(80.54492 139.8976)" id="Shape" fill="#D0DCD7" stroke="none" />
    <path d="M19.4666 0L19.4666 18.0013L0 18.0013L0 2.67082L19.4666 0L19.4666 0Z" transform="translate(107.1538 135.5023)" id="Polygon" fill="#D0DCD7" stroke="none" />
    <path d="M0 0L19.4664 0L19.4664 19.4665L0 19.4665L0 0Z" transform="translate(133.7554 134.0371)" id="Rectangle" fill="#D0DCD7" stroke="none" />
    <path d="M0 0L19.4664 0L19.4664 19.4665L0 19.4665L0 0Z" transform="translate(160.3643 134.0371)" id="Rectangle" fill="#53AA86" stroke="none" />
    <path d="M0 0L19.4665 0L19.4665 19.4665L0 19.4665L0 0Z" transform="translate(186.9731 134.0371)" id="Rectangle" fill="#D0DCD7" stroke="none" />
    <path d="M0 0L19.4665 0L19.4665 19.4665L0 19.4665L0 0Z" transform="translate(213.5742 134.0371)" id="Rectangle" fill="#53AA86" stroke="none" />
    <path d="M0 0L19.4666 0L19.4666 19.4665L0 19.4665L0 0Z" transform="translate(240.1836 134.0371)" id="Rectangle" fill="#D0DCD7" stroke="none" />
    <path d="M0 0L19.4665 0L19.4665 19.4665L0 19.4665L0 0Z" transform="translate(266.7847 134.0371)" id="Rectangle" fill="#D0DCD7" stroke="none" />
    <path d="M0 0L19.4665 0L19.4665 19.4665L0 19.4665L0 0Z" transform="translate(293.394 134.0371)" id="Rectangle" fill="#D0DCD7" stroke="none" />
    <path d="M0 0L19.4665 0L19.4665 19.4665L0 19.4665L0 0Z" transform="translate(320.0029 134.0371)" id="Rectangle" fill="#D0DCD7" stroke="none" />
    <path d="M0 0L19.4665 0L19.4665 19.4665L0 19.4665L0 0Z" transform="translate(346.6045 134.0371)" id="Rectangle" fill="#D0DCD7" stroke="none" />
    <path d="M0 0L19.4665 0L19.4665 19.4665L0 19.4665L0 0Z" transform="translate(373.2134 134.0371)" id="Rectangle" fill="#53AA86" stroke="none" />
    <path d="M0 0L19.4664 0L19.4664 19.4665L0 19.4665L0 0Z" transform="translate(399.8149 134.0371)" id="Rectangle" fill="#D0DCD7" stroke="none" />
    <path d="M0 0L19.4665 0L19.4665 19.4665L0 19.4665L0 0Z" transform="translate(426.4238 134.0371)" id="Rectangle" fill="#D0DCD7" stroke="none" />
    <path d="M0 0L19.4664 0L19.4664 19.4665L0 19.4665L0 0Z" transform="translate(453.0327 134.0371)" id="Rectangle" fill="#53AA86" stroke="none" />
    <path d="M0 0L19.4663 0L19.4663 19.4665L0 19.4665L0 0Z" transform="translate(479.6343 134.0371)" id="Rectangle" fill="#D0DCD7" stroke="none" />
    <path d="M0 0L19.4663 0L19.4663 19.4665L0 19.4665L0 0Z" transform="translate(506.2432 134.0371)" id="Rectangle" fill="#D0DCD7" stroke="none" />
    <path d="M0 0L19.4664 0L19.4664 19.4665L0 19.4665L0 0Z" transform="translate(532.8521 134.0371)" id="Rectangle" fill="#D0DCD7" stroke="none" />
    <path d="M0 0L19.4664 0L19.4664 19.4665L0 19.4665L0 0Z" transform="translate(559.4536 134.0371)" id="Rectangle" fill="#D0DCD7" stroke="none" />
    <path d="M0 0L19.4665 0L19.4665 19.4665L0 19.4665L0 0Z" transform="translate(586.0625 134.0371)" id="Rectangle" fill="#D0DCD7" stroke="none" />
    <path d="M0 0L19.4664 0L19.4664 19.4665L0 19.4665L0 0Z" transform="translate(612.6641 134.0371)" id="Rectangle" fill="#D0DCD7" stroke="none" />
    <path d="M0 0L19.4664 0L19.4664 19.4665L0 19.4665L0 0Z" transform="translate(639.2729 134.0371)" id="Rectangle" fill="#D0DCD7" stroke="none" />
    <path d="M0 0L19.4664 0L19.4664 19.4665L0 19.4665L0 0Z" transform="translate(665.8818 134.0371)" id="Rectangle" fill="#D0DCD7" stroke="none" />
    <path d="M0 0L19.4663 0L19.4663 19.4665L0 19.4665L0 0Z" transform="translate(692.4834 134.0371)" id="Rectangle" fill="#53AA86" stroke="none" />
    <path d="M0 0L19.4666 0L19.4666 19.4665L0 19.4665L0 0Z" transform="translate(719.0923 134.0371)" id="Rectangle" fill="#D0DCD7" stroke="none" />
    <path d="M0 0L19.4665 0L19.4665 19.4665L0 19.4665L0 0Z" transform="translate(745.6938 134.0371)" id="Rectangle" fill="#D0DCD7" stroke="none" />
    <path d="M0 0L19.4665 0L19.4665 19.4665L0 19.4665L0 0Z" transform="translate(80.54492 158.6926)" id="Rectangle" fill="#D0DCD7" stroke="none" />
    <path d="M0 0L19.4666 0L19.4666 19.4665L0 19.4665L0 0Z" transform="translate(107.1538 158.6926)" id="Rectangle" fill="#D0DCD7" stroke="none" />
    <path d="M0 0L19.4664 0L19.4664 19.4665L0 19.4665L0 0Z" transform="translate(133.7554 158.6926)" id="Rectangle" fill="#D0DCD7" stroke="none" />
    <path d="M0 0L19.4664 0L19.4664 19.4665L0 19.4665L0 0Z" transform="translate(160.3643 158.6926)" id="Rectangle" fill="#D0DCD7" stroke="none" />
    <path d="M0 0L19.4665 0L19.4665 19.4665L0 19.4665L0 0Z" transform="translate(186.9731 158.6926)" id="Rectangle" fill="#D0DCD7" stroke="none" />
    <path d="M0 0L19.4665 0L19.4665 19.4665L0 19.4665L0 0Z" transform="translate(213.5742 158.6926)" id="Rectangle" fill="#D0DCD7" stroke="none" />
    <path d="M0 0L19.4666 0L19.4666 19.4665L0 19.4665L0 0Z" transform="translate(240.1836 158.6926)" id="Rectangle" fill="#53AA86" stroke="none" />
    <path d="M0 0L19.4665 0L19.4665 19.4665L0 19.4665L0 0Z" transform="translate(266.7847 158.6926)" id="Rectangle" fill="#D0DCD7" stroke="none" />
    <path d="M0 0L19.4665 0L19.4665 19.4665L0 19.4665L0 0Z" transform="translate(293.394 158.6926)" id="Rectangle" fill="#53AA86" stroke="none" />
    <path d="M0 0L19.4665 0L19.4665 19.4665L0 19.4665L0 0Z" transform="translate(320.0029 158.6926)" id="Rectangle" fill="#53AA86" stroke="none" />
    <path d="M0 0L19.4665 0L19.4665 19.4665L0 19.4665L0 0Z" transform="translate(346.6045 158.6926)" id="Rectangle" fill="#53AA86" stroke="none" />
    <path d="M0 0L19.4665 0L19.4665 19.4665L0 19.4665L0 0Z" transform="translate(373.2134 158.6926)" id="Rectangle" fill="#D0DCD7" stroke="none" />
    <path d="M0 0L19.4664 0L19.4664 19.4665L0 19.4665L0 0Z" transform="translate(399.8149 158.6926)" id="Rectangle" fill="#D0DCD7" stroke="none" />
    <path d="M0 0L19.4665 0L19.4665 19.4665L0 19.4665L0 0Z" transform="translate(426.4238 158.6926)" id="Rectangle" fill="#D0DCD7" stroke="none" />
    <path d="M0 0L19.4664 0L19.4664 19.4665L0 19.4665L0 0Z" transform="translate(453.0327 158.6926)" id="Rectangle" fill="#D0DCD7" stroke="none" />
    <path d="M0 0L19.4663 0L19.4663 19.4665L0 19.4665L0 0Z" transform="translate(479.6343 158.6926)" id="Rectangle" fill="#D0DCD7" stroke="none" />
    <path d="M0 0L19.4663 0L19.4663 19.4665L0 19.4665L0 0Z" transform="translate(506.2432 158.6926)" id="Rectangle" fill="#D0DCD7" stroke="none" />
    <path d="M0 0L19.4664 0L19.4664 19.4665L0 19.4665L0 0Z" transform="translate(532.8521 158.6926)" id="Rectangle" fill="#D0DCD7" stroke="none" />
    <path d="M0 0L19.4664 0L19.4664 19.4665L0 19.4665L0 0Z" transform="translate(559.4536 158.6926)" id="Rectangle" fill="#D0DCD7" stroke="none" />
    <path d="M0 0L19.4665 0L19.4665 19.4665L0 19.4665L0 0Z" transform="translate(586.0625 158.6926)" id="Rectangle" fill="#D0DCD7" stroke="none" />
    <path d="M0 0L19.4664 0L19.4664 19.4665L0 19.4665L0 0Z" transform="translate(612.6641 158.6926)" id="Rectangle" fill="#D0DCD7" stroke="none" />
    <path d="M0 0L19.4664 0L19.4664 19.4665L0 19.4665L0 0Z" transform="translate(639.2729 158.6926)" id="Rectangle" fill="#D0DCD7" stroke="none" />
    <path d="M0 0L19.4664 0L19.4664 19.4665L0 19.4665L0 0Z" transform="translate(665.8818 158.6926)" id="Rectangle" fill="#D0DCD7" stroke="none" />
    <path d="M0 0L19.4663 0L19.4663 19.4665L0 19.4665L0 0Z" transform="translate(692.4834 158.6926)" id="Rectangle" fill="#D0DCD7" stroke="none" />
    <path d="M0 0L19.4666 0L19.4666 19.4665L0 19.4665L0 0Z" transform="translate(719.0923 158.6926)" id="Rectangle" fill="#D0DCD7" stroke="none" />
    <path d="M0 0L19.4665 0L19.4665 19.4665L0 19.4665L0 0Z" transform="translate(745.6938 158.6926)" id="Rectangle" fill="#D0DCD7" stroke="none" />
    <path d="M0 0L19.4665 0L19.4665 19.4665L0 19.4665L0 0Z" transform="translate(80.54492 183.3557)" id="Rectangle" fill="#D0DCD7" stroke="none" />
    <path d="M0 0L19.4666 0L19.4666 19.4665L0 19.4665L0 0Z" transform="translate(107.1538 183.3557)" id="Rectangle" fill="#D0DCD7" stroke="none" />
    <path d="M0 0L19.4664 0L19.4664 19.4665L0 19.4665L0 0Z" transform="translate(133.7554 183.3557)" id="Rectangle" fill="#D0DCD7" stroke="none" />
    <path d="M0 0L19.4664 0L19.4664 19.4665L0 19.4665L0 0Z" transform="translate(160.3643 183.3557)" id="Rectangle" fill="#D0DCD7" stroke="none" />
    <path d="M0 0L19.4665 0L19.4665 19.4665L0 19.4665L0 0Z" transform="translate(186.9731 183.3557)" id="Rectangle" fill="#53AA86" stroke="none" />
    <path d="M0 0L19.4665 0L19.4665 19.4665L0 19.4665L0 0Z" transform="translate(213.5742 183.3557)" id="Rectangle" fill="#D0DCD7" stroke="none" />
    <path d="M0 0L19.4666 0L19.4666 19.4665L0 19.4665L0 0Z" transform="translate(240.1836 183.3557)" id="Rectangle" fill="#D0DCD7" stroke="none" />
    <path d="M0 0L19.4665 0L19.4665 19.4665L0 19.4665L0 0Z" transform="translate(266.7847 183.3557)" id="Rectangle" fill="#53AA86" stroke="none" />
    <path d="M0 0L19.4665 0L19.4665 19.4665L0 19.4665L0 0Z" transform="translate(293.394 183.3557)" id="Rectangle" fill="#53AA86" stroke="none" />
    <path d="M0 0L19.4665 0L19.4665 19.4665L0 19.4665L0 0Z" transform="translate(320.0029 183.3557)" id="Rectangle" fill="#53AA86" stroke="none" />
    <path d="M0 0L19.4665 0L19.4665 19.4665L0 19.4665L0 0Z" transform="translate(346.6045 183.3557)" id="Rectangle" fill="#D0DCD7" stroke="none" />
    <path d="M0 0L19.4665 0L19.4665 19.4665L0 19.4665L0 0Z" transform="translate(373.2134 183.3557)" id="Rectangle" fill="#53AA86" stroke="none" />
    <path d="M0 0L19.4664 0L19.4664 19.4665L0 19.4665L0 0Z" transform="translate(399.8149 183.3557)" id="Rectangle" fill="#D0DCD7" stroke="none" />
    <path d="M0 0L19.4665 0L19.4665 19.4665L0 19.4665L0 0Z" transform="translate(426.4238 183.3557)" id="Rectangle" fill="#D0DCD7" stroke="none" />
    <path d="M0 0L19.4664 0L19.4664 19.4665L0 19.4665L0 0Z" transform="translate(453.0327 183.3557)" id="Rectangle" fill="#D0DCD7" stroke="none" />
    <path d="M0 0L19.4663 0L19.4663 19.4665L0 19.4665L0 0Z" transform="translate(479.6343 183.3557)" id="Rectangle" fill="#D0DCD7" stroke="none" />
    <path d="M0 0L19.4663 0L19.4663 19.4665L0 19.4665L0 0Z" transform="translate(506.2432 183.3557)" id="Rectangle" fill="#D0DCD7" stroke="none" />
    <path d="M0 0L19.4664 0L19.4664 19.4665L0 19.4665L0 0Z" transform="translate(532.8521 183.3557)" id="Rectangle" fill="#D0DCD7" stroke="none" />
    <path d="M0 0L19.4664 0L19.4664 19.4665L0 19.4665L0 0Z" transform="translate(559.4536 183.3557)" id="Rectangle" fill="#D0DCD7" stroke="none" />
    <path d="M0 0L19.4665 0L19.4665 19.4665L0 19.4665L0 0Z" transform="translate(586.0625 183.3557)" id="Rectangle" fill="#D0DCD7" stroke="none" />
    <path d="M0 0L19.4664 0L19.4664 19.4665L0 19.4665L0 0Z" transform="translate(612.6641 183.3557)" id="Rectangle" fill="#D0DCD7" stroke="none" />
    <path d="M0 0L19.4664 0L19.4664 19.4665L0 19.4665L0 0Z" transform="translate(639.2729 183.3557)" id="Rectangle" fill="#53AA86" stroke="none" />
    <path d="M0 0L19.4664 0L19.4664 19.4665L0 19.4665L0 0Z" transform="translate(665.8818 183.3557)" id="Rectangle" fill="#D0DCD7" stroke="none" />
    <path d="M0 0L19.4663 0L19.4663 19.4665L0 19.4665L0 0Z" transform="translate(692.4834 183.3557)" id="Rectangle" fill="#D0DCD7" stroke="none" />
    <path d="M0 0L19.4666 0L19.4666 19.4665L0 19.4665L0 0Z" transform="translate(719.0923 183.3557)" id="Rectangle" fill="#53AA86" stroke="none" />
    <path d="M0 0L19.4665 0L19.4665 19.4665L0 19.4665L0 0Z" transform="translate(745.6938 183.3557)" id="Rectangle" fill="#D0DCD7" stroke="none" />
    <path d="M0 0L19.4665 0L19.4665 19.4665L0 19.4665L0 0Z" transform="translate(80.54492 208.0112)" id="Rectangle" fill="#D0DCD7" stroke="none" />
    <path d="M0 0L19.4666 0L19.4666 19.4665L0 19.4665L0 0Z" transform="translate(107.1538 208.0112)" id="Rectangle" fill="#D0DCD7" stroke="none" />
    <path d="M0 0L19.4664 0L19.4664 19.4665L0 19.4665L0 0Z" transform="translate(133.7554 208.0112)" id="Rectangle" fill="#D0DCD7" stroke="none" />
    <path d="M0 0L19.4664 0L19.4664 19.4665L0 19.4665L0 0Z" transform="translate(160.3643 208.0112)" id="Rectangle" fill="#D0DCD7" stroke="none" />
    <path d="M0 0L19.4665 0L19.4665 19.4665L0 19.4665L0 0Z" transform="translate(186.9731 208.0112)" id="Rectangle" fill="#D0DCD7" stroke="none" />
    <path d="M0 0L19.4665 0L19.4665 19.4665L0 19.4665L0 0Z" transform="translate(213.5742 208.0112)" id="Rectangle" fill="#D0DCD7" stroke="none" />
    <path d="M0 0L19.4666 0L19.4666 19.4665L0 19.4665L0 0Z" transform="translate(240.1836 208.0112)" id="Rectangle" fill="#D0DCD7" stroke="none" />
    <path d="M0 0L19.4665 0L19.4665 19.4665L0 19.4665L0 0Z" transform="translate(266.7847 208.0112)" id="Rectangle" fill="#D0DCD7" stroke="none" />
    <path d="M0 0L19.4665 0L19.4665 19.4665L0 19.4665L0 0Z" transform="translate(293.394 208.0112)" id="Rectangle" fill="#D0DCD7" stroke="none" />
    <path d="M0 0L19.4665 0L19.4665 19.4665L0 19.4665L0 0Z" transform="translate(320.0029 208.0112)" id="Rectangle" fill="#D0DCD7" stroke="none" />
    <path d="M0 0L19.4665 0L19.4665 19.4665L0 19.4665L0 0Z" transform="translate(346.6045 208.0112)" id="Rectangle" fill="#D0DCD7" stroke="none" />
    <path d="M0 0L19.4665 0L19.4665 19.4665L0 19.4665L0 0Z" transform="translate(373.2134 208.0112)" id="Rectangle" fill="#D0DCD7" stroke="none" />
    <path d="M0 0L19.4664 0L19.4664 19.4665L0 19.4665L0 0Z" transform="translate(399.8149 208.0112)" id="Rectangle" fill="#D0DCD7" stroke="none" />
    <path d="M0 0L19.4665 0L19.4665 19.4665L0 19.4665L0 0Z" transform="translate(426.4238 208.0112)" id="Rectangle" fill="#D0DCD7" stroke="none" />
    <path d="M0 0L19.4664 0L19.4664 19.4665L0 19.4665L0 0Z" transform="translate(453.0327 208.0112)" id="Rectangle" fill="#D0DCD7" stroke="none" />
    <path d="M0 0L19.4663 0L19.4663 19.4665L0 19.4665L0 0Z" transform="translate(479.6343 208.0112)" id="Rectangle" fill="#D0DCD7" stroke="none" />
    <path d="M0 0L19.4663 0L19.4663 19.4665L0 19.4665L0 0Z" transform="translate(506.2432 208.0112)" id="Rectangle" fill="#D0DCD7" stroke="none" />
    <path d="M0 0L19.4664 0L19.4664 19.4665L0 19.4665L0 0Z" transform="translate(532.8521 208.0112)" id="Rectangle" fill="#D0DCD7" stroke="none" />
    <path d="M0 0L19.4664 0L19.4664 19.4665L0 19.4665L0 0Z" transform="translate(559.4536 208.0112)" id="Rectangle" fill="#D0DCD7" stroke="none" />
    <path d="M0 0L19.4665 0L19.4665 19.4665L0 19.4665L0 0Z" transform="translate(586.0625 208.0112)" id="Rectangle" fill="#D0DCD7" stroke="none" />
    <path d="M0 0L19.4664 0L19.4664 19.4665L0 19.4665L0 0Z" transform="translate(612.6641 208.0112)" id="Rectangle" fill="#D0DCD7" stroke="none" />
    <path d="M0 0L19.4664 0L19.4664 19.4665L0 19.4665L0 0Z" transform="translate(639.2729 208.0112)" id="Rectangle" fill="#D0DCD7" stroke="none" />
    <path d="M0 0L19.4664 0L19.4664 19.4665L0 19.4665L0 0Z" transform="translate(665.8818 208.0112)" id="Rectangle" fill="#D0DCD7" stroke="none" />
    <path d="M0 0L19.4663 0L19.4663 19.4665L0 19.4665L0 0Z" transform="translate(692.4834 208.0112)" id="Rectangle" fill="#D0DCD7" stroke="none" />
    <path d="M0 0L19.4666 0L19.4666 19.4665L0 19.4665L0 0Z" transform="translate(719.0923 208.0112)" id="Rectangle" fill="#D0DCD7" stroke="none" />
    <path d="M0 0L19.4665 0L19.4665 19.4665L0 19.4665L0 0Z" transform="translate(745.6938 208.0112)" id="Rectangle" fill="#D0DCD7" stroke="none" />
    <path d="M0 0L19.4665 0L19.4665 19.4664L0 19.4664L0 0Z" transform="translate(80.54492 232.6744)" id="Rectangle" fill="#D0DCD7" stroke="none" />
    <path d="M0 0L19.4666 0L19.4666 19.4664L0 19.4664L0 0Z" transform="translate(107.1538 232.6744)" id="Rectangle" fill="#D0DCD7" stroke="none" />
    <path d="M0 0L19.4664 0L19.4664 19.4664L0 19.4664L0 0Z" transform="translate(133.7554 232.6744)" id="Rectangle" fill="#D0DCD7" stroke="none" />
    <path d="M0 0L19.4664 0L19.4664 19.4664L0 19.4664L0 0Z" transform="translate(160.3643 232.6744)" id="Rectangle" fill="#D0DCD7" stroke="none" />
    <path d="M0 0L19.4665 0L19.4665 19.4664L0 19.4664L0 0Z" transform="translate(186.9731 232.6744)" id="Rectangle" fill="#D0DCD7" stroke="none" />
    <path d="M0 0L19.4665 0L19.4665 19.4664L0 19.4664L0 0Z" transform="translate(213.5742 232.6744)" id="Rectangle" fill="#D0DCD7" stroke="none" />
    <path d="M0 0L19.4666 0L19.4666 19.4664L0 19.4664L0 0Z" transform="translate(240.1836 232.6744)" id="Rectangle" fill="#D0DCD7" stroke="none" />
    <path d="M0 0L19.4665 0L19.4665 19.4664L0 19.4664L0 0Z" transform="translate(266.7847 232.6744)" id="Rectangle" fill="#D0DCD7" stroke="none" />
    <path d="M0 0L19.4665 0L19.4665 19.4664L0 19.4664L0 0Z" transform="translate(293.394 232.6744)" id="Rectangle" fill="#D0DCD7" stroke="none" />
    <path d="M0 0L19.4665 0L19.4665 19.4664L0 19.4664L0 0Z" transform="translate(320.0029 232.6744)" id="Rectangle" fill="#D0DCD7" stroke="none" />
    <path d="M0 0L19.4665 0L19.4665 19.4664L0 19.4664L0 0Z" transform="translate(346.6045 232.6744)" id="Rectangle" fill="#D0DCD7" stroke="none" />
    <path d="M0 0L19.4665 0L19.4665 19.4664L0 19.4664L0 0Z" transform="translate(373.2134 232.6744)" id="Rectangle" fill="#D0DCD7" stroke="none" />
    <path d="M0 0L19.4664 0L19.4664 19.4664L0 19.4664L0 0Z" transform="translate(399.8149 232.6744)" id="Rectangle" fill="#D0DCD7" stroke="none" />
    <path d="M0 0L19.4665 0L19.4665 19.4664L0 19.4664L0 0Z" transform="translate(426.4238 232.6744)" id="Rectangle" fill="#D0DCD7" stroke="none" />
    <path d="M0 0L19.4664 0L19.4664 19.4664L0 19.4664L0 0Z" transform="translate(453.0327 232.6744)" id="Rectangle" fill="#D0DCD7" stroke="none" />
    <path d="M0 0L19.4663 0L19.4663 19.4664L0 19.4664L0 0Z" transform="translate(479.6343 232.6744)" id="Rectangle" fill="#D0DCD7" stroke="none" />
    <path d="M0 0L19.4663 0L19.4663 19.4664L0 19.4664L0 0Z" transform="translate(506.2432 232.6744)" id="Rectangle" fill="#D0DCD7" stroke="none" />
    <path d="M0 0L19.4664 0L19.4664 19.4664L0 19.4664L0 0Z" transform="translate(532.8521 232.6744)" id="Rectangle" fill="#D0DCD7" stroke="none" />
    <path d="M0 0L19.4664 0L19.4664 19.4664L0 19.4664L0 0Z" transform="translate(559.4536 232.6744)" id="Rectangle" fill="#D0DCD7" stroke="none" />
    <path d="M0 0L19.4665 0L19.4665 19.4664L0 19.4664L0 0Z" transform="translate(586.0625 232.6744)" id="Rectangle" fill="#D0DCD7" stroke="none" />
    <path d="M0 0L19.4664 0L19.4664 19.4664L0 19.4664L0 0Z" transform="translate(612.6641 232.6744)" id="Rectangle" fill="#D0DCD7" stroke="none" />
    <path d="M0 0L19.4664 0L19.4664 19.4664L0 19.4664L0 0Z" transform="translate(639.2729 232.6744)" id="Rectangle" fill="#D0DCD7" stroke="none" />
    <path d="M0 0L19.4664 0L19.4664 19.4664L0 19.4664L0 0Z" transform="translate(665.8818 232.6744)" id="Rectangle" fill="#D0DCD7" stroke="none" />
    <path d="M0 0L19.4663 0L19.4663 19.4664L0 19.4664L0 0Z" transform="translate(692.4834 232.6744)" id="Rectangle" fill="#D0DCD7" stroke="none" />
    <path d="M0 0L19.4666 0L19.4666 19.4664L0 19.4664L0 0Z" transform="translate(719.0923 232.6744)" id="Rectangle" fill="#D0DCD7" stroke="none" />
    <path d="M0 0L19.4665 0L19.4665 19.4664L0 19.4664L0 0Z" transform="translate(745.6938 232.6744)" id="Rectangle" fill="#D0DCD7" stroke="none" />
    <path d="M0 26.609C0 11.9133 11.9133 0 26.609 0C41.3048 0 53.2181 11.9133 53.2181 26.609C53.2181 41.3048 41.3048 53.218 26.609 53.218C11.9133 53.218 0 41.3048 0 26.609Z" transform="translate(533.8975 251.0725)" id="Circle" fill="#767D9F" stroke="none" />
    <path d="M0.681725 20.3745C3.33727 31.9633 5.59092 43.6386 7.44271 55.4003C7.99976 58.8953 8.49579 62.581 7.22903 65.8852C6.16832 68.64 4.0088 70.7919 2.31471 73.2033C0.620618 75.6147 -0.661372 78.7052 0.368831 81.4676C1.39903 84.23 4.40557 85.7409 7.27481 86.5193C15.4857 88.7322 24.2383 87.1221 32.4111 84.726C36.1115 83.7734 39.6591 82.304 42.9494 80.3612C46.4138 78.1634 49.2525 75.1111 51.8623 71.9671C63.7742 57.5218 71.573 40.1844 78.9139 22.9538C69.3445 23.8247 59.9408 20.036 53.648 12.7741C50.6414 9.24103 48.436 4.3191 50.1301 0C45.1624 2.72424 39.2637 2.90738 33.9144 4.76932C20.7231 11.5735 27.4039 7.60732 24.3758 9.46233C24.3758 9.46233 17.0908 13.7255 13.4788 15.9181C9.35045 18.4057 5.48156 20.6187 0.681725 20.3745L0.681725 20.3745Z" transform="translate(558.4438 223.4563)" id="Shape" fill="#AE6E79" stroke="none" />
    <path d="M114.685 24.5594C110.023 33.6325 103.956 42.3547 95.2949 47.7574C86.6338 53.1601 74.9737 54.6252 66.2974 49.2836C62.0241 46.6738 58.7885 42.7057 55.0571 39.3634C51.3256 36.021 46.663 33.1594 41.6495 33.5944C36.1247 34.0752 31.798 38.3866 28.097 42.5149C22.4807 48.7875 17.0551 55.3272 13.0794 62.7522C5.44844 77.022 3.63992 93.7032 3.97568 109.881C4.31144 126.058 6.65414 142.152 6.70756 158.329C6.78385 178.231 3.411 197.972 0 217.576C31.3631 213.715 62.7643 222.154 94.1961 225.352C114.311 227.42 134.579 227.374 154.801 227.321C158.357 227.321 162.142 227.229 165.103 225.26C166.912 223.94 168.376 222.202 169.368 220.193C172.161 215.042 173.283 209.167 174.061 203.36C176.038 188.693 176.099 173.843 176.152 159.039C176.29 123.174 176.419 87.1788 171.864 51.5958C170.742 42.8431 169.307 34.0446 165.95 25.8567C162.592 17.6687 157.113 10.137 149.452 5.74918C144.53 2.92573 133.121 -1.98859 127.322 0.857757C120.813 4.0322 117.806 18.4852 114.685 24.5594L114.685 24.5594Z" transform="translate(500.0928 239.2491)" id="Shape" fill="#767D9F" stroke="none" />
    <path d="M6.65585 132.112C5.47307 109.982 0.65797 86.3645 10.9063 66.7225C13.4245 61.8997 4.38949 55.8789 7.18238 51.2088C10.5908 45.5149 13.1753 39.3669 14.8591 32.948C15.4391 30.7427 15.9046 28.4076 15.3551 26.1946C14.3402 22.1579 10.3493 19.7541 6.96115 17.297C3.22199 14.5804 1.29903 6.30082 0.093337 1.82147C-1.11236 -2.65787 9.68539 2.73719 14.0274 1.14231C20.0558 -1.06304 27.7172 0.325795 33.7304 2.56165C37.088 3.79786 40.7355 3.9047 44.3144 3.99627C51.2662 4.1794 58.2408 4.35492 65.1392 3.50026C68.2373 3.11108 71.3431 2.5235 74.4565 2.69902C82.4003 3.14925 89.3063 8.58246 94.0069 15.0077C98.7075 21.433 101.699 28.9189 105.552 35.8783C108.765 41.6778 112.596 47.1568 115.335 53.1928C117.762 58.5345 119.296 64.273 120.814 69.9809L124.729 84.6246C125.414 86.7194 125.739 88.9151 125.69 91.1185C125.492 93.4612 124.454 95.6437 123.401 97.7269C119.419 105.448 114.644 112.734 109.154 119.467C100.92 129.563 90.924 138.667 86.0326 150.754C84.1249 155.462 83.0641 160.468 82.0951 165.459C78.1876 185.419 75.4106 205.584 73.7772 225.858C64.8607 221.732 55.5143 218.607 45.9092 216.541C41.1212 215.516 36.2812 214.752 31.4104 214.251C27.1447 213.809 21.6429 214.648 17.5832 213.488C10.7917 211.558 10.0439 200.073 9.01373 194.06C7.36547 184.483 7.0373 174.739 6.97629 165.063C6.90004 154.058 7.24344 143.077 6.65585 132.112L6.65585 132.112Z" transform="translate(610.4419 232.9742)" id="Shape" fill="#575988" stroke="none" />
    <path d="M65.8873 10.3018C69.0999 28.616 72.6406 46.9836 79.6229 64.1913C79.4474 64.3592 79.2719 64.5118 79.0964 64.6644C78.4783 65.191 77.8372 65.687 77.1657 66.1906C75.6014 67.2895 73.8844 68.2204 72.5872 69.655C72.096 70.204 71.7082 70.8374 71.4425 71.5246C70.9577 72.6099 70.9577 73.8503 71.4425 74.9356C67.8026 76.5457 63.5751 76.0497 59.4926 75.8971C55.9747 75.7673 52.5637 75.8971 49.7402 77.8277C43.7677 92.1535 44.6352 85.7181 44.0018 90.434C44.0018 90.434 43.5668 93.8755 43.399 95.6001C43.2362 97.2026 43.1039 98.8102 43.0021 100.423C42.8978 117.425 42.6078 111.108 42.8571 116.448C42.8571 116.448 42.9512 118.401 43.0174 119.378C30.5484 119.08 19.1861 112.579 8.4341 106.261C5.97697 104.818 3.4435 103.3 1.84862 100.919C0.379077 98.5807 -0.24317 95.8087 0.0859315 93.0667C0.0859315 92.6775 0.15463 92.3036 0.208006 91.9068C0.549775 89.6423 1.13565 87.4215 1.95547 85.2832C5.31946 76.1749 10.2781 67.7383 16.5992 60.3682C19.3311 57.1785 22.4063 54.0574 23.6807 50.0512C24.2378 48.3037 24.4438 46.4494 25.0085 44.7095C27.542 37.1702 36.6838 33.6066 39.8125 26.2885C40.5756 24.541 40.9266 22.6257 41.8728 20.9469C42.7247 19.5516 43.8237 18.3234 45.116 17.3222C52.1873 11.7542 46.253 16.4065 46.8253 15.9563C46.8253 15.9563 57.3534 7.3155 62.3236 2.64031C63.2495 1.77038 64.1652 0.890288 65.0707 0C64.9498 3.45384 65.2238 6.9102 65.8872 10.3018L65.8873 10.3018Z" transform="translate(402.064 313.4017)" id="Shape" fill="#575988" stroke="none" />
    <path d="M77.6752 16.6281C76.5764 17.788 75.386 18.8793 74.2184 19.9628L73.9056 20.2452L72.6693 21.3898C70.4256 23.3263 68.4838 25.5871 66.908 28.0974L66.7783 28.3111C62.8866 35.2781 64.3288 43.8553 65.4124 51.7685C66.7564 61.6298 67.3609 71.5777 67.2209 81.5291C67.0225 95.2648 65.4047 108.909 65.3742 122.629C65.3742 125.743 65.4429 128.848 65.5803 131.962C65.8016 137.021 66.1831 142.073 66.641 147.124C67.137 152.665 67.7322 158.197 68.2893 163.729C68.7319 168.01 69.1516 172.284 69.5026 176.557C69.6781 178.77 69.846 180.975 69.9833 183.188C70.1436 185.783 70.2733 188.385 70.3496 190.979L70.3496 190.979C70.403 192.628 70.4335 194.268 70.4335 195.917C70.4335 200.503 70.4335 197.786 70.4335 198.717C70.4335 198.717 70.3852 202.283 70.2886 204.059C70.1868 206.343 70.0316 208.632 69.8231 210.927C69.5865 213.422 69.1668 216.146 67.4117 217.901C67.3049 218.008 67.1905 218.107 67.076 218.206L64.6036 217.901C47.5597 215.861 30.353 215.554 13.2473 216.985C13.6212 214.406 13.9646 211.835 14.3004 209.248C14.9185 204.165 14.6056 206.798 14.7506 205.57C14.7506 205.57 15.0788 202.761 15.2314 201.357C16.1166 192.846 15.5671 198.305 15.7198 196.779C15.7198 196.779 16.4651 188.911 16.7652 184.974C17.2078 179.23 17.5436 173.476 17.7725 167.713C17.8844 164.96 17.9709 162.206 18.032 159.448C18.1185 156.03 18.1591 152.608 18.154 149.185C18.154 145.858 18.126 142.525 18.0701 139.188C18.0701 138.089 18.0243 136.991 17.9328 135.899C17.867 134.917 17.7319 133.94 17.5283 132.977C16.9617 130.755 16.1954 128.589 15.239 126.506C15.0711 126.109 14.9109 125.743 14.7506 125.323C14.659 125.117 14.5751 124.903 14.4911 124.697C18.8865 120.782 22.0152 115.54 25.0218 110.381C29.898 102.071 34.8886 93.395 35.7051 83.7953C36.5216 74.1956 31.7523 63.4131 22.5799 60.4829C20.0845 59.7198 17.4443 59.5061 14.8727 59.0559C3.05237 57.4865 7.38673 57.6594 4.57855 55.9196C4.57855 55.9196 1.52618 59.0254 0 60.5363C0.092592 58.231 0.656108 55.9691 1.6559 53.8898L2.73948 53.9432C2.65117 53.6988 2.60976 53.4399 2.61735 53.1801C2.61735 52.3636 3.18204 51.4402 4.38773 50.4177C7.98191 47.3653 13.6364 46.6862 15.9028 42.5579C16.849 40.8409 17.0093 38.7958 17.7724 36.9949C19.9625 31.8594 26.2503 29.9669 30.0353 25.8614C33.8203 21.756 34.7665 15.9413 37.8265 11.3627C40.1122 8.01919 43.2827 5.37713 46.9836 3.73179C47.2889 3.5868 47.6017 3.44181 47.9145 3.31209C54.2482 0.603128 61.7723 -0.014974 68.3349 0.000279453C70.8837 0.000279453 77.492 0.0765933 80.7275 1.36622C81.2523 1.55373 81.7328 1.84725 82.1392 2.22852C85.5885 5.98299 80.224 13.9115 77.6752 16.6281L77.6752 16.6281Z" transform="translate(467.1729 252.9113)" id="Shape" fill="#575988" stroke="none" />
    <path d="M14.2854 1.97219C26.1926 -1.61244 39.0398 -0.273817 49.9523 5.68844C55.4465 8.74081 60.3761 12.9989 63.3979 18.4931C67.9383 26.7345 67.7399 36.67 67.4194 46.0789C67.2591 50.7872 67.0531 55.6633 64.9775 59.8909C62.5738 64.7823 58.041 68.1399 53.4167 70.887C50.5197 72.7352 47.3459 74.1083 44.0154 74.9543C38.8874 76.0684 33.561 75.1221 28.3949 74.1912C22.7786 73.1534 16.7502 71.9019 12.8508 67.7202C6.29839 54.6078 9.31004 62.142 8.07384 59.0591C8.07384 59.0591 4.51786 50.1615 2.7322 45.7203C-0.358304 38.0054 -1.40373 31.5878 2.67878 24.0714C4.53309 20.6451 6.79949 17.4401 8.63088 13.9909C9.54664 12.2358 12.8279 2.42243 14.2854 1.97219L14.2854 1.97219Z" transform="translate(454.8027 304.2948)" id="Shape" fill="#575988" stroke="none" />
    <path d="M706.6 44.9767L706.6 67.7932C690.947 74.2958 674.156 77.6163 657.205 77.5607L451.407 77.5607C451.3 77.6676 451.186 77.7668 451.071 77.866L448.599 77.5607L82.5208 77.5607C51.8063 77.5607 23.343 69.2736 0 55.1564L0 20.3212L176.061 0L176.198 0L278.727 8.684L305.26 10.9733L319.041 12.1408L347.566 14.5598L362.24 15.8037L383.606 17.6198L386.613 17.8717L402.012 19.1766L422.906 20.8935L452.285 23.3812L501.26 27.54L535.714 30.4627L592.289 35.2625L603.049 36.1706L604.209 36.2698L605.216 36.3537L619.425 37.5594L635.022 38.8872L636.831 39.0398L706.6 44.9767Z" transform="translate(83.2002 393.2061)" id="Shape" fill="#2D2D32" stroke="none" />
    <path d="M229.195 37.6586L8.55425 0L0 43.2597L101.14 55.37L132.282 59.2693L217.947 42.3974L229.195 37.6586L229.195 37.6586Z" transform="translate(353.8076 399.6846)" id="Polygon" fill="#9C9CA1" stroke="none" />
    <path d="M0 20.847L110.541 0.0680467C111.661 -0.146247 112.818 0.15137 113.695 0.879531C114.573 1.60769 115.079 2.69001 115.074 3.83013L115.074 3.83013C115.079 5.67349 113.766 7.25673 111.953 7.59222L3.99859 27.8064L0 20.847Z" transform="translate(468.7905 435.9398)" id="Shape" fill="#9C9CA1" stroke="none" />
    <path d="M86.031 14.7772C89.4725 14.4567 92.9599 13.9149 96.058 12.3887C99.8735 10.4887 102.842 7.21496 106.375 4.80361C114.143 -0.53804 124.537 -1.25535 133.442 1.8123C142.347 4.87994 149.78 11.4502 154.984 19.2947C158.441 24.5219 161.035 31.1914 158.593 36.9603C157.756 38.7237 156.699 40.3748 155.449 41.8746L149.085 50.1923C147.876 51.9409 146.422 53.506 144.766 54.8396C142.385 56.5719 139.425 57.2815 136.509 57.7089C128.764 58.8382 120.881 58.1973 113.075 58.7161C99.6674 59.609 86.5728 63.9281 73.1347 63.7831C65.4122 63.6992 57.789 62.1424 50.242 60.5857L16.8414 53.7179C11.0267 52.5275 4.45647 50.7876 1.71696 45.5147C0.48839 43.1415 0.259472 40.3943 0.114482 37.7235C-0.28234 30.3673 0.114482 22.1869 5.21193 16.8834C10.0042 11.908 17.5817 10.3361 23.3048 6.65796C30.31 2.14811 32.6222 3.60559 40.0089 6.99372C54.4198 13.52 70.2755 16.2016 86.031 14.7772L86.031 14.7772Z" transform="translate(430.7124 376.666)" id="Shape" fill="#AE6E79" stroke="none" />
    <path d="M86.031 14.7772C89.4725 14.4567 92.9599 13.9149 96.058 12.3887C99.8735 10.4887 102.842 7.21496 106.375 4.80361C114.143 -0.53804 124.537 -1.25535 133.442 1.8123C142.347 4.87994 149.78 11.4502 154.984 19.2947C158.441 24.5219 161.035 31.1914 158.593 36.9603C157.756 38.7237 156.699 40.3748 155.449 41.8746L149.085 50.1923C147.876 51.9409 146.422 53.506 144.766 54.8396C142.385 56.5719 139.425 57.2815 136.509 57.7089C128.764 58.8382 120.881 58.1973 113.075 58.7161C99.6674 59.609 86.5728 63.9281 73.1347 63.7831C65.4122 63.6992 57.789 62.1424 50.242 60.5857L16.8414 53.7179C11.0267 52.5275 4.45647 50.7876 1.71696 45.5147C0.48839 43.1415 0.259472 40.3943 0.114482 37.7235C-0.28234 30.3673 0.114482 22.1869 5.21193 16.8834C10.0042 11.908 17.5817 10.3361 23.3048 6.65796C30.31 2.14811 32.6222 3.60559 40.0089 6.99372C54.4198 13.52 70.2755 16.2016 86.031 14.7772L86.031 14.7772Z" transform="translate(430.7124 376.666)" id="Shape" fill="#000000" stroke="none" />
    <path d="M197.592 3.90572C188.221 7.53041 178.797 11.1704 168.983 13.3299C152.531 16.9546 135.316 16.3823 118.993 20.5258C110.37 22.7235 101.801 26.2643 92.9412 25.547C88.9808 25.2265 85.1577 24.0208 81.3041 23.1051C59.6551 17.7634 35.0454 19.4957 17.4638 33.2313C11.4506 37.9244 6.52867 43.7773 2.0646 50.0193C0.130504 52.7491 -0.484245 56.1997 0.38816 59.4295C1.26052 62.6592 3.52898 65.3311 6.57445 66.7158C13.4118 69.8601 20.736 71.8137 28.231 72.4924C38.2504 73.3775 48.3156 71.9582 58.2816 70.5388C73.0703 68.4403 87.8667 66.3342 102.617 63.9763C107.913 63.1293 113.209 62.2517 118.535 61.5802C156.865 56.7345 195.89 62.6256 234.319 58.5812C238.203 58.1692 242.156 57.635 245.689 55.9791C254.633 51.7821 259.059 40.7173 257.212 30.9955C255.365 21.2737 248.238 13.1925 239.661 8.23244C232.473 4.05835 224.72 2.3719 216.715 0.601522C209.282 -1.13066 204.75 1.15861 197.592 3.90572L197.592 3.90572Z" transform="translate(453.2803 377.0756)" id="Shape" fill="#AE6E79" stroke="none" />
    <path d="M99.9641 32.5432C104.192 38.0833 105.092 45.5158 104.634 52.4523C104.176 59.3888 102.528 66.249 102.284 73.216C101.948 82.7699 104.253 92.2933 103.863 101.817C103.589 108.478 102.009 115.01 100.14 121.405C97.9342 128.952 94.7445 137.064 87.7775 140.689C78.5288 145.504 59.131 142.795 49.4016 146.564C50.2868 141.047 58.7724 133.058 59.6576 127.54C60.268 123.725 60.8862 119.803 60.2299 115.98C59.3905 111.103 56.5289 106.777 53.1332 103.175C47.7305 97.4441 40.6795 93.1327 32.9341 91.7286C25.1888 90.3245 6.22592 91.4767 0.029622 96.3682C-0.73347 91.3165 13.46 86.448 18.4507 85.3568C20.9384 84.7997 23.7923 85.1126 25.784 83.533C29.5994 80.5417 26.8294 74.5819 27.0125 69.7973C27.1575 65.9819 29.3857 62.4869 29.836 58.6715C30.5991 52.5667 26.6158 46.3475 28.1801 40.3573C28.76 38.1443 30.0497 36.1984 30.9425 34.0923C33.6591 27.6441 32.4687 20.2879 31.0188 13.4354C30.1183 9.13153 29.2408 4.27828 31.6369 0.607809C33.8574 -2.81846 40.1606 9.38336 44.1974 8.81868C57.5286 6.9491 69.593 -2.93295 80.3603 5.15585C85.8469 9.27656 86.5643 13.5499 88.7543 19.4333C90.8833 25.0344 96.4005 27.9036 99.9641 32.5432L99.9641 32.5432Z" transform="translate(633.1157 290.3209)" id="Shape" fill="#000000" fill-opacity="0.2509804" stroke="none" />
    <path d="M99.9641 37.7026C104.192 43.2427 105.092 50.6752 104.634 57.6117C104.176 64.5482 102.528 71.4084 102.284 78.3754C101.948 87.9293 104.253 97.4527 103.863 106.976C103.589 113.638 102.009 120.17 100.14 126.565C97.9342 134.112 94.7445 142.223 87.7775 145.848C78.5288 150.663 59.131 147.954 49.4016 151.724C50.2868 146.207 58.7724 138.217 59.6576 132.7C60.268 128.884 60.8862 124.962 60.2299 121.139C59.3905 116.263 56.5289 111.936 53.1332 108.334C47.7305 102.604 40.6795 98.2921 32.9341 96.888C25.1888 95.4839 6.22592 96.6361 0.029622 101.528C-0.73347 96.4759 13.46 91.6074 18.4507 90.5162C20.9384 89.9591 23.7923 90.272 25.784 88.6924C29.5994 85.7011 26.8294 79.7413 27.0125 74.9567C27.1575 71.1413 29.3857 67.6463 29.836 63.8308C30.5991 57.7261 26.6158 51.5069 28.1801 45.5167C28.76 43.3037 30.0497 41.3578 30.9425 39.2517C33.6591 32.8035 32.4687 25.4473 31.0188 18.5948C30.1183 14.2909 29.2408 9.43767 31.6369 5.7672C33.8574 2.34093 38.1994 1.04366 42.2362 0.471343C55.752 -1.35683 69.4466 2.17638 80.3908 10.3152C85.8774 14.436 86.5948 18.7092 88.7848 24.5927C90.8833 30.1938 96.4005 33.063 99.9641 37.7026L99.9641 37.7026Z" transform="translate(635.4048 285.1616)" id="Shape" fill="#575988" stroke="none" />
    <path d="M0.334784 25.7512L41.8241 179.087C42.8664 182.934 46.1822 185.733 50.1494 186.115L236.893 204.055C239.982 204.353 243.022 203.135 245.051 200.788C247.08 198.441 247.845 195.255 247.103 192.243L201.669 7.28438C200.553 2.74446 196.319 -0.324119 191.657 0.0273631L8.828 13.702C5.98587 13.9228 3.3902 15.3992 1.74781 17.7292C0.105447 20.0593 -0.412588 23.0002 0.334784 25.7512L0.334784 25.7512Z" transform="translate(230.1191 260.9577)" id="Shape" fill="#9C9CA1" stroke="none" />
    <path d="M0 20.7943C0 9.3099 9.19031 0 20.5271 0C31.864 0 41.0543 9.3099 41.0543 20.7943C41.0543 32.2786 31.864 41.5885 20.5271 41.5885C9.19031 41.5885 0 32.2786 0 20.7943Z" transform="translate(580.1104 275.0412)" id="Ellipse" fill="#EEEEEE" stroke="none" />
    <path d="M10.0728 0.328334C10.0728 0.328334 14.3995 13.1941 1.63303 18.6044L0 21.4584L7.99718 29.3488C7.99718 29.3488 17.8564 11.3627 16.788 4.97557C16.788 4.97557 15.2618 -1.51072 10.0728 0.328334L10.0728 0.328334Z" transform="translate(607.4219 257.5739)" id="Shape" fill="#EEEEEE" stroke="none" />
    <path d="M0 19.7946C0 8.86234 8.86236 0 19.7946 0C30.7269 0 39.5893 8.86234 39.5893 19.7946C39.5893 30.7269 30.7269 39.5892 19.7946 39.5892C8.86236 39.5892 0 30.7269 0 19.7946Z" transform="translate(583.2012 277.0405)" id="Circle" fill="#6F718F" stroke="none" />
    <path d="M25.1361 39.7952L21.9922 34.6062L17.4137 33.9576C18.3904 16.872 13.9568 11.7822 13.9568 11.7822L12.9267 11.6829L8.43974 11.248L0 2.48768L0 0C11.8584 1.41172 18.4133 7.04334 21.954 13.6441C28.2113 25.2278 25.1361 39.7952 25.1361 39.7952L25.1361 39.7952Z" transform="translate(599.1729 225.6768)" id="Shape" fill="#6F718F" stroke="none" />
    <path d="M12.9268 6.05132L12.9268 9.19525L8.43978 8.76028L0 0C0 0 13.0565 2.92267 12.9268 6.05132L12.9268 6.05132Z" transform="translate(599.2109 228.1645)" id="Shape" fill="#000000" stroke="#4C4981" stroke-width="1" />
    <path d="M3.14389 26.1206L0 20.9316L0 0C6.21908 11.5532 3.14389 26.1206 3.14389 26.1206L3.14389 26.1206Z" transform="translate(621.165 239.3514)" id="Shape" fill="#000000" stroke="#4C4981" stroke-width="1" />
    <path d="M0 20.0895C9.15527e-05 8.99438 4.93109 0 11.0141 0C17.097 0 22.0281 8.99432 22.0283 20.0894C22.0282 31.1844 17.097 40.1789 11.014 40.1786C4.93112 40.1788 0 31.1846 0 20.0895Z" transform="matrix(0.8660254 -0.5 0.5 0.8660254 536.9258 275.7565)" id="Ellipse" fill="#EEEEEE" stroke="none" />
    <path d="M21.4786 15.5945C27.0264 25.2019 33.8332 31.6194 28.5678 34.6718C23.3024 37.7242 7.9642 36.198 2.41648 26.5831C-3.13123 16.9681 1.90522 3.69033 7.17055 0.637966C12.4359 -2.4144 15.9233 5.96433 21.4786 15.5945L21.4786 15.5945Z" transform="translate(537.8682 270.3054)" id="Shape" fill="#6F718F" stroke="none" />
    <path d="M107.298 50.8982C107.298 81.5974 86.2903 111.182 55.5912 111.182C24.889 111.182 0 86.2934 0 55.5912C0 24.889 24.889 0 55.5912 0C86.2904 0.0305535 107.298 20.1914 107.298 50.8982L107.298 50.8982Z" transform="translate(501.4434 165.7894)" id="Shape" fill="#000000" fill-opacity="0.23137255" stroke="none" />
    <path d="M0 55.5913C0 24.8891 24.889 0 55.5912 0C86.2934 0 111.182 24.8891 111.182 55.5913C111.182 86.2935 86.2934 111.183 55.5912 111.183C24.889 111.183 0 86.2935 0 55.5913Z" transform="translate(501.4434 164.2937)" id="Circle" fill="#AE6E79" stroke="none" />
    <path d="M73.941 72.4243C80.557 74.8585 84.4716 81.6958 90.4085 85.5037C98.8025 90.8453 109.73 89.4641 119.314 86.8238C124.656 85.3663 130.242 83.5883 135.5 85.2061C136.273 85.5485 137.126 85.67 137.964 85.5571C139.109 85.229 139.674 83.9622 140.048 82.8329C146.549 63.4503 143.627 41.4962 133.813 23.5635C131.28 18.9392 128.243 14.4674 124.061 11.2548C120.764 8.729 116.888 7.07308 112.981 5.66138C105.841 3.09706 98.4558 1.27386 90.9427 0.220558C89.6159 -0.0205398 88.2608 -0.0642508 86.9212 0.0907988C85.0822 0.388416 83.4339 1.38043 81.7933 2.26561C74.7665 6.03238 66.974 8.14881 59.0072 8.45432C48.3239 8.85876 36.1145 6.34057 27.8807 13.1931C17.9605 21.4116 20.4329 37.4442 14.0001 48.6006C9.742 55.9797 1.53112 61.3366 0.18048 69.7382C-0.171211 72.3062 -0.0077781 74.9185 0.661231 77.4226C3.80517 90.3493 16.3199 100.361 29.6587 100.598C31.7072 100.754 33.7584 100.334 35.5803 99.3844C36.774 98.5697 37.828 97.5673 38.7013 96.4159C47.4388 86.0684 57.4353 66.3501 73.941 72.4243L73.941 72.4243Z" transform="translate(478.21 122.828)" id="Shape" fill="#191621" stroke="none" />
    <path d="M140.071 19.0238C139.697 20.1532 139.132 21.4199 137.987 21.748C137.149 21.8609 136.296 21.7394 135.523 21.397C130.265 19.7793 124.649 21.5573 119.345 23.0148C109.753 25.6551 98.8026 27.0668 90.4391 21.6946C84.4946 17.8792 80.5876 11.0113 73.9639 8.61525C57.4582 2.51053 47.4618 22.2593 38.7014 32.6068C37.828 33.7582 36.7741 34.7607 35.5803 35.5753C33.7584 36.5245 31.7072 36.9448 29.6587 36.7886C16.3657 36.552 3.84331 26.5403 0.661231 13.6135C0.485735 12.8504 0.333107 12.0873 0.218625 11.3242C0.218625 11.3929 0.218625 11.454 0.18048 11.5227C-0.171211 14.0906 -0.0077781 16.7029 0.661231 19.207C3.80517 32.1337 16.3275 42.1455 29.6587 42.382C31.7072 42.5383 33.7584 42.118 35.5803 41.1687C36.7741 40.3541 37.828 39.3517 38.7014 38.2003C47.4617 27.8528 57.4582 8.13453 73.9639 14.2087C80.5875 16.643 84.4945 23.4803 90.439 27.2881C98.8331 32.6297 109.753 31.2486 119.345 28.6083C124.687 27.1508 130.265 25.3728 135.523 26.9905C136.296 27.3329 137.149 27.4545 137.987 27.3416C139.132 27.0134 139.697 25.7467 140.071 24.6173C142.693 16.6866 143.851 8.34514 143.489 0C143.264 6.47209 142.113 12.8785 140.071 19.0238L140.071 19.0238Z" transform="translate(478.187 181.0131)" id="Shape" fill="#000000" stroke="none" />
  </g>
</svg>