<?xml version="1.0" encoding="utf-8"?>
<svg width="150px" height="150px" viewBox="0 0 150 150" version="1.1" xmlns:xlink="http://www.w3.org/1999/xlink" xmlns="http://www.w3.org/2000/svg">
  <desc>Created with Lunacy</desc>
  <g id="Group-13">
    <path d="M0 0L150 0L150 150L0 150L0 0Z" id="Rectangle-2" fill="#FFFAF2" stroke="none" />
    <path d="M0 24.9993C0 11.1926 11.1929 0.000119924 25 0.000119924C25.0051 0.00381013 25.0093 0.354363 25.0128 1.00289C25.0164 0.355379 25.0208 0.00539615 25.0259 0.00170898C38.833 0.00170898 50.0259 11.1942 50.0259 25.0008C50.0259 38.8074 32.5693 55.0809 32.5259 56.9997C31.2671 58.707 30.3341 60.1267 29.5259 61.9994C27.7924 66.0158 27.3574 69.9133 25 69.9998C25.0123 69.9863 25.0092 60.4616 25.004 48.4432C24.9944 60.4606 24.9878 69.9843 25 69.9978C22.6426 69.9113 22.2335 66.0145 20.5 61.9981C19.6918 60.1253 18.7588 58.7057 17.5 56.9983C17.4566 55.0795 0 38.806 0 24.9993ZM25 14.9998C19.4772 14.9998 15 19.4769 15 24.9998C15 30.5226 19.4772 34.9998 25 34.9998C30.5228 34.9998 35 30.5226 35 24.9998C35 19.4769 30.5228 14.9998 25 14.9998Z" transform="translate(49.99951 40.00049)" id="Ellipse-Union-Difference" fill="#FFA621" fill-rule="evenodd" stroke="none" />
  </g>
</svg>