<?xml version="1.0" encoding="utf-8"?>
<svg width="150px" height="150px" viewBox="0 0 150 150" version="1.1" xmlns:xlink="http://www.w3.org/1999/xlink" xmlns="http://www.w3.org/2000/svg">
  <desc>Created with Lunacy</desc>
  <g id="Group-13">
    <path d="M0 0L150 0L150 150L0 150L0 0Z" id="Rectangle-2" fill="#F2FCF8" stroke="none" />
    <g id="Group-12" transform="translate(34.99951 44.00024)">
      <g id="Group-11">
        <path d="M4.47444 0L51.672 0Q51.7818 0 51.8916 0.00538965Q52.0013 0.0107793 52.1106 0.0215456Q52.2199 0.032312 52.3285 0.048429Q52.4372 0.0645461 52.5449 0.085975Q52.6527 0.107404 52.7592 0.134093Q52.8658 0.160783 52.9709 0.192668Q53.076 0.224553 53.1794 0.261557Q53.2828 0.298562 53.3843 0.340596Q53.4858 0.382631 53.5851 0.429594Q53.6844 0.476557 53.7812 0.528336Q53.8781 0.580115 53.9723 0.636584Q54.0665 0.693054 54.1579 0.754079Q54.2492 0.815103 54.3374 0.880536Q54.4257 0.945968 54.5106 1.01565Q54.5955 1.08533 54.6769 1.1591Q54.7582 1.23286 54.8359 1.31053Q54.9136 1.3882 54.9873 1.46959Q55.0611 1.55098 55.1308 1.63588Q55.2005 1.72079 55.2659 1.80902Q55.3313 1.89724 55.3924 1.98857Q55.4534 2.0799 55.5099 2.17412Q55.5663 2.26833 55.6181 2.3652Q55.6699 2.46207 55.7169 2.56137Q55.7638 2.66066 55.8058 2.76214Q55.8479 2.86362 55.8849 2.96704Q55.9219 3.07046 55.9538 3.17558Q55.9857 3.28069 56.0124 3.38724Q56.039 3.49379 56.0605 3.60152Q56.0819 3.70925 56.098 3.8179Q56.1141 3.92655 56.1249 4.03587Q56.1357 4.14518 56.1411 4.25489Q56.1465 4.3646 56.1465 4.47444L56.1465 4.47644Q56.1465 4.58628 56.1411 4.69599Q56.1357 4.8057 56.1249 4.91501Q56.1141 5.02432 56.098 5.13297Q56.0819 5.24162 56.0605 5.34936Q56.039 5.45709 56.0124 5.56364Q55.9857 5.67018 55.9538 5.7753Q55.9219 5.88041 55.8849 5.98383Q55.8479 6.08725 55.8058 6.18873Q55.7638 6.29021 55.7168 6.3895Q55.6699 6.4888 55.6181 6.58567Q55.5663 6.68254 55.5099 6.77676Q55.4534 6.87097 55.3924 6.9623Q55.3313 7.05363 55.2659 7.14186Q55.2005 7.23008 55.1308 7.31499Q55.0611 7.3999 54.9873 7.48128Q54.9136 7.56267 54.8359 7.64034Q54.7582 7.71801 54.6769 7.79178Q54.5955 7.86554 54.5106 7.93522Q54.4257 8.0049 54.3374 8.07034Q54.2492 8.13577 54.1579 8.19679Q54.0665 8.25782 53.9723 8.31429Q53.8781 8.37076 53.7812 8.42254Q53.6844 8.47432 53.5851 8.52128Q53.4858 8.56824 53.3843 8.61028Q53.2828 8.65231 53.1794 8.68931Q53.076 8.72632 52.9709 8.75821Q52.8658 8.79009 52.7592 8.81678Q52.6527 8.84347 52.5449 8.8649Q52.4372 8.88633 52.3285 8.90244Q52.2199 8.91856 52.1106 8.92933Q52.0013 8.94009 51.8916 8.94548Q51.7818 8.95087 51.672 8.95087L4.47444 8.95087Q4.3646 8.95087 4.25489 8.94548Q4.14518 8.94009 4.03587 8.92933Q3.92655 8.91856 3.8179 8.90244Q3.70925 8.88633 3.60152 8.8649Q3.49379 8.84347 3.38724 8.81678Q3.28069 8.79009 3.17558 8.75821Q3.07047 8.72632 2.96704 8.68931Q2.86362 8.65231 2.76214 8.61028Q2.66066 8.56824 2.56137 8.52128Q2.46207 8.47432 2.3652 8.42254Q2.26833 8.37076 2.17412 8.31429Q2.0799 8.25782 1.98857 8.19679Q1.89724 8.13577 1.80902 8.07034Q1.72079 8.0049 1.63588 7.93522Q1.55098 7.86554 1.46959 7.79178Q1.3882 7.71801 1.31053 7.64034Q1.23286 7.56267 1.1591 7.48128Q1.08533 7.3999 1.01565 7.31499Q0.945968 7.23008 0.880535 7.14186Q0.815103 7.05363 0.754079 6.9623Q0.693054 6.87097 0.636584 6.77676Q0.580115 6.68254 0.528336 6.58567Q0.476557 6.4888 0.429594 6.3895Q0.382631 6.29021 0.340596 6.18873Q0.298562 6.08725 0.261557 5.98383Q0.224553 5.88041 0.192668 5.7753Q0.160783 5.67018 0.134093 5.56364Q0.107404 5.45709 0.085975 5.34936Q0.0645461 5.24162 0.048429 5.13297Q0.032312 5.02432 0.0215456 4.91501Q0.0107793 4.8057 0.00538965 4.69599Q0 4.58628 0 4.47644L0 4.47444Q0 4.3646 0.00538966 4.25489Q0.0107793 4.14518 0.0215456 4.03587Q0.032312 3.92655 0.048429 3.8179Q0.0645461 3.70925 0.0859751 3.60152Q0.107404 3.49379 0.134093 3.38724Q0.160783 3.28069 0.192668 3.17558Q0.224553 3.07047 0.261557 2.96704Q0.298562 2.86362 0.340596 2.76214Q0.382631 2.66066 0.429594 2.56137Q0.476557 2.46207 0.528336 2.3652Q0.580115 2.26833 0.636584 2.17412Q0.693054 2.0799 0.754079 1.98857Q0.815103 1.89724 0.880536 1.80902Q0.945968 1.72079 1.01565 1.63588Q1.08533 1.55098 1.1591 1.46959Q1.23286 1.3882 1.31053 1.31053Q1.3882 1.23286 1.46959 1.1591Q1.55098 1.08533 1.63588 1.01565Q1.72079 0.945968 1.80902 0.880536Q1.89724 0.815103 1.98857 0.754079Q2.0799 0.693054 2.17412 0.636584Q2.26833 0.580115 2.3652 0.528336Q2.46207 0.476557 2.56137 0.429594Q2.66066 0.382631 2.76214 0.340596Q2.86362 0.298562 2.96704 0.261557Q3.07047 0.224553 3.17558 0.192668Q3.28069 0.160783 3.38724 0.134093Q3.49379 0.107404 3.60152 0.0859751Q3.70925 0.0645461 3.8179 0.048429Q3.92655 0.032312 4.03587 0.0215456Q4.14518 0.0107793 4.25489 0.00538966Q4.3646 0 4.47444 0L4.47444 0Z" id="Rectangle-3" fill="#29CB8B" stroke="none" />
        <path d="M4.47444 0L34.584 0Q34.6938 0 34.8035 0.00538965Q34.9132 0.0107793 35.0225 0.0215456Q35.1318 0.032312 35.2405 0.048429Q35.3492 0.0645461 35.4569 0.085975Q35.5646 0.107404 35.6712 0.134093Q35.7777 0.160783 35.8828 0.192668Q35.9879 0.224553 36.0914 0.261557Q36.1948 0.298562 36.2963 0.340596Q36.3977 0.382631 36.497 0.429594Q36.5963 0.476557 36.6932 0.528336Q36.7901 0.580115 36.8843 0.636584Q36.9785 0.693054 37.0698 0.754079Q37.1612 0.815103 37.2494 0.880536Q37.3376 0.945968 37.4225 1.01565Q37.5074 1.08533 37.5888 1.1591Q37.6702 1.23286 37.7479 1.31053Q37.8255 1.3882 37.8993 1.46959Q37.9731 1.55098 38.0428 1.63588Q38.1124 1.72079 38.1779 1.80902Q38.2433 1.89724 38.3043 1.98857Q38.3653 2.0799 38.4218 2.17412Q38.4783 2.26833 38.5301 2.3652Q38.5818 2.46207 38.6288 2.56137Q38.6758 2.66066 38.7178 2.76214Q38.7598 2.86362 38.7968 2.96704Q38.8339 3.07046 38.8657 3.17558Q38.8976 3.28069 38.9243 3.38724Q38.951 3.49379 38.9724 3.60152Q38.9939 3.70925 39.01 3.8179Q39.0261 3.92655 39.0369 4.03587Q39.0476 4.14518 39.053 4.25489Q39.0584 4.3646 39.0584 4.47444L39.0584 4.47644Q39.0584 4.58628 39.053 4.69599Q39.0476 4.8057 39.0369 4.91501Q39.0261 5.02432 39.01 5.13297Q38.9939 5.24162 38.9724 5.34936Q38.951 5.45709 38.9243 5.56364Q38.8976 5.67018 38.8657 5.7753Q38.8339 5.88041 38.7968 5.98383Q38.7598 6.08725 38.7178 6.18873Q38.6758 6.29021 38.6288 6.3895Q38.5818 6.4888 38.5301 6.58567Q38.4783 6.68254 38.4218 6.77676Q38.3653 6.87097 38.3043 6.9623Q38.2433 7.05363 38.1779 7.14186Q38.1124 7.23008 38.0428 7.31499Q37.9731 7.3999 37.8993 7.48128Q37.8255 7.56267 37.7479 7.64034Q37.6702 7.71801 37.5888 7.79178Q37.5074 7.86554 37.4225 7.93522Q37.3376 8.0049 37.2494 8.07034Q37.1612 8.13577 37.0698 8.19679Q36.9785 8.25782 36.8843 8.31429Q36.7901 8.37076 36.6932 8.42254Q36.5963 8.47432 36.497 8.52128Q36.3977 8.56824 36.2963 8.61028Q36.1948 8.65231 36.0914 8.68931Q35.9879 8.72632 35.8828 8.75821Q35.7777 8.79009 35.6712 8.81678Q35.5646 8.84347 35.4569 8.8649Q35.3492 8.88633 35.2405 8.90244Q35.1318 8.91856 35.0225 8.92933Q34.9132 8.94009 34.8035 8.94548Q34.6938 8.95087 34.584 8.95087L4.47444 8.95087Q4.3646 8.95087 4.25489 8.94548Q4.14518 8.94009 4.03587 8.92933Q3.92655 8.91856 3.8179 8.90244Q3.70925 8.88633 3.60152 8.8649Q3.49379 8.84347 3.38724 8.81678Q3.28069 8.79009 3.17558 8.75821Q3.07047 8.72632 2.96704 8.68931Q2.86362 8.65231 2.76214 8.61028Q2.66066 8.56824 2.56137 8.52128Q2.46207 8.47432 2.3652 8.42254Q2.26833 8.37076 2.17412 8.31429Q2.0799 8.25782 1.98857 8.19679Q1.89724 8.13577 1.80902 8.07034Q1.72079 8.0049 1.63588 7.93522Q1.55098 7.86554 1.46959 7.79178Q1.3882 7.71801 1.31053 7.64034Q1.23286 7.56267 1.1591 7.48128Q1.08533 7.3999 1.01565 7.31499Q0.945968 7.23008 0.880535 7.14186Q0.815103 7.05363 0.754079 6.9623Q0.693054 6.87097 0.636584 6.77676Q0.580115 6.68254 0.528336 6.58567Q0.476557 6.4888 0.429594 6.3895Q0.382631 6.29021 0.340596 6.18873Q0.298562 6.08725 0.261557 5.98383Q0.224553 5.88041 0.192668 5.7753Q0.160783 5.67018 0.134093 5.56364Q0.107404 5.45709 0.085975 5.34936Q0.0645461 5.24162 0.048429 5.13297Q0.032312 5.02432 0.0215456 4.91501Q0.0107793 4.8057 0.00538965 4.69599Q0 4.58628 0 4.47644L0 4.47444Q0 4.3646 0.00538965 4.25489Q0.0107793 4.14518 0.0215456 4.03587Q0.032312 3.92655 0.048429 3.8179Q0.0645461 3.70925 0.085975 3.60152Q0.107404 3.49379 0.134093 3.38724Q0.160783 3.28069 0.192668 3.17558Q0.224553 3.07047 0.261557 2.96704Q0.298562 2.86362 0.340596 2.76214Q0.382631 2.66066 0.429594 2.56137Q0.476557 2.46207 0.528336 2.3652Q0.580115 2.26833 0.636584 2.17412Q0.693054 2.0799 0.754079 1.98857Q0.815103 1.89724 0.880536 1.80902Q0.945968 1.72079 1.01565 1.63588Q1.08533 1.55098 1.1591 1.46959Q1.23286 1.3882 1.31053 1.31053Q1.3882 1.23286 1.46959 1.1591Q1.55098 1.08533 1.63588 1.01565Q1.72079 0.945968 1.80902 0.880535Q1.89724 0.815103 1.98857 0.754079Q2.0799 0.693054 2.17412 0.636584Q2.26833 0.580115 2.3652 0.528336Q2.46207 0.476557 2.56137 0.429594Q2.66066 0.382631 2.76214 0.340596Q2.86362 0.298562 2.96704 0.261557Q3.07046 0.224553 3.17558 0.192668Q3.28069 0.160783 3.38724 0.134093Q3.49379 0.107404 3.60152 0.085975Q3.70925 0.0645461 3.8179 0.048429Q3.92655 0.032312 4.03587 0.0215456Q4.14518 0.0107793 4.25489 0.00538965Q4.3646 0 4.47444 0Z" transform="translate(0 20.34277)" id="Rectangle-4" fill="#29CB8B" stroke="none" />
        <path d="M4.47444 0L25.6331 0Q25.7429 0 25.8526 0.00538965Q25.9623 0.0107793 26.0716 0.0215456Q26.181 0.032312 26.2896 0.048429Q26.3983 0.0645461 26.506 0.085975Q26.6137 0.107404 26.7203 0.134093Q26.8268 0.160783 26.9319 0.192668Q27.037 0.224553 27.1405 0.261557Q27.2439 0.298562 27.3454 0.340596Q27.4468 0.382631 27.5461 0.429594Q27.6454 0.476557 27.7423 0.528336Q27.8392 0.580115 27.9334 0.636584Q28.0276 0.693054 28.1189 0.754079Q28.2103 0.815103 28.2985 0.880536Q28.3867 0.945968 28.4716 1.01565Q28.5565 1.08533 28.6379 1.1591Q28.7193 1.23286 28.797 1.31053Q28.8746 1.3882 28.9484 1.46959Q29.0222 1.55098 29.0919 1.63588Q29.1615 1.72079 29.227 1.80902Q29.2924 1.89724 29.3534 1.98857Q29.4145 2.0799 29.4709 2.17412Q29.5274 2.26833 29.5792 2.3652Q29.6309 2.46207 29.6779 2.56137Q29.7249 2.66066 29.7669 2.76214Q29.8089 2.86362 29.8459 2.96704Q29.883 3.07046 29.9148 3.17558Q29.9467 3.28069 29.9734 3.38724Q30.0001 3.49379 30.0215 3.60152Q30.043 3.70925 30.0591 3.8179Q30.0752 3.92655 30.086 4.03587Q30.0967 4.14518 30.1021 4.25489Q30.1075 4.3646 30.1075 4.47444L30.1075 4.47644Q30.1075 4.58628 30.1021 4.69599Q30.0967 4.8057 30.086 4.91501Q30.0752 5.02432 30.0591 5.13297Q30.043 5.24162 30.0215 5.34936Q30.0001 5.45709 29.9734 5.56364Q29.9467 5.67018 29.9148 5.7753Q29.883 5.88041 29.846 5.98383Q29.8089 6.08725 29.7669 6.18873Q29.7249 6.29021 29.6779 6.3895Q29.6309 6.4888 29.5792 6.58567Q29.5274 6.68254 29.4709 6.77676Q29.4145 6.87097 29.3534 6.9623Q29.2924 7.05363 29.227 7.14186Q29.1615 7.23008 29.0919 7.31499Q29.0222 7.3999 28.9484 7.48128Q28.8746 7.56267 28.797 7.64034Q28.7193 7.71801 28.6379 7.79178Q28.5565 7.86554 28.4716 7.93522Q28.3867 8.0049 28.2985 8.07034Q28.2103 8.13577 28.1189 8.19679Q28.0276 8.25782 27.9334 8.31429Q27.8392 8.37076 27.7423 8.42254Q27.6454 8.47432 27.5461 8.52128Q27.4468 8.56824 27.3454 8.61028Q27.2439 8.65231 27.1405 8.68931Q27.037 8.72632 26.9319 8.75821Q26.8268 8.79009 26.7203 8.81678Q26.6137 8.84347 26.506 8.8649Q26.3983 8.88633 26.2896 8.90244Q26.181 8.91856 26.0716 8.92933Q25.9623 8.94009 25.8526 8.94548Q25.7429 8.95087 25.6331 8.95087L4.47444 8.95087Q4.3646 8.95087 4.25489 8.94548Q4.14518 8.94009 4.03587 8.92933Q3.92655 8.91856 3.8179 8.90244Q3.70925 8.88633 3.60152 8.8649Q3.49379 8.84347 3.38724 8.81678Q3.28069 8.79009 3.17558 8.75821Q3.07047 8.72632 2.96704 8.68931Q2.86362 8.65231 2.76214 8.61028Q2.66066 8.56824 2.56137 8.52128Q2.46207 8.47432 2.3652 8.42254Q2.26833 8.37076 2.17412 8.31429Q2.0799 8.25782 1.98857 8.19679Q1.89724 8.13577 1.80902 8.07034Q1.72079 8.0049 1.63588 7.93522Q1.55098 7.86554 1.46959 7.79178Q1.3882 7.71801 1.31053 7.64034Q1.23286 7.56267 1.1591 7.48128Q1.08533 7.3999 1.01565 7.31499Q0.945968 7.23008 0.880535 7.14186Q0.815103 7.05363 0.754079 6.9623Q0.693054 6.87097 0.636584 6.77676Q0.580115 6.68254 0.528336 6.58567Q0.476557 6.4888 0.429594 6.3895Q0.382631 6.29021 0.340596 6.18873Q0.298562 6.08725 0.261557 5.98383Q0.224553 5.88041 0.192668 5.7753Q0.160783 5.67018 0.134093 5.56364Q0.107404 5.45709 0.085975 5.34936Q0.0645461 5.24162 0.048429 5.13297Q0.032312 5.02432 0.0215456 4.91501Q0.0107793 4.8057 0.00538965 4.69599Q0 4.58628 0 4.47644L0 4.47444Q0 4.3646 0.00538965 4.25489Q0.0107793 4.14518 0.0215456 4.03587Q0.032312 3.92655 0.048429 3.8179Q0.0645461 3.70925 0.085975 3.60152Q0.107404 3.49379 0.134093 3.38724Q0.160783 3.28069 0.192668 3.17558Q0.224553 3.07047 0.261557 2.96704Q0.298562 2.86362 0.340596 2.76214Q0.382631 2.66066 0.429594 2.56137Q0.476557 2.46207 0.528336 2.3652Q0.580115 2.26833 0.636584 2.17412Q0.693054 2.0799 0.754079 1.98857Q0.815103 1.89724 0.880536 1.80902Q0.945968 1.72079 1.01565 1.63588Q1.08533 1.55098 1.1591 1.46959Q1.23286 1.3882 1.31053 1.31053Q1.3882 1.23286 1.46959 1.1591Q1.55098 1.08533 1.63588 1.01565Q1.72079 0.945968 1.80902 0.880535Q1.89724 0.815103 1.98857 0.754079Q2.0799 0.693054 2.17412 0.636584Q2.26833 0.580115 2.3652 0.528336Q2.46207 0.476557 2.56137 0.429594Q2.66066 0.382631 2.76214 0.340596Q2.86362 0.298562 2.96704 0.261557Q3.07046 0.224553 3.17558 0.192668Q3.28069 0.160783 3.38724 0.134093Q3.49379 0.107404 3.60152 0.085975Q3.70925 0.0645461 3.8179 0.048429Q3.92655 0.032312 4.03587 0.0215456Q4.14518 0.0107793 4.25489 0.00538965Q4.3646 0 4.47444 0Z" transform="translate(0 42.31299)" id="Rectangle-5" fill="#29CB8B" stroke="none" />
      </g>
      <g id="Group-10" transform="translate(41.16943 17.08813)">
        <path d="M8.95088 4.47444L8.95088 37.8388Q8.95088 37.9487 8.94549 38.0584Q8.9401 38.1681 8.92934 38.2774Q8.91857 38.3867 8.90245 38.4953Q8.88634 38.604 8.86491 38.7117Q8.84348 38.8195 8.81679 38.926Q8.7901 39.0326 8.75821 39.1377Q8.72633 39.2428 8.68932 39.3462Q8.65232 39.4496 8.61028 39.5511Q8.56825 39.6526 8.52129 39.7519Q8.47432 39.8512 8.42254 39.948Q8.37077 40.0449 8.31429 40.1391Q8.25783 40.2333 8.1968 40.3247Q8.13578 40.416 8.07034 40.5042Q8.00491 40.5925 7.93523 40.6774Q7.86555 40.7623 7.79178 40.8437Q7.71802 40.925 7.64035 41.0027Q7.56268 41.0804 7.48129 41.1541Q7.3999 41.2279 7.315 41.2976Q7.23009 41.3673 7.14186 41.4327Q7.05364 41.4981 6.96231 41.5592Q6.87098 41.6202 6.77676 41.6767Q6.68255 41.7331 6.58568 41.7849Q6.48881 41.8367 6.38951 41.8837Q6.29021 41.9306 6.18873 41.9726Q6.08725 42.0147 5.98383 42.0517Q5.88041 42.0887 5.7753 42.1206Q5.67019 42.1525 5.56364 42.1791Q5.45709 42.2058 5.34936 42.2273Q5.24163 42.2487 5.13298 42.2648Q5.02432 42.2809 4.91501 42.2917Q4.8057 42.3025 4.69599 42.3079Q4.58628 42.3132 4.47644 42.3133L4.47444 42.3133Q4.3646 42.3132 4.25489 42.3079Q4.14518 42.3025 4.03587 42.2917Q3.92656 42.2809 3.8179 42.2648Q3.70925 42.2487 3.60152 42.2273Q3.49379 42.2058 3.38724 42.1792Q3.28069 42.1525 3.17558 42.1206Q3.07047 42.0887 2.96705 42.0517Q2.86363 42.0147 2.76215 41.9726Q2.66067 41.9306 2.56137 41.8837Q2.46208 41.8367 2.3652 41.7849Q2.26833 41.7331 2.17412 41.6767Q2.0799 41.6202 1.98857 41.5592Q1.89725 41.4981 1.80902 41.4327Q1.72079 41.3673 1.63589 41.2976Q1.55098 41.2279 1.46959 41.1541Q1.3882 41.0804 1.31053 41.0027Q1.23286 40.925 1.1591 40.8437Q1.08533 40.7623 1.01565 40.6774Q0.945969 40.5925 0.880536 40.5042Q0.815104 40.416 0.754079 40.3247Q0.693055 40.2333 0.636585 40.1391Q0.580115 40.0449 0.528336 39.948Q0.476557 39.8512 0.429594 39.7519Q0.382631 39.6526 0.340596 39.5511Q0.298562 39.4496 0.261558 39.3462Q0.224553 39.2428 0.192668 39.1377Q0.160783 39.0326 0.134093 38.926Q0.107404 38.8195 0.0859751 38.7117Q0.0645461 38.604 0.0484291 38.4953Q0.032312 38.3867 0.0215457 38.2774Q0.0107793 38.1681 0.00538966 38.0584Q0 37.9487 0 37.8388L0 4.47444Q0 4.3646 0.00538966 4.25489Q0.0107793 4.14518 0.0215457 4.03587Q0.032312 3.92656 0.0484291 3.8179Q0.0645461 3.70925 0.0859751 3.60152Q0.107404 3.49379 0.134093 3.38724Q0.160783 3.28069 0.192668 3.17558Q0.224553 3.07047 0.261558 2.96705Q0.298562 2.86363 0.340596 2.76215Q0.382631 2.66067 0.429594 2.56137Q0.476557 2.46208 0.528336 2.3652Q0.580115 2.26833 0.636585 2.17412Q0.693055 2.0799 0.754079 1.98857Q0.815104 1.89725 0.880536 1.80902Q0.945969 1.72079 1.01565 1.63589Q1.08533 1.55098 1.1591 1.46959Q1.23286 1.3882 1.31053 1.31053Q1.3882 1.23286 1.46959 1.1591Q1.55098 1.08533 1.63589 1.01565Q1.72079 0.945969 1.80902 0.880536Q1.89724 0.815104 1.98857 0.754079Q2.0799 0.693055 2.17412 0.636585Q2.26833 0.580115 2.3652 0.528336Q2.46208 0.476557 2.56137 0.429594Q2.66067 0.382631 2.76215 0.340596Q2.86363 0.298562 2.96705 0.261558Q3.07047 0.224553 3.17558 0.192668Q3.28069 0.160783 3.38724 0.134093Q3.49379 0.107404 3.60152 0.0859751Q3.70925 0.0645461 3.8179 0.0484291Q3.92656 0.032312 4.03587 0.0215457Q4.14518 0.0107793 4.25489 0.00538966Q4.3646 0 4.47444 0L4.47644 0Q4.58628 0 4.69599 0.00538966Q4.8057 0.0107793 4.91501 0.0215457Q5.02432 0.032312 5.13298 0.0484291Q5.24163 0.0645461 5.34936 0.0859751Q5.45709 0.107404 5.56364 0.134093Q5.67019 0.160783 5.7753 0.192668Q5.88041 0.224553 5.98383 0.261558Q6.08725 0.298562 6.18873 0.340596Q6.29021 0.382631 6.38951 0.429594Q6.48881 0.476557 6.58568 0.528336Q6.68255 0.580115 6.77676 0.636585Q6.87098 0.693055 6.96231 0.754079Q7.05364 0.815104 7.14186 0.880536Q7.23009 0.945969 7.315 1.01565Q7.3999 1.08533 7.48129 1.1591Q7.56268 1.23286 7.64035 1.31053Q7.71802 1.3882 7.79178 1.46959Q7.86555 1.55098 7.93523 1.63589Q8.00491 1.72079 8.07034 1.80902Q8.13578 1.89724 8.1968 1.98857Q8.25783 2.0799 8.3143 2.17412Q8.37077 2.26833 8.42255 2.3652Q8.47432 2.46208 8.52129 2.56137Q8.56825 2.66067 8.61028 2.76215Q8.65232 2.86363 8.68932 2.96705Q8.72633 3.07047 8.75821 3.17558Q8.7901 3.28069 8.81679 3.38724Q8.84348 3.49379 8.86491 3.60152Q8.88634 3.70925 8.90245 3.8179Q8.91857 3.92656 8.92934 4.03587Q8.9401 4.14518 8.94549 4.25489Q8.95088 4.3646 8.95088 4.47444Z" transform="translate(14.16357 0)" id="Rectangle-3-Copy-2" fill="#29CB8B" stroke="none" />
        <path d="M21.5778 9.49306L9.49327 21.5776Q9.4156 21.6552 9.33421 21.729Q9.25282 21.8028 9.16791 21.8724Q9.083 21.9421 8.99478 22.0076Q8.90655 22.073 8.81522 22.134Q8.72389 22.195 8.62967 22.2515Q8.53546 22.308 8.43859 22.3598Q8.34171 22.4115 8.24242 22.4585Q8.14312 22.5055 8.04164 22.5475Q7.94016 22.5895 7.83674 22.6265Q7.73332 22.6635 7.62821 22.6954Q7.52309 22.7273 7.41654 22.754Q7.30999 22.7807 7.20226 22.8021Q7.09453 22.8236 6.98588 22.8397Q6.87722 22.8558 6.76791 22.8666Q6.6586 22.8773 6.54889 22.8827Q6.43918 22.8881 6.32933 22.8881Q6.21949 22.8881 6.10978 22.8827Q6.00007 22.8773 5.89076 22.8666Q5.78144 22.8558 5.67279 22.8397Q5.56414 22.8236 5.45641 22.8021Q5.34867 22.7807 5.24212 22.754Q5.13557 22.7273 5.03046 22.6955Q4.92535 22.6636 4.82192 22.6266Q4.7185 22.5896 4.61702 22.5475Q4.51554 22.5055 4.41624 22.4585Q4.31695 22.4116 4.22007 22.3598Q4.1232 22.308 4.02898 22.2515Q3.93477 22.1951 3.84344 22.1341Q3.75211 22.073 3.66388 22.0076Q3.57565 21.9422 3.49074 21.8725Q3.40583 21.8028 3.32444 21.729Q3.24305 21.6553 3.16538 21.5776L3.16397 21.5762Q3.0863 21.4985 3.01253 21.4171Q2.93877 21.3357 2.86908 21.2508Q2.7994 21.1659 2.73396 21.0777Q2.66853 20.9895 2.60751 20.8982Q2.54648 20.8068 2.49001 20.7126Q2.43354 20.6184 2.38176 20.5215Q2.32998 20.4247 2.28301 20.3254Q2.23605 20.2261 2.19401 20.1246Q2.15198 20.0231 2.11497 19.9197Q2.07797 19.8163 2.04608 19.7112Q2.01419 19.6061 1.9875 19.4995Q1.96081 19.393 1.93938 19.2852Q1.91795 19.1775 1.90184 19.0688Q1.88572 18.9602 1.87495 18.8509Q1.86418 18.7416 1.85879 18.6319Q1.8534 18.5221 1.8534 18.4123Q1.8534 18.3025 1.85879 18.1928Q1.86418 18.083 1.87494 17.9737Q1.88571 17.8644 1.90183 17.7558Q1.91794 17.6471 1.93937 17.5394Q1.9608 17.4317 1.98749 17.3251Q2.01418 17.2186 2.04606 17.1134Q2.07794 17.0083 2.11495 16.9049Q2.15195 16.8015 2.19399 16.7Q2.23602 16.5985 2.28298 16.4992Q2.32995 16.3999 2.38172 16.3031Q2.4335 16.2062 2.48997 16.112Q2.54644 16.0178 2.60747 15.9264Q2.66849 15.8351 2.73392 15.7469Q2.79935 15.6587 2.86904 15.5738Q2.93872 15.4888 3.01248 15.4075Q3.08625 15.3261 3.16392 15.2484L15.2484 3.16392Q15.3261 3.08625 15.4075 3.01248Q15.4889 2.93871 15.5738 2.86903Q15.6587 2.79935 15.7469 2.73391Q15.8351 2.66848 15.9265 2.60746Q16.0178 2.54643 16.112 2.48996Q16.2062 2.43349 16.3031 2.38171Q16.4 2.32993 16.4993 2.28297Q16.5986 2.236 16.7 2.19397Q16.8015 2.15193 16.9049 2.11493Q17.0084 2.07792 17.1135 2.04604Q17.2186 2.01415 17.3251 1.98746Q17.4317 1.96077 17.5394 1.93934Q17.6471 1.91791 17.7558 1.90179Q17.8645 1.88567 17.9738 1.87491Q18.0831 1.86414 18.1928 1.85875Q18.3025 1.85336 18.4123 1.85336Q18.5222 1.85336 18.6319 1.85875Q18.7416 1.86414 18.8509 1.8749Q18.9602 1.88567 19.0689 1.90178Q19.1775 1.9179 19.2853 1.93933Q19.393 1.96076 19.4996 1.98744Q19.6061 2.01413 19.7112 2.04602Q19.8163 2.0779 19.9198 2.1149Q20.0232 2.15191 20.1247 2.19394Q20.2261 2.23598 20.3254 2.28294Q20.4247 2.3299 20.5216 2.38168Q20.6185 2.43346 20.7127 2.48992Q20.8069 2.54639 20.8982 2.60742Q20.9896 2.66844 21.0778 2.73387Q21.166 2.7993 21.2509 2.86899Q21.3358 2.93867 21.4172 3.01243Q21.4986 3.0862 21.5763 3.16387L21.5777 3.16528Q21.6554 3.24295 21.7291 3.32434Q21.8029 3.40572 21.8726 3.49063Q21.9423 3.57554 22.0077 3.66376Q22.0731 3.75198 22.1342 3.84331Q22.1952 3.93464 22.2517 4.02885Q22.3081 4.12307 22.3599 4.21994Q22.4117 4.31681 22.4587 4.4161Q22.5056 4.5154 22.5477 4.61688Q22.5897 4.71836 22.6267 4.82178Q22.6637 4.9252 22.6956 5.03031Q22.7275 5.13542 22.7542 5.24197Q22.7809 5.34852 22.8023 5.45625Q22.8237 5.56398 22.8398 5.67263Q22.856 5.78128 22.8667 5.89059Q22.8775 5.9999 22.8829 6.10961Q22.8883 6.21932 22.8883 6.32916Q22.8883 6.439 22.8829 6.54871Q22.8775 6.65842 22.8667 6.76773Q22.856 6.87705 22.8399 6.9857Q22.8237 7.09435 22.8023 7.20208Q22.7809 7.30981 22.7542 7.41636Q22.7275 7.52291 22.6956 7.62802Q22.6637 7.73313 22.6267 7.83655Q22.5897 7.93997 22.5477 8.04145Q22.5057 8.14293 22.4587 8.24223Q22.4117 8.34153 22.36 8.4384Q22.3082 8.53527 22.2517 8.62948Q22.1952 8.72369 22.1342 8.81502Q22.0732 8.90635 22.0078 8.99458Q21.9423 9.0828 21.8726 9.16771Q21.803 9.25262 21.7292 9.33401Q21.6554 9.41539 21.5778 9.49306L21.5778 9.49306Z" transform="translate(12.71582 19.70972)" id="Rectangle-3-Copy-3" fill="#29CB8B" stroke="none" />
        <path d="M4.33781 0.045652L21.6039 0.227364Q21.7112 0.228493 21.8183 0.234814Q21.9254 0.241136 22.0322 0.252635Q22.1389 0.264133 22.2449 0.280782Q22.3509 0.297431 22.456 0.319192Q22.5611 0.340952 22.665 0.367773Q22.7689 0.394593 22.8714 0.426411Q22.9739 0.458229 23.0748 0.49497Q23.1756 0.531711 23.2746 0.573289Q23.3735 0.614867 23.4703 0.661184Q23.5671 0.707501 23.6616 0.758449Q23.7561 0.809397 23.8479 0.864856Q23.9398 0.920316 24.0289 0.980156Q24.118 1.04 24.2041 1.10408Q24.2902 1.16816 24.3731 1.23634Q24.456 1.30451 24.5355 1.37661Q24.615 1.44872 24.6909 1.52459Q24.7668 1.60045 24.8389 1.6799Q24.9111 1.75936 24.9793 1.84221Q25.0475 1.92506 25.1117 2.01111Q25.1758 2.09717 25.2357 2.18622Q25.2956 2.27528 25.3511 2.36713Q25.4066 2.45898 25.4576 2.55342Q25.5086 2.64785 25.555 2.74463Q25.6014 2.84142 25.643 2.94034Q25.6847 3.03926 25.7215 3.14008Q25.7583 3.24089 25.7901 3.34337Q25.822 3.44585 25.8489 3.54976Q25.8758 3.65366 25.8976 3.75874Q25.9194 3.86383 25.9361 3.96984Q25.9528 4.07586 25.9644 4.18255Q25.976 4.28925 25.9824 4.39639Q25.9887 4.50352 25.9899 4.61084L25.99 4.61284Q25.9911 4.71849 25.987 4.82406Q25.983 4.92963 25.9736 5.03486Q25.9643 5.1401 25.9497 5.24474Q25.9352 5.34939 25.9155 5.45318Q25.8957 5.55696 25.8708 5.65964Q25.846 5.76232 25.816 5.86364Q25.7861 5.96495 25.7511 6.06465Q25.7161 6.16435 25.6763 6.26218Q25.6364 6.36002 25.5917 6.45575Q25.547 6.55148 25.4976 6.64488Q25.4482 6.73827 25.3942 6.82908Q25.3403 6.9199 25.2818 7.00792Q25.2234 7.09594 25.1607 7.18095Q25.0979 7.26595 25.031 7.34773Q24.9641 7.42951 24.8933 7.50786Q24.8224 7.58621 24.7477 7.66094Q24.673 7.73566 24.5947 7.80658Q24.5164 7.8775 24.4347 7.94444Q24.3529 8.01138 24.268 8.07417Q24.183 8.13695 24.095 8.19544Q24.007 8.25392 23.9163 8.30795Q23.8255 8.36199 23.7321 8.41144Q23.6387 8.46089 23.543 8.50564Q23.4473 8.55039 23.3495 8.59032Q23.2517 8.63025 23.152 8.66526Q23.0523 8.70028 22.9511 8.73029Q22.8498 8.76031 22.7471 8.78525Q22.6444 8.81018 22.5407 8.82999Q22.4369 8.84979 22.3322 8.8644Q22.2276 8.87901 22.1224 8.8884Q22.0171 8.89779 21.9116 8.90194Q21.806 8.90608 21.7004 8.90497L4.43431 8.72326Q4.32699 8.72213 4.21986 8.71581Q4.11272 8.70949 4.00601 8.69799Q3.8993 8.68649 3.79328 8.66984Q3.68725 8.65319 3.58216 8.63143Q3.47706 8.60967 3.37315 8.58285Q3.26923 8.55603 3.16673 8.52421Q3.06423 8.4924 2.96339 8.45565Q2.86255 8.41891 2.76361 8.37733Q2.66466 8.33576 2.56785 8.28944Q2.47103 8.24312 2.37657 8.19218Q2.28211 8.14123 2.19023 8.08577Q2.09834 8.03031 2.00925 7.97047Q1.92016 7.91063 1.83406 7.84654Q1.74797 7.78246 1.66508 7.71429Q1.58219 7.64612 1.50269 7.57401Q1.4232 7.50191 1.34729 7.42604Q1.27138 7.35017 1.19922 7.27072Q1.12707 7.19127 1.05885 7.10842Q0.990628 7.02557 0.926494 6.93951Q0.862361 6.85346 0.802468 6.7644Q0.742574 6.67534 0.68706 6.58349Q0.631546 6.49164 0.580543 6.39721Q0.529539 6.30278 0.483164 6.20599Q0.43679 6.1092 0.395154 6.01028Q0.353517 5.91136 0.316717 5.81055Q0.279916 5.70973 0.248038 5.60725Q0.216159 5.50477 0.189277 5.40087Q0.162395 5.29696 0.140572 5.19188Q0.11875 5.0868 0.102038 4.98078Q0.0853264 4.87477 0.0737646 4.76807Q0.0622027 4.66137 0.0558179 4.55423Q0.049433 4.4471 0.0482401 4.33978L0.0482179 4.33778Q0.0470436 4.23214 0.0511257 4.12657Q0.0552079 4.021 0.0645364 3.91576Q0.0738649 3.81052 0.0884166 3.70588Q0.102968 3.60124 0.122707 3.49745Q0.142446 3.39366 0.167324 3.29098Q0.192201 3.1883 0.222155 3.08699Q0.252109 2.98567 0.287066 2.88598Q0.322023 2.78628 0.361896 2.68844Q0.401768 2.5906 0.446458 2.49487Q0.491148 2.39914 0.540545 2.30575Q0.589942 2.21236 0.643923 2.12154Q0.697904 2.03072 0.756336 1.9427Q0.814768 1.85468 0.877506 1.76968Q0.940244 1.68467 1.00713 1.6029Q1.07402 1.52112 1.14489 1.44277Q1.21577 1.36442 1.29045 1.28969Q1.36514 1.21496 1.44344 1.14404Q1.52175 1.07312 1.60349 1.00618Q1.68523 0.939247 1.7702 0.876459Q1.85516 0.813671 1.94315 0.755187Q2.03114 0.696703 2.12192 0.642668Q2.21271 0.588633 2.30607 0.539181Q2.39943 0.489729 2.49514 0.444983Q2.59084 0.400236 2.68865 0.360305Q2.78647 0.320375 2.88614 0.285359Q2.98582 0.250343 3.08712 0.220329Q3.18842 0.190315 3.29108 0.165377Q3.39374 0.140439 3.49752 0.120639Q3.6013 0.100838 3.70593 0.0862246Q3.81057 0.0716109 3.9158 0.0622202Q4.02103 0.0528294 4.1266 0.0486848Q4.23217 0.0445402 4.33781 0.045652L4.33781 0.045652Z" transform="matrix(-0.7071068 -0.7071068 0.7071068 -0.7071068 18.41162 44.44971)" id="Rectangle-3-Copy-4" fill="#29CB8B" stroke="none" />
      </g>
    </g>
  </g>
</svg>